<svg width="63" height="27" viewBox="0 0 63 27" fill="none" xmlns="http://www.w3.org/2000/svg">
<g clip-path="url(#clip0_28_1289)">
<path d="M55.4335 12.8111L55.4057 12.839C55.6009 12.3093 55.9911 12.1142 56.3256 12.1142C56.7995 12.1142 57.2176 12.4766 57.2176 13.0062C57.2176 13.1178 57.2176 13.2571 57.1619 13.4244C56.1862 15.9333 54.1234 17.2155 52.1163 17.4107C51.1964 18.9717 49.6911 20.1147 47.5446 20.1147C44.4782 20.1147 43.1123 17.6895 43.1123 15.0412C43.1123 11.7797 45.1752 8.15576 48.6318 8.15576C49.3844 8.15576 50.0256 8.32309 50.5552 8.54606C52.1163 9.13144 53.1199 11.1664 53.1199 13.3407C53.1199 14.0376 53.0641 14.7345 52.8968 15.4036C53.9283 15.0412 54.9039 14.2049 55.4335 12.8111ZM49.6075 10.4416V10.4138C48.9942 10.4138 48.6318 11.2221 48.6318 12.1978C48.6318 13.6195 49.4123 14.9297 50.6389 15.4036C50.834 14.7903 50.9176 14.0934 50.9176 13.285C50.9176 11.724 50.4437 10.4416 49.6075 10.4416ZM47.5725 18.0797C48.353 18.0797 49.1335 17.7452 49.7468 17.0483C47.9349 16.2399 46.792 14.3443 46.792 12.5323C46.792 11.919 46.9035 11.2779 47.0707 10.7204C45.9557 11.6403 45.3145 13.4523 45.3145 15.0412C45.3145 17.104 46.2902 18.0797 47.5725 18.0797Z" fill="black"/>
<path d="M43.5422 12.8112L43.5143 12.8391C43.7095 12.3095 44.044 12.0865 44.3785 12.0865C44.8524 12.0865 45.3262 12.5046 45.3262 13.0343C45.3262 13.1736 45.2984 13.2852 45.2426 13.4245C44.1555 16.0728 42.5386 19.167 39.9462 20.979L39.8905 21.5365C39.5838 24.8817 37.8834 27.0002 35.7369 27.0002C34.12 27.0002 33.1723 25.8852 33.1723 24.575C33.1723 22.2055 35.5975 21.3414 37.8555 19.8918C37.9112 19.3064 37.9391 18.6374 37.9669 17.8847C36.8519 19.1112 35.6533 19.6131 34.594 19.6131C32.4754 19.6131 30.7471 17.8847 30.7471 15.2365C30.7471 11.1666 33.4231 8.49048 36.4059 8.49048H36.4338C38.4688 8.49048 40.6431 9.5776 40.6431 11.529C40.6431 12.1701 40.3643 15.6546 40.1413 18.3586C41.6466 16.9369 42.901 14.6232 43.5422 12.8112ZM34.9006 17.606C35.932 17.606 37.3258 16.9648 38.19 13.8148C38.3293 13.1179 38.413 12.5046 38.3851 11.7798C38.2179 11.0272 37.5767 10.5812 36.6568 10.5812C34.7612 10.5812 32.9493 12.3931 32.9493 15.1529C32.9493 16.8255 33.7298 17.606 34.9006 17.606ZM35.9599 24.9653H35.9878C36.5731 24.9653 37.2143 24.575 37.6324 22.0662C36.4059 22.7909 35.263 23.5157 35.263 24.3798C35.263 24.7422 35.5417 24.9653 35.9599 24.9653Z" fill="black"/>
<path d="M31.2368 12.8111L31.2089 12.839C31.404 12.3093 31.7943 12.1142 32.1288 12.1142C32.6027 12.1142 33.0209 12.4766 33.0209 13.0062C33.0209 13.1178 33.0209 13.2571 32.9651 13.4244C31.9895 15.9333 29.9266 17.2155 27.9195 17.4107C26.9996 18.9717 25.4943 20.1147 23.3478 20.1147C20.2814 20.1147 18.9155 17.6895 18.9155 15.0412C18.9155 11.7797 20.9783 8.15576 24.435 8.15576C25.1876 8.15576 25.8288 8.32309 26.3585 8.54606C27.9195 9.13144 28.9231 11.1664 28.9231 13.3407C28.9231 14.0376 28.8673 14.7345 28.7 15.4036C29.7315 15.0412 30.7071 14.2049 31.2368 12.8111ZM25.4107 10.4416V10.4138C24.7974 10.4138 24.435 11.2221 24.435 12.1978C24.435 13.6195 25.2155 14.9297 26.4421 15.4036C26.6372 14.7903 26.7209 14.0934 26.7209 13.285C26.7209 11.724 26.2469 10.4416 25.4107 10.4416ZM23.3757 18.0797C24.1562 18.0797 24.9368 17.7452 25.55 17.0483C23.7381 16.2399 22.5952 14.3443 22.5952 12.5323C22.5952 11.919 22.7067 11.2779 22.874 10.7204C21.7589 11.6403 21.1178 13.4523 21.1178 15.0412C21.1178 17.104 22.0934 18.0797 23.3757 18.0797Z" fill="black"/>
<path d="M20.3322 11.9311C19.9419 11.9311 19.6074 12.1263 19.3843 12.6559C18.6596 14.4958 17.1542 17.6179 15.621 17.6179C14.6556 17.6179 13.9085 17.3996 13.1536 17.179C12.3826 16.9537 11.6035 16.7259 10.5753 16.7259C10.2129 16.7259 9.71116 16.7817 9.23725 16.8653C10.6649 14.9185 11.1983 12.5607 11.7151 8.10396C10.742 8.04201 9.95045 7.86224 9.37349 7.68066C8.75725 13.333 8.05746 15.4882 5.50178 17.6179C5.16726 17.8967 5 18.287 5 18.6773C5 19.2906 5.52966 19.8202 6.1987 19.8202C6.42172 19.8202 6.6726 19.7366 6.92349 19.6251C8.3452 18.9839 9.20938 18.8167 10.2687 18.8167C10.9423 18.8167 11.7484 19.0093 12.6114 19.2155C13.6054 19.4531 14.675 19.7087 15.7047 19.7087C17.9626 19.7087 19.4401 17.5065 21.0848 13.2413C21.1685 13.102 21.1963 12.9347 21.1963 12.7953C21.1963 12.2656 20.7782 11.9311 20.3322 11.9311Z" fill="black"/>
<path fill-rule="evenodd" clip-rule="evenodd" d="M9.51512 6.52715C10.0199 6.70338 10.808 6.90855 11.8299 6.96925L11.9971 6.96916C15.1472 6.96916 17.2101 5.0178 17.2101 2.67616C17.2101 1.17082 16.0393 0 14.3945 0C12.1923 0 10.6591 1.50534 9.87851 4.48814C8.90282 3.95849 8.23379 3.01068 7.89926 1.81199C7.732 1.22657 7.36961 0.864173 6.86782 0.864173C6.25454 0.864173 5.86426 1.33808 5.86426 1.97924C5.86426 3.87486 7.34173 5.68684 9.51611 6.52314L9.51512 6.52715ZM12.1644 4.93417C12.5825 3.01068 13.2516 2.09075 14.1436 2.09075C14.6176 2.09075 14.9242 2.36952 14.9242 2.8713C14.9242 3.79123 13.9485 4.87841 12.1644 4.93417Z" fill="black"/>
</g>
<defs>
<clipPath id="clip0_28_1289">
<rect width="52.5" height="27" fill="white" transform="translate(5)"/>
</clipPath>
</defs>
</svg>
