<svg width="63" height="28" viewBox="0 0 63 28" fill="none" xmlns="http://www.w3.org/2000/svg">
<g clip-path="url(#clip0_28_1352)">
<g clip-path="url(#clip1_28_1352)">
<path d="M55.4335 13.3111L55.4057 13.339C55.6009 12.8093 55.9911 12.6142 56.3256 12.6142C56.7995 12.6142 57.2176 12.9766 57.2176 13.5062C57.2176 13.6178 57.2176 13.7571 57.1619 13.9244C56.1862 16.4333 54.1234 17.7155 52.1163 17.9107C51.1964 19.4717 49.6911 20.6147 47.5446 20.6147C44.4782 20.6147 43.1123 18.1895 43.1123 15.5412C43.1123 12.2797 45.1752 8.65576 48.6318 8.65576C49.3844 8.65576 50.0256 8.82309 50.5552 9.04606C52.1163 9.63144 53.1199 11.6664 53.1199 13.8407C53.1199 14.5376 53.0641 15.2345 52.8968 15.9036C53.9283 15.5412 54.9039 14.7049 55.4335 13.3111ZM49.6075 10.9416V10.9138C48.9942 10.9138 48.6318 11.7221 48.6318 12.6978C48.6318 14.1195 49.4123 15.4297 50.6389 15.9036C50.834 15.2903 50.9176 14.5934 50.9176 13.785C50.9176 12.224 50.4437 10.9416 49.6075 10.9416ZM47.5725 18.5797C48.353 18.5797 49.1335 18.2452 49.7468 17.5483C47.9349 16.7399 46.792 14.8443 46.792 13.0323C46.792 12.419 46.9035 11.7779 47.0707 11.2204C45.9557 12.1403 45.3145 13.9523 45.3145 15.5412C45.3145 17.604 46.2902 18.5797 47.5725 18.5797Z" fill="black"/>
<path d="M43.5422 13.3111L43.5143 13.339C43.7095 12.8094 44.044 12.5864 44.3785 12.5864C44.8524 12.5864 45.3262 13.0045 45.3262 13.5342C45.3262 13.6735 45.2984 13.785 45.2426 13.9244C44.1555 16.5726 42.5386 19.6669 39.9462 21.4788L39.8905 22.0364C39.5838 25.3815 37.8834 27.5001 35.7369 27.5001C34.12 27.5001 33.1723 26.385 33.1723 25.0749C33.1723 22.7054 35.5975 21.8412 37.8555 20.3917C37.9112 19.8063 37.9391 19.1373 37.9669 18.3846C36.8519 19.6111 35.6533 20.1129 34.594 20.1129C32.4754 20.1129 30.7471 18.3846 30.7471 15.7364C30.7471 11.6664 33.4231 8.99036 36.4059 8.99036H36.4338C38.4688 8.99036 40.6431 10.0775 40.6431 12.0288C40.6431 12.67 40.3643 16.1545 40.1413 18.8585C41.6466 17.4368 42.901 15.1231 43.5422 13.3111ZM34.9006 18.1059C35.932 18.1059 37.3258 17.4647 38.19 14.3147C38.3293 13.6178 38.413 13.0045 38.3851 12.2797C38.2179 11.5271 37.5767 11.0811 36.6568 11.0811C34.7612 11.0811 32.9493 12.893 32.9493 15.6528C32.9493 17.3253 33.7298 18.1059 34.9006 18.1059ZM35.9599 25.4652H35.9878C36.5731 25.4652 37.2143 25.0749 37.6324 22.566C36.4059 23.2908 35.263 24.0156 35.263 24.8797C35.263 25.2421 35.5417 25.4652 35.9599 25.4652Z" fill="black"/>
<path d="M31.2363 13.3111L31.2084 13.339C31.4035 12.8093 31.7938 12.6142 32.1283 12.6142C32.6022 12.6142 33.0204 12.9766 33.0204 13.5062C33.0204 13.6178 33.0204 13.7571 32.9646 13.9244C31.989 16.4333 29.9261 17.7155 27.919 17.9107C26.9991 19.4717 25.4938 20.6147 23.3473 20.6147C20.2809 20.6147 18.915 18.1895 18.915 15.5412C18.915 12.2797 20.9778 8.65576 24.4345 8.65576C25.1871 8.65576 25.8283 8.82309 26.358 9.04606C27.919 9.63144 28.9226 11.6664 28.9226 13.8407C28.9226 14.5376 28.8668 15.2345 28.6995 15.9036C29.731 15.5412 30.7066 14.7049 31.2363 13.3111ZM25.4102 10.9416V10.9138C24.7969 10.9138 24.4345 11.7221 24.4345 12.6978C24.4345 14.1195 25.215 15.4297 26.4416 15.9036C26.6367 15.2903 26.7204 14.5934 26.7204 13.785C26.7204 12.224 26.2464 10.9416 25.4102 10.9416ZM23.3752 18.5797C24.1557 18.5797 24.9363 18.2452 25.5495 17.5483C23.7376 16.7399 22.5947 14.8443 22.5947 13.0323C22.5947 12.419 22.7062 11.7779 22.8735 11.2204C21.7584 12.1403 21.1173 13.9523 21.1173 15.5412C21.1173 17.604 22.0929 18.5797 23.3752 18.5797Z" fill="black"/>
<path d="M20.3322 12.4313C19.9419 12.4313 19.6074 12.6264 19.3843 13.1561C18.6596 14.9959 17.1542 18.1181 15.621 18.1181C14.6556 18.1181 13.9085 17.8997 13.1536 17.6791C12.3826 17.4538 11.6035 17.226 10.5753 17.226C10.2129 17.226 9.71116 17.2818 9.23725 17.3654C10.6649 15.4186 11.1983 13.0608 11.7151 8.60409C10.742 8.54214 9.95045 8.36236 9.37349 8.18079C8.75725 13.8332 8.05746 15.9884 5.50178 18.1181C5.16726 18.3968 5 18.7871 5 19.1774C5 19.7907 5.52966 20.3204 6.1987 20.3204C6.42172 20.3204 6.6726 20.2367 6.92349 20.1252C8.3452 19.484 9.20938 19.3168 10.2687 19.3168C10.9423 19.3168 11.7484 19.5095 12.6114 19.7156C13.6054 19.9532 14.675 20.2088 15.7047 20.2088C17.9626 20.2088 19.4401 18.0066 21.0848 13.7414C21.1685 13.6021 21.1963 13.4348 21.1963 13.2954C21.1963 12.7658 20.7782 12.4313 20.3322 12.4313Z" fill="black"/>
<path fill-rule="evenodd" clip-rule="evenodd" d="M9.51512 7.02715C10.0199 7.20338 10.808 7.40855 11.8299 7.46925L11.9971 7.46916C15.1472 7.46916 17.2101 5.5178 17.2101 3.17616C17.2101 1.67082 16.0393 0.5 14.3945 0.5C12.1923 0.5 10.6591 2.00534 9.87851 4.98814C8.90282 4.45849 8.23379 3.51068 7.89926 2.31199C7.732 1.72657 7.36961 1.36417 6.86782 1.36417C6.25454 1.36417 5.86426 1.83808 5.86426 2.47924C5.86426 4.37486 7.34173 6.18684 9.51611 7.02314L9.51512 7.02715ZM12.1644 5.43417C12.5825 3.51068 13.2516 2.59075 14.1436 2.59075C14.6176 2.59075 14.9242 2.86952 14.9242 3.3713C14.9242 4.29123 13.9485 5.37841 12.1644 5.43417Z" fill="black"/>
</g>
</g>
<defs>
<clipPath id="clip0_28_1352">
<rect width="63" height="27" fill="white" transform="translate(0 0.5)"/>
</clipPath>
<clipPath id="clip1_28_1352">
<rect width="52.5" height="27" fill="white" transform="translate(5 0.5)"/>
</clipPath>
</defs>
</svg>
