<svg width="63" height="28" viewBox="0 0 63 28" fill="none" xmlns="http://www.w3.org/2000/svg">
<g clip-path="url(#clip0_8_460)">
<path d="M13.2485 21.8886H0.564453V1.86865H5.10045V18.3326H13.2485V21.8886ZM29.2869 14.6367C29.2869 19.2567 25.9549 22.1967 21.5589 22.1967C17.1909 22.1967 13.8589 19.2847 13.8589 14.7207V14.4967C13.8589 9.90469 17.1909 6.90869 21.5869 6.90869C25.9829 6.90869 29.2869 9.84869 29.2869 14.4127V14.6367ZM18.0029 14.6367C18.0029 17.4367 19.2909 19.1167 21.5869 19.1167C23.8549 19.1167 25.1709 17.4367 25.1709 14.6647V14.4687C25.1709 11.6687 23.8549 9.98869 21.5869 9.98869C19.3469 9.98869 18.0029 11.6127 18.0029 14.4127V14.6367ZM37.665 27.2927C42.4809 27.2927 45.3649 25.0807 45.3929 20.7407V7.24469H41.361V9.42869C40.521 7.94469 39.0929 6.90869 36.7129 6.90869C33.0729 6.90869 30.2729 9.84869 30.2729 14.0487V14.2447C30.2729 18.5847 33.1009 21.2447 36.6569 21.2447C38.813 21.2447 40.549 19.9567 41.361 18.5287V20.7407C41.361 23.0367 40.129 24.3247 37.665 24.3247C35.593 24.3247 34.6689 23.4847 34.417 22.1967H30.3849C30.7769 25.2207 32.933 27.2927 37.665 27.2927ZM37.861 18.1927C35.845 18.1927 34.417 16.6807 34.417 14.2447V14.0207C34.417 11.6127 35.6769 9.98869 37.945 9.98869C40.157 9.98869 41.4729 11.5007 41.4729 13.9927V14.1887C41.4729 16.6807 39.989 18.1927 37.861 18.1927ZM62.6616 14.6367C62.6616 19.2567 59.3296 22.1967 54.9336 22.1967C50.5656 22.1967 47.2336 19.2847 47.2336 14.7207V14.4967C47.2336 9.90469 50.5656 6.90869 54.9616 6.90869C59.3576 6.90869 62.6616 9.84869 62.6616 14.4127V14.6367ZM51.3776 14.6367C51.3776 17.4367 52.6656 19.1167 54.9616 19.1167C57.2296 19.1167 58.5456 17.4367 58.5456 14.6647V14.4687C58.5456 11.6687 57.2296 9.98869 54.9616 9.98869C52.7216 9.98869 51.3776 11.6127 51.3776 14.4127V14.6367Z" fill="black"/>
<path fill-rule="evenodd" clip-rule="evenodd" d="M13.2485 21.8886H0.564453V1.86865H5.10045V18.3326H13.2485V21.8886ZM29.2869 14.6367C29.2869 19.2567 25.9549 22.1967 21.5589 22.1967C17.1909 22.1967 13.8589 19.2847 13.8589 14.7207V14.4967C13.8589 9.90469 17.1909 6.90869 21.5869 6.90869C25.9829 6.90869 29.2869 9.84869 29.2869 14.4127V14.6367ZM18.0029 14.6367C18.0029 17.4367 19.2909 19.1167 21.5869 19.1167C23.8549 19.1167 25.1709 17.4367 25.1709 14.6647V14.4687C25.1709 11.6687 23.8549 9.98869 21.5869 9.98869C19.3469 9.98869 18.0029 11.6127 18.0029 14.4127V14.6367ZM37.665 27.2927C42.4809 27.2927 45.3649 25.0807 45.3929 20.7407V7.24469H41.361V9.42869C40.521 7.94469 39.0929 6.90869 36.7129 6.90869C33.0729 6.90869 30.2729 9.84869 30.2729 14.0487V14.2447C30.2729 18.5847 33.1009 21.2447 36.6569 21.2447C38.813 21.2447 40.549 19.9567 41.361 18.5287V20.7407C41.361 23.0367 40.129 24.3247 37.665 24.3247C35.593 24.3247 34.6689 23.4847 34.417 22.1967H30.3849C30.7769 25.2207 32.933 27.2927 37.665 27.2927ZM37.861 18.1927C35.845 18.1927 34.417 16.6807 34.417 14.2447V14.0207C34.417 11.6127 35.6769 9.98869 37.945 9.98869C40.157 9.98869 41.4729 11.5007 41.4729 13.9927V14.1887C41.4729 16.6807 39.989 18.1927 37.861 18.1927ZM62.6616 14.6367C62.6616 19.2567 59.3296 22.1967 54.9336 22.1967C50.5656 22.1967 47.2336 19.2847 47.2336 14.7207V14.4967C47.2336 9.90469 50.5656 6.90869 54.9616 6.90869C59.3576 6.90869 62.6616 9.84869 62.6616 14.4127V14.6367ZM51.3776 14.6367C51.3776 17.4367 52.6656 19.1167 54.9616 19.1167C57.2296 19.1167 58.5456 17.4367 58.5456 14.6647V14.4687C58.5456 11.6687 57.2296 9.98869 54.9616 9.98869C52.7216 9.98869 51.3776 11.6127 51.3776 14.4127V14.6367Z" fill="black"/>
<path fill-rule="evenodd" clip-rule="evenodd" d="M13.2485 21.8886H0.564453V1.86865H5.10045V18.3326H13.2485V21.8886ZM29.2869 14.6367C29.2869 19.2567 25.9549 22.1967 21.5589 22.1967C17.1909 22.1967 13.8589 19.2847 13.8589 14.7207V14.4967C13.8589 9.90469 17.1909 6.90869 21.5869 6.90869C25.9829 6.90869 29.2869 9.84869 29.2869 14.4127V14.6367ZM18.0029 14.6367C18.0029 17.4367 19.2909 19.1167 21.5869 19.1167C23.8549 19.1167 25.1709 17.4367 25.1709 14.6647V14.4687C25.1709 11.6687 23.8549 9.98869 21.5869 9.98869C19.3469 9.98869 18.0029 11.6127 18.0029 14.4127V14.6367ZM37.665 27.2927C42.4809 27.2927 45.3649 25.0807 45.3929 20.7407V7.24469H41.361V9.42869C40.521 7.94469 39.0929 6.90869 36.7129 6.90869C33.0729 6.90869 30.2729 9.84869 30.2729 14.0487V14.2447C30.2729 18.5847 33.1009 21.2447 36.6569 21.2447C38.813 21.2447 40.549 19.9567 41.361 18.5287V20.7407C41.361 23.0367 40.129 24.3247 37.665 24.3247C35.593 24.3247 34.6689 23.4847 34.417 22.1967H30.3849C30.7769 25.2207 32.933 27.2927 37.665 27.2927ZM37.861 18.1927C35.845 18.1927 34.417 16.6807 34.417 14.2447V14.0207C34.417 11.6127 35.6769 9.98869 37.945 9.98869C40.157 9.98869 41.4729 11.5007 41.4729 13.9927V14.1887C41.4729 16.6807 39.989 18.1927 37.861 18.1927ZM62.6616 14.6367C62.6616 19.2567 59.3296 22.1967 54.9336 22.1967C50.5656 22.1967 47.2336 19.2847 47.2336 14.7207V14.4967C47.2336 9.90469 50.5656 6.90869 54.9616 6.90869C59.3576 6.90869 62.6616 9.84869 62.6616 14.4127V14.6367ZM51.3776 14.6367C51.3776 17.4367 52.6656 19.1167 54.9616 19.1167C57.2296 19.1167 58.5456 17.4367 58.5456 14.6647V14.4687C58.5456 11.6687 57.2296 9.98869 54.9616 9.98869C52.7216 9.98869 51.3776 11.6127 51.3776 14.4127V14.6367Z" fill="black"/>
<path fill-rule="evenodd" clip-rule="evenodd" d="M13.2485 21.8886H0.564453V1.86865H5.10045V18.3326H13.2485V21.8886ZM29.2869 14.6367C29.2869 19.2567 25.9549 22.1967 21.5589 22.1967C17.1909 22.1967 13.8589 19.2847 13.8589 14.7207V14.4967C13.8589 9.90469 17.1909 6.90869 21.5869 6.90869C25.9829 6.90869 29.2869 9.84869 29.2869 14.4127V14.6367ZM18.0029 14.6367C18.0029 17.4367 19.2909 19.1167 21.5869 19.1167C23.8549 19.1167 25.1709 17.4367 25.1709 14.6647V14.4687C25.1709 11.6687 23.8549 9.98869 21.5869 9.98869C19.3469 9.98869 18.0029 11.6127 18.0029 14.4127V14.6367ZM37.665 27.2927C42.4809 27.2927 45.3649 25.0807 45.3929 20.7407V7.24469H41.361V9.42869C40.521 7.94469 39.0929 6.90869 36.7129 6.90869C33.0729 6.90869 30.2729 9.84869 30.2729 14.0487V14.2447C30.2729 18.5847 33.1009 21.2447 36.6569 21.2447C38.813 21.2447 40.549 19.9567 41.361 18.5287V20.7407C41.361 23.0367 40.129 24.3247 37.665 24.3247C35.593 24.3247 34.6689 23.4847 34.417 22.1967H30.3849C30.7769 25.2207 32.933 27.2927 37.665 27.2927ZM37.861 18.1927C35.845 18.1927 34.417 16.6807 34.417 14.2447V14.0207C34.417 11.6127 35.6769 9.98869 37.945 9.98869C40.157 9.98869 41.4729 11.5007 41.4729 13.9927V14.1887C41.4729 16.6807 39.989 18.1927 37.861 18.1927ZM62.6616 14.6367C62.6616 19.2567 59.3296 22.1967 54.9336 22.1967C50.5656 22.1967 47.2336 19.2847 47.2336 14.7207V14.4967C47.2336 9.90469 50.5656 6.90869 54.9616 6.90869C59.3576 6.90869 62.6616 9.84869 62.6616 14.4127V14.6367ZM51.3776 14.6367C51.3776 17.4367 52.6656 19.1167 54.9616 19.1167C57.2296 19.1167 58.5456 17.4367 58.5456 14.6647V14.4687C58.5456 11.6687 57.2296 9.98869 54.9616 9.98869C52.7216 9.98869 51.3776 11.6127 51.3776 14.4127V14.6367Z" fill="black"/>
</g>
<defs>
<clipPath id="clip0_8_460">
<rect width="63" height="27" fill="white" transform="translate(0 0.888672)"/>
</clipPath>
</defs>
</svg>
