<svg width="25" height="25" viewBox="0 0 25 25" fill="none" xmlns="http://www.w3.org/2000/svg">
<path fill-rule="evenodd" clip-rule="evenodd" d="M16.6666 4.13135H8.66663C5.90521 4.13135 3.66663 6.36993 3.66663 9.13135V17.1313C3.66663 19.8927 5.90521 22.1313 8.66663 22.1313H16.6666C19.428 22.1313 21.6666 19.8927 21.6666 17.1313V9.13135C21.6666 6.36993 19.428 4.13135 16.6666 4.13135ZM19.9166 17.1313C19.9111 18.9239 18.4592 20.3758 16.6666 20.3813H8.66663C6.87398 20.3758 5.42212 18.9239 5.41663 17.1313V9.13135C5.42212 7.3387 6.87398 5.88684 8.66663 5.88135H16.6666C18.4592 5.88684 19.9111 7.3387 19.9166 9.13135V17.1313ZM17.4166 9.38135C17.9689 9.38135 18.4166 8.93363 18.4166 8.38135C18.4166 7.82907 17.9689 7.38135 17.4166 7.38135C16.8643 7.38135 16.4166 7.82907 16.4166 8.38135C16.4166 8.93363 16.8643 9.38135 17.4166 9.38135ZM12.6666 8.63135C10.1813 8.63135 8.16663 10.6461 8.16663 13.1313C8.16663 15.6166 10.1813 17.6313 12.6666 17.6313C15.1519 17.6313 17.1666 15.6166 17.1666 13.1313C17.1693 11.937 16.696 10.7909 15.8515 9.94643C15.007 9.10194 13.8609 8.62869 12.6666 8.63135ZM9.91663 13.1313C9.91663 14.6501 11.1478 15.8813 12.6666 15.8813C14.1854 15.8813 15.4166 14.6501 15.4166 13.1313C15.4166 11.6125 14.1854 10.3813 12.6666 10.3813C11.1478 10.3813 9.91663 11.6125 9.91663 13.1313Z" fill="black"/>
</svg>
