<svg width="25" height="25" viewBox="0 0 25 25" fill="none" xmlns="http://www.w3.org/2000/svg">
<path fill-rule="evenodd" clip-rule="evenodd" d="M5.16663 4.13135C4.3382 4.13135 3.66663 4.80292 3.66663 5.63135V20.6313C3.66663 21.4597 4.3382 22.1313 5.16663 22.1313H20.1666C20.995 22.1313 21.6666 21.4597 21.6666 20.6313V5.63135C21.6666 4.80292 20.995 4.13135 20.1666 4.13135H5.16663ZM9.18739 8.13407C9.19302 9.09032 8.47724 9.67954 7.62786 9.67532C6.8277 9.6711 6.1302 9.03407 6.13442 8.13548C6.13864 7.29032 6.80661 6.6111 7.67427 6.63079C8.55458 6.65048 9.19302 7.29595 9.18739 8.13407ZM12.9463 10.8931H10.4263H10.4249V19.4529H13.0883V19.2532C13.0883 18.8733 13.088 18.4933 13.0877 18.1132C13.0869 17.0994 13.086 16.0845 13.0912 15.071C13.0926 14.8249 13.1038 14.569 13.1671 14.3341C13.4047 13.4566 14.1937 12.8899 15.074 13.0292C15.6393 13.1177 16.0133 13.4454 16.1708 13.9784C16.2679 14.3116 16.3115 14.6702 16.3157 15.0176C16.3271 16.0652 16.3255 17.1128 16.3239 18.1605C16.3233 18.5303 16.3227 18.9003 16.3227 19.2701V19.4515H18.9946V19.2462C18.9946 18.7942 18.9944 18.3423 18.9941 17.8904C18.9936 16.7609 18.993 15.6314 18.996 14.5015C18.9974 13.991 18.9426 13.4876 18.8174 12.994C18.6304 12.2599 18.2437 11.6524 17.6151 11.2137C17.1693 10.9015 16.6799 10.7004 16.1329 10.6779C16.0706 10.6754 16.0078 10.672 15.9447 10.6686C15.665 10.6534 15.3807 10.6381 15.1133 10.692C14.3483 10.8453 13.6762 11.1954 13.1685 11.8127C13.1095 11.8835 13.0518 11.9554 12.9657 12.0627L12.9463 12.087V10.8931ZM6.34827 19.4557H8.99905V10.8987H6.34827V19.4557Z" fill="black"/>
</svg>
