<svg width="140" height="57" viewBox="0 0 140 57" fill="none" xmlns="http://www.w3.org/2000/svg">
<path fill-rule="evenodd" clip-rule="evenodd" d="M38.5695 17.1392L27.06 39.6392H16.2493L21.066 30.3142H20.8499C16.8761 35.4727 10.9471 38.8685 2.49927 39.6392V30.4433C2.49927 30.4433 7.90358 30.124 11.0806 26.7838H2.49927V17.1393H12.1438V25.0718L12.3602 25.0709L16.3014 17.1393H23.5953V25.0215L23.8116 25.0212L27.9006 17.1392H38.5695ZM101.332 37.1557H104.438V19.3267H101.332V37.1557ZM84.2085 36.9736C84.8835 37.2542 85.57 37.3946 86.2678 37.3946C87.4207 37.3946 88.4523 37.114 89.3626 36.5526C90.2727 35.9914 90.9782 35.2177 91.4788 34.2316C91.9795 33.238 92.2297 32.1115 92.2297 30.8524C92.2297 29.5932 91.9718 28.4669 91.4561 27.4732C90.9402 26.4796 90.2235 25.7097 89.3056 25.1635C88.3878 24.6098 87.3448 24.3367 86.1767 24.3443C85.4335 24.3443 84.7205 24.4884 84.0377 24.7767C83.3551 25.0649 82.7862 25.4745 82.3311 26.0055C82.296 26.0459 82.2618 26.0867 82.2287 26.128V19.3381H79.1112V37.1557H82.206L82.1997 35.4912C82.2797 35.5894 82.3653 35.6852 82.4562 35.779C82.9492 36.2872 83.5333 36.6854 84.2085 36.9736ZM87.3942 34.0951C86.886 34.4061 86.3057 34.5616 85.6533 34.5616C85.0086 34.5616 84.417 34.4022 83.8785 34.0837C83.3398 33.7575 82.9113 33.3139 82.5927 32.7525C82.2817 32.1912 82.1262 31.554 82.1262 30.841C82.1187 30.128 82.2703 29.4909 82.5813 28.9296C82.9 28.3607 83.3285 27.9207 83.8671 27.6097C84.4056 27.2912 85.0011 27.1357 85.6533 27.1433C86.3057 27.1357 86.886 27.2874 87.3942 27.5984C87.91 27.9018 88.3043 28.3379 88.5775 28.9068C88.8581 29.4681 88.9985 30.1129 88.9985 30.841C88.9985 31.5692 88.8581 32.214 88.5775 32.7752C88.3043 33.3366 87.91 33.7765 87.3942 34.0951ZM43.0693 20.4076H46.6192L49.7947 32.0046L53.1728 20.4076H56.1311L59.7947 31.7718L62.844 20.4076H66.098L61.2966 37.1557H58.236L54.5105 26.0537L51.0907 37.1557H47.996L43.0693 20.4076ZM71.3405 37.4514C70.104 37.4591 68.989 37.1859 67.9954 36.6323C67.0093 36.0709 66.2319 35.2934 65.6629 34.2998C65.1017 33.3062 64.821 32.1722 64.821 30.8978C64.821 29.6614 65.1093 28.5427 65.6858 27.5414C66.2622 26.5402 67.0434 25.7589 68.0295 25.1976C69.0157 24.6363 70.1154 24.3557 71.329 24.3557C72.6944 24.3557 73.889 24.6591 74.913 25.2659C75.9447 25.8727 76.7145 26.7336 77.2228 27.8486C77.7385 28.9561 77.9244 30.2266 77.7803 31.6602H68.0344C68.0617 32.2313 68.2042 32.7509 68.4619 33.2189C68.7502 33.7347 69.1522 34.1367 69.6679 34.4249C70.1838 34.7132 70.7602 34.8573 71.3974 34.8573C71.8828 34.8497 72.3342 34.7663 72.7513 34.6071C73.1685 34.4402 73.5212 34.2164 73.8094 33.9357C74.1053 33.6551 74.3139 33.3366 74.4353 32.9801H77.6893C77.4921 33.8523 77.0977 34.6298 76.506 35.3124C75.9143 35.9876 75.171 36.5147 74.2759 36.8939C73.3809 37.2732 72.4024 37.4591 71.3405 37.4514ZM68.4733 28.5313C68.2915 28.8483 68.1655 29.1896 68.0954 29.5553H74.5558C74.5089 29.0933 74.3663 28.6723 74.128 28.2924C73.8549 27.8448 73.4833 27.4997 73.013 27.257C72.5428 27.0067 72.0118 26.8815 71.4202 26.8815C70.7906 26.8815 70.2179 27.0256 69.702 27.3139C69.1863 27.6021 68.7767 28.0079 68.4733 28.5313ZM94.517 24.6174C94.517 23.601 94.7483 22.6983 95.211 21.9095C95.6736 21.113 96.3223 20.4948 97.1566 20.0549C97.9985 19.6074 98.9809 19.376 100.103 19.3608V22.1256C99.58 22.1332 99.1325 22.2432 98.7609 22.4556C98.3968 22.6604 98.1161 22.96 97.9189 23.3544C97.7374 23.7176 97.6394 24.1385 97.625 24.6174H100.035V27.2456H97.6232V37.1557H94.517V27.2456H92.5145V24.6174H94.517ZM112.334 37.4286C111.067 37.4286 109.933 37.1517 108.932 36.5981C107.938 36.0367 107.157 35.2631 106.588 34.277C106.027 33.2834 105.746 32.157 105.746 30.8977C105.746 29.6311 106.027 28.5009 106.588 27.5072C107.157 26.506 107.938 25.7285 108.932 25.1748C109.933 24.6211 111.067 24.3442 112.334 24.3442C113.608 24.3442 114.746 24.6211 115.747 25.1748C116.756 25.7285 117.541 26.5022 118.103 27.4959C118.664 28.4895 118.948 29.6235 118.956 30.8977C118.948 32.157 118.664 33.2834 118.103 34.277C117.549 35.2631 116.768 36.0367 115.759 36.5981C114.75 37.1517 113.608 37.4286 112.334 37.4286ZM112.334 34.5729C113.002 34.5729 113.593 34.4211 114.109 34.1177C114.625 33.8067 115.023 33.3744 115.304 32.8206C115.584 32.2594 115.725 31.6184 115.725 30.8977C115.725 30.1696 115.584 29.5249 115.304 28.9636C115.023 28.4023 114.625 27.9699 114.109 27.6665C113.593 27.3555 113.002 27.2 112.334 27.2C111.674 27.2 111.086 27.3555 110.57 27.6665C110.062 27.9699 109.668 28.4023 109.387 28.9636C109.107 29.5249 108.97 30.1696 108.978 30.8977C108.978 31.6184 109.118 32.2594 109.399 32.8206C109.687 33.3744 110.081 33.8067 110.582 34.1177C111.09 34.4211 111.674 34.5729 112.334 34.5729ZM122.312 24.6173H118.854L122.597 37.1557H125.623L128.085 29.1474L130.743 37.1557H133.724L137.479 24.6173H134.35L132.22 32.4217L129.867 24.6173H126.841L124.499 32.5936L122.312 24.6173Z" fill="black"/>
<path d="M38.5695 17.1392L27.06 39.6392H16.2493L21.066 30.3142H20.8499C16.8761 35.4727 10.9471 38.8685 2.49927 39.6392V30.4433C2.49927 30.4433 7.90358 30.124 11.0806 26.7838H2.49927V17.1393H12.1438V25.0718L12.3602 25.0709L16.3014 17.1393H23.5953V25.0215L23.8116 25.0212L27.9006 17.1392H38.5695ZM101.332 37.1557H104.438V19.3267H101.332V37.1557ZM84.2085 36.9736C84.8835 37.2542 85.57 37.3946 86.2678 37.3946C87.4207 37.3946 88.4523 37.114 89.3626 36.5526C90.2727 35.9914 90.9782 35.2177 91.4788 34.2316C91.9795 33.238 92.2297 32.1115 92.2297 30.8524C92.2297 29.5932 91.9718 28.4669 91.4561 27.4732C90.9402 26.4796 90.2235 25.7097 89.3056 25.1635C88.3878 24.6098 87.3448 24.3367 86.1767 24.3443C85.4335 24.3443 84.7205 24.4884 84.0377 24.7767C83.3551 25.0649 82.7862 25.4745 82.3311 26.0055C82.296 26.0459 82.2618 26.0867 82.2287 26.128V19.3381H79.1112V37.1557H82.206L82.1997 35.4912C82.2797 35.5894 82.3653 35.6852 82.4562 35.779C82.9492 36.2872 83.5333 36.6854 84.2085 36.9736ZM87.3942 34.0951C86.886 34.4061 86.3057 34.5616 85.6533 34.5616C85.0086 34.5616 84.417 34.4022 83.8785 34.0837C83.3398 33.7575 82.9113 33.3139 82.5927 32.7525C82.2817 32.1912 82.1262 31.554 82.1262 30.841C82.1187 30.128 82.2703 29.4909 82.5813 28.9296C82.9 28.3607 83.3285 27.9207 83.8671 27.6097C84.4056 27.2912 85.0011 27.1357 85.6533 27.1433C86.3057 27.1357 86.886 27.2874 87.3942 27.5984C87.91 27.9018 88.3043 28.3379 88.5775 28.9068C88.8581 29.4681 88.9985 30.1129 88.9985 30.841C88.9985 31.5692 88.8581 32.214 88.5775 32.7752C88.3043 33.3366 87.91 33.7765 87.3942 34.0951ZM43.0693 20.4076H46.6192L49.7947 32.0046L53.1728 20.4076H56.1311L59.7947 31.7718L62.844 20.4076H66.098L61.2966 37.1557H58.236L54.5105 26.0537L51.0907 37.1557H47.996L43.0693 20.4076ZM71.3405 37.4514C70.104 37.4591 68.989 37.1859 67.9954 36.6323C67.0093 36.0709 66.2319 35.2934 65.6629 34.2998C65.1017 33.3062 64.821 32.1722 64.821 30.8978C64.821 29.6614 65.1093 28.5427 65.6858 27.5414C66.2622 26.5402 67.0434 25.7589 68.0295 25.1976C69.0157 24.6363 70.1154 24.3557 71.329 24.3557C72.6944 24.3557 73.889 24.6591 74.913 25.2659C75.9447 25.8727 76.7145 26.7336 77.2228 27.8486C77.7385 28.9561 77.9244 30.2266 77.7803 31.6602H68.0344C68.0617 32.2313 68.2042 32.7509 68.4619 33.2189C68.7502 33.7347 69.1522 34.1367 69.6679 34.4249C70.1838 34.7132 70.7602 34.8573 71.3974 34.8573C71.8828 34.8497 72.3342 34.7663 72.7513 34.6071C73.1685 34.4402 73.5212 34.2164 73.8094 33.9357C74.1053 33.6551 74.3139 33.3366 74.4353 32.9801H77.6893C77.4921 33.8523 77.0977 34.6298 76.506 35.3124C75.9143 35.9876 75.171 36.5147 74.2759 36.8939C73.3809 37.2732 72.4024 37.4591 71.3405 37.4514ZM68.4733 28.5313C68.2915 28.8483 68.1655 29.1896 68.0954 29.5553H74.5558C74.5089 29.0933 74.3663 28.6723 74.128 28.2924C73.8549 27.8448 73.4833 27.4997 73.013 27.257C72.5428 27.0067 72.0118 26.8815 71.4202 26.8815C70.7906 26.8815 70.2179 27.0256 69.702 27.3139C69.1863 27.6021 68.7767 28.0079 68.4733 28.5313ZM94.517 24.6174C94.517 23.601 94.7483 22.6983 95.211 21.9095C95.6736 21.113 96.3223 20.4948 97.1566 20.0549C97.9985 19.6074 98.9809 19.376 100.103 19.3608V22.1256C99.58 22.1332 99.1325 22.2432 98.7609 22.4556C98.3968 22.6604 98.1161 22.96 97.9189 23.3544C97.7374 23.7176 97.6394 24.1385 97.625 24.6174H100.035V27.2456H97.6232V37.1557H94.517V27.2456H92.5145V24.6174H94.517ZM112.334 37.4286C111.067 37.4286 109.933 37.1517 108.932 36.5981C107.938 36.0367 107.157 35.2631 106.588 34.277C106.027 33.2834 105.746 32.157 105.746 30.8977C105.746 29.6311 106.027 28.5009 106.588 27.5072C107.157 26.506 107.938 25.7285 108.932 25.1748C109.933 24.6211 111.067 24.3442 112.334 24.3442C113.608 24.3442 114.746 24.6211 115.747 25.1748C116.756 25.7285 117.541 26.5022 118.103 27.4959C118.664 28.4895 118.948 29.6235 118.956 30.8977C118.948 32.157 118.664 33.2834 118.103 34.277C117.549 35.2631 116.768 36.0367 115.759 36.5981C114.75 37.1517 113.608 37.4286 112.334 37.4286ZM112.334 34.5729C113.002 34.5729 113.593 34.4211 114.109 34.1177C114.625 33.8067 115.023 33.3744 115.304 32.8206C115.584 32.2594 115.725 31.6184 115.725 30.8977C115.725 30.1696 115.584 29.5249 115.304 28.9636C115.023 28.4023 114.625 27.9699 114.109 27.6665C113.593 27.3555 113.002 27.2 112.334 27.2C111.674 27.2 111.086 27.3555 110.57 27.6665C110.062 27.9699 109.668 28.4023 109.387 28.9636C109.107 29.5249 108.97 30.1696 108.978 30.8977C108.978 31.6184 109.118 32.2594 109.399 32.8206C109.687 33.3744 110.081 33.8067 110.582 34.1177C111.09 34.4211 111.674 34.5729 112.334 34.5729ZM122.312 24.6173H118.854L122.597 37.1557H125.623L128.085 29.1474L130.743 37.1557H133.724L137.479 24.6173H134.35L132.22 32.4217L129.867 24.6173H126.841L124.499 32.5936L122.312 24.6173Z" fill="black"/>
<path fill-rule="evenodd" clip-rule="evenodd" d="M38.5695 17.1392L27.06 39.6392H16.2493L21.066 30.3142H20.8499C16.8761 35.4727 10.9471 38.8685 2.49927 39.6392V30.4433C2.49927 30.4433 7.90358 30.124 11.0806 26.7838H2.49927V17.1393H12.1438V25.0718L12.3602 25.0709L16.3014 17.1393H23.5953V25.0215L23.8116 25.0212L27.9006 17.1392H38.5695ZM101.332 37.1557H104.438V19.3267H101.332V37.1557ZM84.2085 36.9736C84.8835 37.2542 85.57 37.3946 86.2678 37.3946C87.4207 37.3946 88.4523 37.114 89.3626 36.5526C90.2727 35.9914 90.9782 35.2177 91.4788 34.2316C91.9795 33.238 92.2297 32.1115 92.2297 30.8524C92.2297 29.5932 91.9718 28.4669 91.4561 27.4732C90.9402 26.4796 90.2235 25.7097 89.3056 25.1635C88.3878 24.6098 87.3448 24.3367 86.1767 24.3443C85.4335 24.3443 84.7205 24.4884 84.0377 24.7767C83.3551 25.0649 82.7862 25.4745 82.3311 26.0055C82.296 26.0459 82.2618 26.0867 82.2287 26.128V19.3381H79.1112V37.1557H82.206L82.1997 35.4912C82.2797 35.5894 82.3653 35.6852 82.4562 35.779C82.9492 36.2872 83.5333 36.6854 84.2085 36.9736ZM87.3942 34.0951C86.886 34.4061 86.3057 34.5616 85.6533 34.5616C85.0086 34.5616 84.417 34.4022 83.8785 34.0837C83.3398 33.7575 82.9113 33.3139 82.5927 32.7525C82.2817 32.1912 82.1262 31.554 82.1262 30.841C82.1187 30.128 82.2703 29.4909 82.5813 28.9296C82.9 28.3607 83.3285 27.9207 83.8671 27.6097C84.4056 27.2912 85.0011 27.1357 85.6533 27.1433C86.3057 27.1357 86.886 27.2874 87.3942 27.5984C87.91 27.9018 88.3043 28.3379 88.5775 28.9068C88.8581 29.4681 88.9985 30.1129 88.9985 30.841C88.9985 31.5692 88.8581 32.214 88.5775 32.7752C88.3043 33.3366 87.91 33.7765 87.3942 34.0951ZM43.0693 20.4076H46.6192L49.7947 32.0046L53.1728 20.4076H56.1311L59.7947 31.7718L62.844 20.4076H66.098L61.2966 37.1557H58.236L54.5105 26.0537L51.0907 37.1557H47.996L43.0693 20.4076ZM71.3405 37.4514C70.104 37.4591 68.989 37.1859 67.9954 36.6323C67.0093 36.0709 66.2319 35.2934 65.6629 34.2998C65.1017 33.3062 64.821 32.1722 64.821 30.8978C64.821 29.6614 65.1093 28.5427 65.6858 27.5414C66.2622 26.5402 67.0434 25.7589 68.0295 25.1976C69.0157 24.6363 70.1154 24.3557 71.329 24.3557C72.6944 24.3557 73.889 24.6591 74.913 25.2659C75.9447 25.8727 76.7145 26.7336 77.2228 27.8486C77.7385 28.9561 77.9244 30.2266 77.7803 31.6602H68.0344C68.0617 32.2313 68.2042 32.7509 68.4619 33.2189C68.7502 33.7347 69.1522 34.1367 69.6679 34.4249C70.1838 34.7132 70.7602 34.8573 71.3974 34.8573C71.8828 34.8497 72.3342 34.7663 72.7513 34.6071C73.1685 34.4402 73.5212 34.2164 73.8094 33.9357C74.1053 33.6551 74.3139 33.3366 74.4353 32.9801H77.6893C77.4921 33.8523 77.0977 34.6298 76.506 35.3124C75.9143 35.9876 75.171 36.5147 74.2759 36.8939C73.3809 37.2732 72.4024 37.4591 71.3405 37.4514ZM68.4733 28.5313C68.2915 28.8483 68.1655 29.1896 68.0954 29.5553H74.5558C74.5089 29.0933 74.3663 28.6723 74.128 28.2924C73.8549 27.8448 73.4833 27.4997 73.013 27.257C72.5428 27.0067 72.0118 26.8815 71.4202 26.8815C70.7906 26.8815 70.2179 27.0256 69.702 27.3139C69.1863 27.6021 68.7767 28.0079 68.4733 28.5313ZM94.517 24.6174C94.517 23.601 94.7483 22.6983 95.211 21.9095C95.6736 21.113 96.3223 20.4948 97.1566 20.0549C97.9985 19.6074 98.9809 19.376 100.103 19.3608V22.1256C99.58 22.1332 99.1325 22.2432 98.7609 22.4556C98.3968 22.6604 98.1161 22.96 97.9189 23.3544C97.7374 23.7176 97.6394 24.1385 97.625 24.6174H100.035V27.2456H97.6232V37.1557H94.517V27.2456H92.5145V24.6174H94.517ZM112.334 37.4286C111.067 37.4286 109.933 37.1517 108.932 36.5981C107.938 36.0367 107.157 35.2631 106.588 34.277C106.027 33.2834 105.746 32.157 105.746 30.8977C105.746 29.6311 106.027 28.5009 106.588 27.5072C107.157 26.506 107.938 25.7285 108.932 25.1748C109.933 24.6211 111.067 24.3442 112.334 24.3442C113.608 24.3442 114.746 24.6211 115.747 25.1748C116.756 25.7285 117.541 26.5022 118.103 27.4959C118.664 28.4895 118.948 29.6235 118.956 30.8977C118.948 32.157 118.664 33.2834 118.103 34.277C117.549 35.2631 116.768 36.0367 115.759 36.5981C114.75 37.1517 113.608 37.4286 112.334 37.4286ZM112.334 34.5729C113.002 34.5729 113.593 34.4211 114.109 34.1177C114.625 33.8067 115.023 33.3744 115.304 32.8206C115.584 32.2594 115.725 31.6184 115.725 30.8977C115.725 30.1696 115.584 29.5249 115.304 28.9636C115.023 28.4023 114.625 27.9699 114.109 27.6665C113.593 27.3555 113.002 27.2 112.334 27.2C111.674 27.2 111.086 27.3555 110.57 27.6665C110.062 27.9699 109.668 28.4023 109.387 28.9636C109.107 29.5249 108.97 30.1696 108.978 30.8977C108.978 31.6184 109.118 32.2594 109.399 32.8206C109.687 33.3744 110.081 33.8067 110.582 34.1177C111.09 34.4211 111.674 34.5729 112.334 34.5729ZM122.312 24.6173H118.854L122.597 37.1557H125.623L128.085 29.1474L130.743 37.1557H133.724L137.479 24.6173H134.35L132.22 32.4217L129.867 24.6173H126.841L124.499 32.5936L122.312 24.6173Z" fill="black"/>
<path d="M38.5695 17.1392L27.06 39.6392H16.2493L21.066 30.3142H20.8499C16.8761 35.4727 10.9471 38.8685 2.49927 39.6392V30.4433C2.49927 30.4433 7.90358 30.124 11.0806 26.7838H2.49927V17.1393H12.1438V25.0718L12.3602 25.0709L16.3014 17.1393H23.5953V25.0215L23.8116 25.0212L27.9006 17.1392H38.5695ZM101.332 37.1557H104.438V19.3267H101.332V37.1557ZM84.2085 36.9736C84.8835 37.2542 85.57 37.3946 86.2678 37.3946C87.4207 37.3946 88.4523 37.114 89.3626 36.5526C90.2727 35.9914 90.9782 35.2177 91.4788 34.2316C91.9795 33.238 92.2297 32.1115 92.2297 30.8524C92.2297 29.5932 91.9718 28.4669 91.4561 27.4732C90.9402 26.4796 90.2235 25.7097 89.3056 25.1635C88.3878 24.6098 87.3448 24.3367 86.1767 24.3443C85.4335 24.3443 84.7205 24.4884 84.0377 24.7767C83.3551 25.0649 82.7862 25.4745 82.3311 26.0055C82.296 26.0459 82.2618 26.0867 82.2287 26.128V19.3381H79.1112V37.1557H82.206L82.1997 35.4912C82.2797 35.5894 82.3653 35.6852 82.4562 35.779C82.9492 36.2872 83.5333 36.6854 84.2085 36.9736ZM87.3942 34.0951C86.886 34.4061 86.3057 34.5616 85.6533 34.5616C85.0086 34.5616 84.417 34.4022 83.8785 34.0837C83.3398 33.7575 82.9113 33.3139 82.5927 32.7525C82.2817 32.1912 82.1262 31.554 82.1262 30.841C82.1187 30.128 82.2703 29.4909 82.5813 28.9296C82.9 28.3607 83.3285 27.9207 83.8671 27.6097C84.4056 27.2912 85.0011 27.1357 85.6533 27.1433C86.3057 27.1357 86.886 27.2874 87.3942 27.5984C87.91 27.9018 88.3043 28.3379 88.5775 28.9068C88.8581 29.4681 88.9985 30.1129 88.9985 30.841C88.9985 31.5692 88.8581 32.214 88.5775 32.7752C88.3043 33.3366 87.91 33.7765 87.3942 34.0951ZM43.0693 20.4076H46.6192L49.7947 32.0046L53.1728 20.4076H56.1311L59.7947 31.7718L62.844 20.4076H66.098L61.2966 37.1557H58.236L54.5105 26.0537L51.0907 37.1557H47.996L43.0693 20.4076ZM71.3405 37.4514C70.104 37.4591 68.989 37.1859 67.9954 36.6323C67.0093 36.0709 66.2319 35.2934 65.6629 34.2998C65.1017 33.3062 64.821 32.1722 64.821 30.8978C64.821 29.6614 65.1093 28.5427 65.6858 27.5414C66.2622 26.5402 67.0434 25.7589 68.0295 25.1976C69.0157 24.6363 70.1154 24.3557 71.329 24.3557C72.6944 24.3557 73.889 24.6591 74.913 25.2659C75.9447 25.8727 76.7145 26.7336 77.2228 27.8486C77.7385 28.9561 77.9244 30.2266 77.7803 31.6602H68.0344C68.0617 32.2313 68.2042 32.7509 68.4619 33.2189C68.7502 33.7347 69.1522 34.1367 69.6679 34.4249C70.1838 34.7132 70.7602 34.8573 71.3974 34.8573C71.8828 34.8497 72.3342 34.7663 72.7513 34.6071C73.1685 34.4402 73.5212 34.2164 73.8094 33.9357C74.1053 33.6551 74.3139 33.3366 74.4353 32.9801H77.6893C77.4921 33.8523 77.0977 34.6298 76.506 35.3124C75.9143 35.9876 75.171 36.5147 74.2759 36.8939C73.3809 37.2732 72.4024 37.4591 71.3405 37.4514ZM68.4733 28.5313C68.2915 28.8483 68.1655 29.1896 68.0954 29.5553H74.5558C74.5089 29.0933 74.3663 28.6723 74.128 28.2924C73.8549 27.8448 73.4833 27.4997 73.013 27.257C72.5428 27.0067 72.0118 26.8815 71.4202 26.8815C70.7906 26.8815 70.2179 27.0256 69.702 27.3139C69.1863 27.6021 68.7767 28.0079 68.4733 28.5313ZM94.517 24.6174C94.517 23.601 94.7483 22.6983 95.211 21.9095C95.6736 21.113 96.3223 20.4948 97.1566 20.0549C97.9985 19.6074 98.9809 19.376 100.103 19.3608V22.1256C99.58 22.1332 99.1325 22.2432 98.7609 22.4556C98.3968 22.6604 98.1161 22.96 97.9189 23.3544C97.7374 23.7176 97.6394 24.1385 97.625 24.6174H100.035V27.2456H97.6232V37.1557H94.517V27.2456H92.5145V24.6174H94.517ZM112.334 37.4286C111.067 37.4286 109.933 37.1517 108.932 36.5981C107.938 36.0367 107.157 35.2631 106.588 34.277C106.027 33.2834 105.746 32.157 105.746 30.8977C105.746 29.6311 106.027 28.5009 106.588 27.5072C107.157 26.506 107.938 25.7285 108.932 25.1748C109.933 24.6211 111.067 24.3442 112.334 24.3442C113.608 24.3442 114.746 24.6211 115.747 25.1748C116.756 25.7285 117.541 26.5022 118.103 27.4959C118.664 28.4895 118.948 29.6235 118.956 30.8977C118.948 32.157 118.664 33.2834 118.103 34.277C117.549 35.2631 116.768 36.0367 115.759 36.5981C114.75 37.1517 113.608 37.4286 112.334 37.4286ZM112.334 34.5729C113.002 34.5729 113.593 34.4211 114.109 34.1177C114.625 33.8067 115.023 33.3744 115.304 32.8206C115.584 32.2594 115.725 31.6184 115.725 30.8977C115.725 30.1696 115.584 29.5249 115.304 28.9636C115.023 28.4023 114.625 27.9699 114.109 27.6665C113.593 27.3555 113.002 27.2 112.334 27.2C111.674 27.2 111.086 27.3555 110.57 27.6665C110.062 27.9699 109.668 28.4023 109.387 28.9636C109.107 29.5249 108.97 30.1696 108.978 30.8977C108.978 31.6184 109.118 32.2594 109.399 32.8206C109.687 33.3744 110.081 33.8067 110.582 34.1177C111.09 34.4211 111.674 34.5729 112.334 34.5729ZM122.312 24.6173H118.854L122.597 37.1557H125.623L128.085 29.1474L130.743 37.1557H133.724L137.479 24.6173H134.35L132.22 32.4217L129.867 24.6173H126.841L124.499 32.5936L122.312 24.6173Z" fill="black"/>
<path fill-rule="evenodd" clip-rule="evenodd" d="M38.5695 17.1392L27.06 39.6392H16.2493L21.066 30.3142H20.8499C16.8761 35.4727 10.9471 38.8685 2.49927 39.6392V30.4433C2.49927 30.4433 7.90358 30.124 11.0806 26.7838H2.49927V17.1393H12.1438V25.0718L12.3602 25.0709L16.3014 17.1393H23.5953V25.0215L23.8116 25.0212L27.9006 17.1392H38.5695ZM101.332 37.1557H104.438V19.3267H101.332V37.1557ZM84.2085 36.9736C84.8835 37.2542 85.57 37.3946 86.2678 37.3946C87.4207 37.3946 88.4523 37.114 89.3626 36.5526C90.2727 35.9914 90.9782 35.2177 91.4788 34.2316C91.9795 33.238 92.2297 32.1115 92.2297 30.8524C92.2297 29.5932 91.9718 28.4669 91.4561 27.4732C90.9402 26.4796 90.2235 25.7097 89.3056 25.1635C88.3878 24.6098 87.3448 24.3367 86.1767 24.3443C85.4335 24.3443 84.7205 24.4884 84.0377 24.7767C83.3551 25.0649 82.7862 25.4745 82.3311 26.0055C82.296 26.0459 82.2618 26.0867 82.2287 26.128V19.3381H79.1112V37.1557H82.206L82.1997 35.4912C82.2797 35.5894 82.3653 35.6852 82.4562 35.779C82.9492 36.2872 83.5333 36.6854 84.2085 36.9736ZM87.3942 34.0951C86.886 34.4061 86.3057 34.5616 85.6533 34.5616C85.0086 34.5616 84.417 34.4022 83.8785 34.0837C83.3398 33.7575 82.9113 33.3139 82.5927 32.7525C82.2817 32.1912 82.1262 31.554 82.1262 30.841C82.1187 30.128 82.2703 29.4909 82.5813 28.9296C82.9 28.3607 83.3285 27.9207 83.8671 27.6097C84.4056 27.2912 85.0011 27.1357 85.6533 27.1433C86.3057 27.1357 86.886 27.2874 87.3942 27.5984C87.91 27.9018 88.3043 28.3379 88.5775 28.9068C88.8581 29.4681 88.9985 30.1129 88.9985 30.841C88.9985 31.5692 88.8581 32.214 88.5775 32.7752C88.3043 33.3366 87.91 33.7765 87.3942 34.0951ZM43.0693 20.4076H46.6192L49.7947 32.0046L53.1728 20.4076H56.1311L59.7947 31.7718L62.844 20.4076H66.098L61.2966 37.1557H58.236L54.5105 26.0537L51.0907 37.1557H47.996L43.0693 20.4076ZM71.3405 37.4514C70.104 37.4591 68.989 37.1859 67.9954 36.6323C67.0093 36.0709 66.2319 35.2934 65.6629 34.2998C65.1017 33.3062 64.821 32.1722 64.821 30.8978C64.821 29.6614 65.1093 28.5427 65.6858 27.5414C66.2622 26.5402 67.0434 25.7589 68.0295 25.1976C69.0157 24.6363 70.1154 24.3557 71.329 24.3557C72.6944 24.3557 73.889 24.6591 74.913 25.2659C75.9447 25.8727 76.7145 26.7336 77.2228 27.8486C77.7385 28.9561 77.9244 30.2266 77.7803 31.6602H68.0344C68.0617 32.2313 68.2042 32.7509 68.4619 33.2189C68.7502 33.7347 69.1522 34.1367 69.6679 34.4249C70.1838 34.7132 70.7602 34.8573 71.3974 34.8573C71.8828 34.8497 72.3342 34.7663 72.7513 34.6071C73.1685 34.4402 73.5212 34.2164 73.8094 33.9357C74.1053 33.6551 74.3139 33.3366 74.4353 32.9801H77.6893C77.4921 33.8523 77.0977 34.6298 76.506 35.3124C75.9143 35.9876 75.171 36.5147 74.2759 36.8939C73.3809 37.2732 72.4024 37.4591 71.3405 37.4514ZM68.4733 28.5313C68.2915 28.8483 68.1655 29.1896 68.0954 29.5553H74.5558C74.5089 29.0933 74.3663 28.6723 74.128 28.2924C73.8549 27.8448 73.4833 27.4997 73.013 27.257C72.5428 27.0067 72.0118 26.8815 71.4202 26.8815C70.7906 26.8815 70.2179 27.0256 69.702 27.3139C69.1863 27.6021 68.7767 28.0079 68.4733 28.5313ZM94.517 24.6174C94.517 23.601 94.7483 22.6983 95.211 21.9095C95.6736 21.113 96.3223 20.4948 97.1566 20.0549C97.9985 19.6074 98.9809 19.376 100.103 19.3608V22.1256C99.58 22.1332 99.1325 22.2432 98.7609 22.4556C98.3968 22.6604 98.1161 22.96 97.9189 23.3544C97.7374 23.7176 97.6394 24.1385 97.625 24.6174H100.035V27.2456H97.6232V37.1557H94.517V27.2456H92.5145V24.6174H94.517ZM112.334 37.4286C111.067 37.4286 109.933 37.1517 108.932 36.5981C107.938 36.0367 107.157 35.2631 106.588 34.277C106.027 33.2834 105.746 32.157 105.746 30.8977C105.746 29.6311 106.027 28.5009 106.588 27.5072C107.157 26.506 107.938 25.7285 108.932 25.1748C109.933 24.6211 111.067 24.3442 112.334 24.3442C113.608 24.3442 114.746 24.6211 115.747 25.1748C116.756 25.7285 117.541 26.5022 118.103 27.4959C118.664 28.4895 118.948 29.6235 118.956 30.8977C118.948 32.157 118.664 33.2834 118.103 34.277C117.549 35.2631 116.768 36.0367 115.759 36.5981C114.75 37.1517 113.608 37.4286 112.334 37.4286ZM112.334 34.5729C113.002 34.5729 113.593 34.4211 114.109 34.1177C114.625 33.8067 115.023 33.3744 115.304 32.8206C115.584 32.2594 115.725 31.6184 115.725 30.8977C115.725 30.1696 115.584 29.5249 115.304 28.9636C115.023 28.4023 114.625 27.9699 114.109 27.6665C113.593 27.3555 113.002 27.2 112.334 27.2C111.674 27.2 111.086 27.3555 110.57 27.6665C110.062 27.9699 109.668 28.4023 109.387 28.9636C109.107 29.5249 108.97 30.1696 108.978 30.8977C108.978 31.6184 109.118 32.2594 109.399 32.8206C109.687 33.3744 110.081 33.8067 110.582 34.1177C111.09 34.4211 111.674 34.5729 112.334 34.5729ZM122.312 24.6173H118.854L122.597 37.1557H125.623L128.085 29.1474L130.743 37.1557H133.724L137.479 24.6173H134.35L132.22 32.4217L129.867 24.6173H126.841L124.499 32.5936L122.312 24.6173Z" fill="black"/>
<path d="M38.5695 17.1392L27.06 39.6392H16.2493L21.066 30.3142H20.8499C16.8761 35.4727 10.9471 38.8685 2.49927 39.6392V30.4433C2.49927 30.4433 7.90358 30.124 11.0806 26.7838H2.49927V17.1393H12.1438V25.0718L12.3602 25.0709L16.3014 17.1393H23.5953V25.0215L23.8116 25.0212L27.9006 17.1392H38.5695ZM101.332 37.1557H104.438V19.3267H101.332V37.1557ZM84.2085 36.9736C84.8835 37.2542 85.57 37.3946 86.2678 37.3946C87.4207 37.3946 88.4523 37.114 89.3626 36.5526C90.2727 35.9914 90.9782 35.2177 91.4788 34.2316C91.9795 33.238 92.2297 32.1115 92.2297 30.8524C92.2297 29.5932 91.9718 28.4669 91.4561 27.4732C90.9402 26.4796 90.2235 25.7097 89.3056 25.1635C88.3878 24.6098 87.3448 24.3367 86.1767 24.3443C85.4335 24.3443 84.7205 24.4884 84.0377 24.7767C83.3551 25.0649 82.7862 25.4745 82.3311 26.0055C82.296 26.0459 82.2618 26.0867 82.2287 26.128V19.3381H79.1112V37.1557H82.206L82.1997 35.4912C82.2797 35.5894 82.3653 35.6852 82.4562 35.779C82.9492 36.2872 83.5333 36.6854 84.2085 36.9736ZM87.3942 34.0951C86.886 34.4061 86.3057 34.5616 85.6533 34.5616C85.0086 34.5616 84.417 34.4022 83.8785 34.0837C83.3398 33.7575 82.9113 33.3139 82.5927 32.7525C82.2817 32.1912 82.1262 31.554 82.1262 30.841C82.1187 30.128 82.2703 29.4909 82.5813 28.9296C82.9 28.3607 83.3285 27.9207 83.8671 27.6097C84.4056 27.2912 85.0011 27.1357 85.6533 27.1433C86.3057 27.1357 86.886 27.2874 87.3942 27.5984C87.91 27.9018 88.3043 28.3379 88.5775 28.9068C88.8581 29.4681 88.9985 30.1129 88.9985 30.841C88.9985 31.5692 88.8581 32.214 88.5775 32.7752C88.3043 33.3366 87.91 33.7765 87.3942 34.0951ZM43.0693 20.4076H46.6192L49.7947 32.0046L53.1728 20.4076H56.1311L59.7947 31.7718L62.844 20.4076H66.098L61.2966 37.1557H58.236L54.5105 26.0537L51.0907 37.1557H47.996L43.0693 20.4076ZM71.3405 37.4514C70.104 37.4591 68.989 37.1859 67.9954 36.6323C67.0093 36.0709 66.2319 35.2934 65.6629 34.2998C65.1017 33.3062 64.821 32.1722 64.821 30.8978C64.821 29.6614 65.1093 28.5427 65.6858 27.5414C66.2622 26.5402 67.0434 25.7589 68.0295 25.1976C69.0157 24.6363 70.1154 24.3557 71.329 24.3557C72.6944 24.3557 73.889 24.6591 74.913 25.2659C75.9447 25.8727 76.7145 26.7336 77.2228 27.8486C77.7385 28.9561 77.9244 30.2266 77.7803 31.6602H68.0344C68.0617 32.2313 68.2042 32.7509 68.4619 33.2189C68.7502 33.7347 69.1522 34.1367 69.6679 34.4249C70.1838 34.7132 70.7602 34.8573 71.3974 34.8573C71.8828 34.8497 72.3342 34.7663 72.7513 34.6071C73.1685 34.4402 73.5212 34.2164 73.8094 33.9357C74.1053 33.6551 74.3139 33.3366 74.4353 32.9801H77.6893C77.4921 33.8523 77.0977 34.6298 76.506 35.3124C75.9143 35.9876 75.171 36.5147 74.2759 36.8939C73.3809 37.2732 72.4024 37.4591 71.3405 37.4514ZM68.4733 28.5313C68.2915 28.8483 68.1655 29.1896 68.0954 29.5553H74.5558C74.5089 29.0933 74.3663 28.6723 74.128 28.2924C73.8549 27.8448 73.4833 27.4997 73.013 27.257C72.5428 27.0067 72.0118 26.8815 71.4202 26.8815C70.7906 26.8815 70.2179 27.0256 69.702 27.3139C69.1863 27.6021 68.7767 28.0079 68.4733 28.5313ZM94.517 24.6174C94.517 23.601 94.7483 22.6983 95.211 21.9095C95.6736 21.113 96.3223 20.4948 97.1566 20.0549C97.9985 19.6074 98.9809 19.376 100.103 19.3608V22.1256C99.58 22.1332 99.1325 22.2432 98.7609 22.4556C98.3968 22.6604 98.1161 22.96 97.9189 23.3544C97.7374 23.7176 97.6394 24.1385 97.625 24.6174H100.035V27.2456H97.6232V37.1557H94.517V27.2456H92.5145V24.6174H94.517ZM112.334 37.4286C111.067 37.4286 109.933 37.1517 108.932 36.5981C107.938 36.0367 107.157 35.2631 106.588 34.277C106.027 33.2834 105.746 32.157 105.746 30.8977C105.746 29.6311 106.027 28.5009 106.588 27.5072C107.157 26.506 107.938 25.7285 108.932 25.1748C109.933 24.6211 111.067 24.3442 112.334 24.3442C113.608 24.3442 114.746 24.6211 115.747 25.1748C116.756 25.7285 117.541 26.5022 118.103 27.4959C118.664 28.4895 118.948 29.6235 118.956 30.8977C118.948 32.157 118.664 33.2834 118.103 34.277C117.549 35.2631 116.768 36.0367 115.759 36.5981C114.75 37.1517 113.608 37.4286 112.334 37.4286ZM112.334 34.5729C113.002 34.5729 113.593 34.4211 114.109 34.1177C114.625 33.8067 115.023 33.3744 115.304 32.8206C115.584 32.2594 115.725 31.6184 115.725 30.8977C115.725 30.1696 115.584 29.5249 115.304 28.9636C115.023 28.4023 114.625 27.9699 114.109 27.6665C113.593 27.3555 113.002 27.2 112.334 27.2C111.674 27.2 111.086 27.3555 110.57 27.6665C110.062 27.9699 109.668 28.4023 109.387 28.9636C109.107 29.5249 108.97 30.1696 108.978 30.8977C108.978 31.6184 109.118 32.2594 109.399 32.8206C109.687 33.3744 110.081 33.8067 110.582 34.1177C111.09 34.4211 111.674 34.5729 112.334 34.5729ZM122.312 24.6173H118.854L122.597 37.1557H125.623L128.085 29.1474L130.743 37.1557H133.724L137.479 24.6173H134.35L132.22 32.4217L129.867 24.6173H126.841L124.499 32.5936L122.312 24.6173Z" fill="black"/>
<path fill-rule="evenodd" clip-rule="evenodd" d="M38.5695 17.1392L27.06 39.6392H16.2493L21.066 30.3142H20.8499C16.8761 35.4727 10.9471 38.8685 2.49927 39.6392V30.4433C2.49927 30.4433 7.90358 30.124 11.0806 26.7838H2.49927V17.1393H12.1438V25.0718L12.3602 25.0709L16.3014 17.1393H23.5953V25.0215L23.8116 25.0212L27.9006 17.1392H38.5695ZM101.332 37.1557H104.438V19.3267H101.332V37.1557ZM84.2085 36.9736C84.8835 37.2542 85.57 37.3946 86.2678 37.3946C87.4207 37.3946 88.4523 37.114 89.3626 36.5526C90.2727 35.9914 90.9782 35.2177 91.4788 34.2316C91.9795 33.238 92.2297 32.1115 92.2297 30.8524C92.2297 29.5932 91.9718 28.4669 91.4561 27.4732C90.9402 26.4796 90.2235 25.7097 89.3056 25.1635C88.3878 24.6098 87.3448 24.3367 86.1767 24.3443C85.4335 24.3443 84.7205 24.4884 84.0377 24.7767C83.3551 25.0649 82.7862 25.4745 82.3311 26.0055C82.296 26.0459 82.2618 26.0867 82.2287 26.128V19.3381H79.1112V37.1557H82.206L82.1997 35.4912C82.2797 35.5894 82.3653 35.6852 82.4562 35.779C82.9492 36.2872 83.5333 36.6854 84.2085 36.9736ZM87.3942 34.0951C86.886 34.4061 86.3057 34.5616 85.6533 34.5616C85.0086 34.5616 84.417 34.4022 83.8785 34.0837C83.3398 33.7575 82.9113 33.3139 82.5927 32.7525C82.2817 32.1912 82.1262 31.554 82.1262 30.841C82.1187 30.128 82.2703 29.4909 82.5813 28.9296C82.9 28.3607 83.3285 27.9207 83.8671 27.6097C84.4056 27.2912 85.0011 27.1357 85.6533 27.1433C86.3057 27.1357 86.886 27.2874 87.3942 27.5984C87.91 27.9018 88.3043 28.3379 88.5775 28.9068C88.8581 29.4681 88.9985 30.1129 88.9985 30.841C88.9985 31.5692 88.8581 32.214 88.5775 32.7752C88.3043 33.3366 87.91 33.7765 87.3942 34.0951ZM43.0693 20.4076H46.6192L49.7947 32.0046L53.1728 20.4076H56.1311L59.7947 31.7718L62.844 20.4076H66.098L61.2966 37.1557H58.236L54.5105 26.0537L51.0907 37.1557H47.996L43.0693 20.4076ZM71.3405 37.4514C70.104 37.4591 68.989 37.1859 67.9954 36.6323C67.0093 36.0709 66.2319 35.2934 65.6629 34.2998C65.1017 33.3062 64.821 32.1722 64.821 30.8978C64.821 29.6614 65.1093 28.5427 65.6858 27.5414C66.2622 26.5402 67.0434 25.7589 68.0295 25.1976C69.0157 24.6363 70.1154 24.3557 71.329 24.3557C72.6944 24.3557 73.889 24.6591 74.913 25.2659C75.9447 25.8727 76.7145 26.7336 77.2228 27.8486C77.7385 28.9561 77.9244 30.2266 77.7803 31.6602H68.0344C68.0617 32.2313 68.2042 32.7509 68.4619 33.2189C68.7502 33.7347 69.1522 34.1367 69.6679 34.4249C70.1838 34.7132 70.7602 34.8573 71.3974 34.8573C71.8828 34.8497 72.3342 34.7663 72.7513 34.6071C73.1685 34.4402 73.5212 34.2164 73.8094 33.9357C74.1053 33.6551 74.3139 33.3366 74.4353 32.9801H77.6893C77.4921 33.8523 77.0977 34.6298 76.506 35.3124C75.9143 35.9876 75.171 36.5147 74.2759 36.8939C73.3809 37.2732 72.4024 37.4591 71.3405 37.4514ZM68.4733 28.5313C68.2915 28.8483 68.1655 29.1896 68.0954 29.5553H74.5558C74.5089 29.0933 74.3663 28.6723 74.128 28.2924C73.8549 27.8448 73.4833 27.4997 73.013 27.257C72.5428 27.0067 72.0118 26.8815 71.4202 26.8815C70.7906 26.8815 70.2179 27.0256 69.702 27.3139C69.1863 27.6021 68.7767 28.0079 68.4733 28.5313ZM94.517 24.6174C94.517 23.601 94.7483 22.6983 95.211 21.9095C95.6736 21.113 96.3223 20.4948 97.1566 20.0549C97.9985 19.6074 98.9809 19.376 100.103 19.3608V22.1256C99.58 22.1332 99.1325 22.2432 98.7609 22.4556C98.3968 22.6604 98.1161 22.96 97.9189 23.3544C97.7374 23.7176 97.6394 24.1385 97.625 24.6174H100.035V27.2456H97.6232V37.1557H94.517V27.2456H92.5145V24.6174H94.517ZM112.334 37.4286C111.067 37.4286 109.933 37.1517 108.932 36.5981C107.938 36.0367 107.157 35.2631 106.588 34.277C106.027 33.2834 105.746 32.157 105.746 30.8977C105.746 29.6311 106.027 28.5009 106.588 27.5072C107.157 26.506 107.938 25.7285 108.932 25.1748C109.933 24.6211 111.067 24.3442 112.334 24.3442C113.608 24.3442 114.746 24.6211 115.747 25.1748C116.756 25.7285 117.541 26.5022 118.103 27.4959C118.664 28.4895 118.948 29.6235 118.956 30.8977C118.948 32.157 118.664 33.2834 118.103 34.277C117.549 35.2631 116.768 36.0367 115.759 36.5981C114.75 37.1517 113.608 37.4286 112.334 37.4286ZM112.334 34.5729C113.002 34.5729 113.593 34.4211 114.109 34.1177C114.625 33.8067 115.023 33.3744 115.304 32.8206C115.584 32.2594 115.725 31.6184 115.725 30.8977C115.725 30.1696 115.584 29.5249 115.304 28.9636C115.023 28.4023 114.625 27.9699 114.109 27.6665C113.593 27.3555 113.002 27.2 112.334 27.2C111.674 27.2 111.086 27.3555 110.57 27.6665C110.062 27.9699 109.668 28.4023 109.387 28.9636C109.107 29.5249 108.97 30.1696 108.978 30.8977C108.978 31.6184 109.118 32.2594 109.399 32.8206C109.687 33.3744 110.081 33.8067 110.582 34.1177C111.09 34.4211 111.674 34.5729 112.334 34.5729ZM122.312 24.6173H118.854L122.597 37.1557H125.623L128.085 29.1474L130.743 37.1557H133.724L137.479 24.6173H134.35L132.22 32.4217L129.867 24.6173H126.841L124.499 32.5936L122.312 24.6173Z" fill="black"/>
<path d="M38.5695 17.1392L27.06 39.6392H16.2493L21.066 30.3142H20.8499C16.8761 35.4727 10.9471 38.8685 2.49927 39.6392V30.4433C2.49927 30.4433 7.90358 30.124 11.0806 26.7838H2.49927V17.1393H12.1438V25.0718L12.3602 25.0709L16.3014 17.1393H23.5953V25.0215L23.8116 25.0212L27.9006 17.1392H38.5695ZM101.332 37.1557H104.438V19.3267H101.332V37.1557ZM84.2085 36.9736C84.8835 37.2542 85.57 37.3946 86.2678 37.3946C87.4207 37.3946 88.4523 37.114 89.3626 36.5526C90.2727 35.9914 90.9782 35.2177 91.4788 34.2316C91.9795 33.238 92.2297 32.1115 92.2297 30.8524C92.2297 29.5932 91.9718 28.4669 91.4561 27.4732C90.9402 26.4796 90.2235 25.7097 89.3056 25.1635C88.3878 24.6098 87.3448 24.3367 86.1767 24.3443C85.4335 24.3443 84.7205 24.4884 84.0377 24.7767C83.3551 25.0649 82.7862 25.4745 82.3311 26.0055C82.296 26.0459 82.2618 26.0867 82.2287 26.128V19.3381H79.1112V37.1557H82.206L82.1997 35.4912C82.2797 35.5894 82.3653 35.6852 82.4562 35.779C82.9492 36.2872 83.5333 36.6854 84.2085 36.9736ZM87.3942 34.0951C86.886 34.4061 86.3057 34.5616 85.6533 34.5616C85.0086 34.5616 84.417 34.4022 83.8785 34.0837C83.3398 33.7575 82.9113 33.3139 82.5927 32.7525C82.2817 32.1912 82.1262 31.554 82.1262 30.841C82.1187 30.128 82.2703 29.4909 82.5813 28.9296C82.9 28.3607 83.3285 27.9207 83.8671 27.6097C84.4056 27.2912 85.0011 27.1357 85.6533 27.1433C86.3057 27.1357 86.886 27.2874 87.3942 27.5984C87.91 27.9018 88.3043 28.3379 88.5775 28.9068C88.8581 29.4681 88.9985 30.1129 88.9985 30.841C88.9985 31.5692 88.8581 32.214 88.5775 32.7752C88.3043 33.3366 87.91 33.7765 87.3942 34.0951ZM43.0693 20.4076H46.6192L49.7947 32.0046L53.1728 20.4076H56.1311L59.7947 31.7718L62.844 20.4076H66.098L61.2966 37.1557H58.236L54.5105 26.0537L51.0907 37.1557H47.996L43.0693 20.4076ZM71.3405 37.4514C70.104 37.4591 68.989 37.1859 67.9954 36.6323C67.0093 36.0709 66.2319 35.2934 65.6629 34.2998C65.1017 33.3062 64.821 32.1722 64.821 30.8978C64.821 29.6614 65.1093 28.5427 65.6858 27.5414C66.2622 26.5402 67.0434 25.7589 68.0295 25.1976C69.0157 24.6363 70.1154 24.3557 71.329 24.3557C72.6944 24.3557 73.889 24.6591 74.913 25.2659C75.9447 25.8727 76.7145 26.7336 77.2228 27.8486C77.7385 28.9561 77.9244 30.2266 77.7803 31.6602H68.0344C68.0617 32.2313 68.2042 32.7509 68.4619 33.2189C68.7502 33.7347 69.1522 34.1367 69.6679 34.4249C70.1838 34.7132 70.7602 34.8573 71.3974 34.8573C71.8828 34.8497 72.3342 34.7663 72.7513 34.6071C73.1685 34.4402 73.5212 34.2164 73.8094 33.9357C74.1053 33.6551 74.3139 33.3366 74.4353 32.9801H77.6893C77.4921 33.8523 77.0977 34.6298 76.506 35.3124C75.9143 35.9876 75.171 36.5147 74.2759 36.8939C73.3809 37.2732 72.4024 37.4591 71.3405 37.4514ZM68.4733 28.5313C68.2915 28.8483 68.1655 29.1896 68.0954 29.5553H74.5558C74.5089 29.0933 74.3663 28.6723 74.128 28.2924C73.8549 27.8448 73.4833 27.4997 73.013 27.257C72.5428 27.0067 72.0118 26.8815 71.4202 26.8815C70.7906 26.8815 70.2179 27.0256 69.702 27.3139C69.1863 27.6021 68.7767 28.0079 68.4733 28.5313ZM94.517 24.6174C94.517 23.601 94.7483 22.6983 95.211 21.9095C95.6736 21.113 96.3223 20.4948 97.1566 20.0549C97.9985 19.6074 98.9809 19.376 100.103 19.3608V22.1256C99.58 22.1332 99.1325 22.2432 98.7609 22.4556C98.3968 22.6604 98.1161 22.96 97.9189 23.3544C97.7374 23.7176 97.6394 24.1385 97.625 24.6174H100.035V27.2456H97.6232V37.1557H94.517V27.2456H92.5145V24.6174H94.517ZM112.334 37.4286C111.067 37.4286 109.933 37.1517 108.932 36.5981C107.938 36.0367 107.157 35.2631 106.588 34.277C106.027 33.2834 105.746 32.157 105.746 30.8977C105.746 29.6311 106.027 28.5009 106.588 27.5072C107.157 26.506 107.938 25.7285 108.932 25.1748C109.933 24.6211 111.067 24.3442 112.334 24.3442C113.608 24.3442 114.746 24.6211 115.747 25.1748C116.756 25.7285 117.541 26.5022 118.103 27.4959C118.664 28.4895 118.948 29.6235 118.956 30.8977C118.948 32.157 118.664 33.2834 118.103 34.277C117.549 35.2631 116.768 36.0367 115.759 36.5981C114.75 37.1517 113.608 37.4286 112.334 37.4286ZM112.334 34.5729C113.002 34.5729 113.593 34.4211 114.109 34.1177C114.625 33.8067 115.023 33.3744 115.304 32.8206C115.584 32.2594 115.725 31.6184 115.725 30.8977C115.725 30.1696 115.584 29.5249 115.304 28.9636C115.023 28.4023 114.625 27.9699 114.109 27.6665C113.593 27.3555 113.002 27.2 112.334 27.2C111.674 27.2 111.086 27.3555 110.57 27.6665C110.062 27.9699 109.668 28.4023 109.387 28.9636C109.107 29.5249 108.97 30.1696 108.978 30.8977C108.978 31.6184 109.118 32.2594 109.399 32.8206C109.687 33.3744 110.081 33.8067 110.582 34.1177C111.09 34.4211 111.674 34.5729 112.334 34.5729ZM122.312 24.6173H118.854L122.597 37.1557H125.623L128.085 29.1474L130.743 37.1557H133.724L137.479 24.6173H134.35L132.22 32.4217L129.867 24.6173H126.841L124.499 32.5936L122.312 24.6173Z" fill="black"/>
</svg>
