<svg width="63" height="28" viewBox="0 0 63 28" fill="none" xmlns="http://www.w3.org/2000/svg">
<g clip-path="url(#clip0_24_1479)">
<g clip-path="url(#clip1_24_1479)">
<path d="M55.4335 13.7002L55.4057 13.7281C55.6009 13.1985 55.9911 13.0033 56.3256 13.0033C56.7995 13.0033 57.2176 13.3657 57.2176 13.8954C57.2176 14.0069 57.2176 14.1463 57.1619 14.3135C56.1862 16.8224 54.1234 18.1047 52.1163 18.2998C51.1964 19.8609 49.6911 21.0038 47.5446 21.0038C44.4782 21.0038 43.1123 18.5786 43.1123 15.9304C43.1123 12.6688 45.1752 9.04492 48.6318 9.04492C49.3844 9.04492 50.0256 9.21225 50.5552 9.43522C52.1163 10.0206 53.1199 12.0556 53.1199 14.2299C53.1199 14.9268 53.0641 15.6237 52.8968 16.2928C53.9283 15.9304 54.9039 15.094 55.4335 13.7002ZM49.6075 11.3308V11.3029C48.9942 11.3029 48.6318 12.1113 48.6318 13.087C48.6318 14.5087 49.4123 15.8188 50.6389 16.2928C50.834 15.6795 50.9176 14.9826 50.9176 14.1742C50.9176 12.6131 50.4437 11.3308 49.6075 11.3308ZM47.5725 18.9688C48.353 18.9688 49.1335 18.6343 49.7468 17.9374C47.9349 17.129 46.792 15.2335 46.792 13.4215C46.792 12.8082 46.9035 12.1671 47.0707 11.6095C45.9557 12.5295 45.3145 14.3414 45.3145 15.9304C45.3145 17.9932 46.2902 18.9688 47.5725 18.9688Z" fill="black"/>
<path d="M43.5422 13.6997L43.5143 13.7276C43.7095 13.1979 44.044 12.9749 44.3785 12.9749C44.8524 12.9749 45.3262 13.3931 45.3262 13.9227C45.3262 14.0621 45.2984 14.1736 45.2426 14.3129C44.1555 16.9612 42.5386 20.0555 39.9462 21.8674L39.8905 22.4249C39.5838 25.7701 37.8834 27.8886 35.7369 27.8886C34.12 27.8886 33.1723 26.7736 33.1723 25.4634C33.1723 23.0939 35.5975 22.2298 37.8555 20.7803C37.9112 20.1948 37.9391 19.5258 37.9669 18.7731C36.8519 19.9997 35.6533 20.5015 34.594 20.5015C32.4754 20.5015 30.7471 18.7731 30.7471 16.1249C30.7471 12.055 33.4231 9.37891 36.4059 9.37891H36.4338C38.4688 9.37891 40.6431 10.466 40.6431 12.4174C40.6431 13.0586 40.3643 16.5431 40.1413 19.247C41.6466 17.8253 42.901 15.5117 43.5422 13.6997ZM34.9006 18.4944C35.932 18.4944 37.3258 17.8532 38.19 14.7032C38.3293 14.0063 38.413 13.3931 38.3851 12.6683C38.2179 11.9156 37.5767 11.4696 36.6568 11.4696C34.7612 11.4696 32.9493 13.2815 32.9493 16.0413C32.9493 17.7139 33.7298 18.4944 34.9006 18.4944ZM35.9599 25.8537H35.9878C36.5731 25.8537 37.2143 25.4634 37.6324 22.9546C36.4059 23.6793 35.263 24.4041 35.263 25.2683C35.263 25.6307 35.5417 25.8537 35.9599 25.8537Z" fill="black"/>
<path d="M31.2363 13.7002L31.2084 13.7281C31.4035 13.1985 31.7938 13.0033 32.1283 13.0033C32.6022 13.0033 33.0204 13.3657 33.0204 13.8954C33.0204 14.0069 33.0204 14.1463 32.9646 14.3135C31.989 16.8224 29.9261 18.1047 27.919 18.2998C26.9991 19.8609 25.4938 21.0038 23.3473 21.0038C20.2809 21.0038 18.915 18.5786 18.915 15.9304C18.915 12.6688 20.9778 9.04492 24.4345 9.04492C25.1871 9.04492 25.8283 9.21225 26.358 9.43522C27.919 10.0206 28.9226 12.0556 28.9226 14.2299C28.9226 14.9268 28.8668 15.6237 28.6995 16.2928C29.731 15.9304 30.7066 15.094 31.2363 13.7002ZM25.4102 11.3308V11.3029C24.7969 11.3029 24.4345 12.1113 24.4345 13.087C24.4345 14.5087 25.215 15.8188 26.4416 16.2928C26.6367 15.6795 26.7204 14.9826 26.7204 14.1742C26.7204 12.6131 26.2464 11.3308 25.4102 11.3308ZM23.3752 18.9688C24.1557 18.9688 24.9363 18.6343 25.5495 17.9374C23.7376 17.129 22.5947 15.2335 22.5947 13.4215C22.5947 12.8082 22.7062 12.1671 22.8735 11.6095C21.7584 12.5295 21.1173 14.3414 21.1173 15.9304C21.1173 17.9932 22.0929 18.9688 23.3752 18.9688Z" fill="black"/>
<path d="M20.3322 12.8198C19.9419 12.8198 19.6074 13.015 19.3843 13.5446C18.6596 15.3844 17.1542 18.5066 15.621 18.5066C14.6556 18.5066 13.9085 18.2883 13.1536 18.0676C12.3826 17.8423 11.6035 17.6146 10.5753 17.6146C10.2129 17.6146 9.71115 17.6704 9.23725 17.754C10.6649 15.8071 11.1983 13.4494 11.7151 8.99264C10.742 8.93069 9.95045 8.75091 9.37349 8.56934C8.75725 14.2217 8.05746 16.3769 5.50178 18.5066C5.16726 18.7854 5 19.1757 5 19.566C5 20.1793 5.52966 20.7089 6.1987 20.7089C6.42172 20.7089 6.6726 20.6253 6.92349 20.5138C8.3452 19.8726 9.20938 19.7053 10.2687 19.7053C10.9423 19.7053 11.7484 19.898 12.6114 20.1042C13.6054 20.3418 14.675 20.5974 15.7047 20.5974C17.9626 20.5974 19.4401 18.3952 21.0848 14.13C21.1685 13.9906 21.1963 13.8234 21.1963 13.684C21.1963 13.1543 20.7782 12.8198 20.3322 12.8198Z" fill="black"/>
<path fill-rule="evenodd" clip-rule="evenodd" d="M9.51512 7.41582C10.0199 7.59205 10.808 7.79722 11.8299 7.85792L11.9971 7.85784C15.1472 7.85784 17.2101 5.90647 17.2101 3.56483C17.2101 2.05949 16.0393 0.888672 14.3945 0.888672C12.1923 0.888672 10.6591 2.39401 9.87851 5.37681C8.90282 4.84716 8.23379 3.89935 7.89926 2.70066C7.732 2.11524 7.36961 1.75284 6.86782 1.75284C6.25454 1.75284 5.86426 2.22675 5.86426 2.86791C5.86426 4.76353 7.34173 6.57551 9.51611 7.41181L9.51512 7.41582ZM12.1644 5.82284C12.5825 3.89935 13.2516 2.97942 14.1436 2.97942C14.6176 2.97942 14.9242 3.25819 14.9242 3.75997C14.9242 4.6799 13.9485 5.76708 12.1644 5.82284Z" fill="black"/>
</g>
</g>
<defs>
<clipPath id="clip0_24_1479">
<rect width="63" height="27" fill="white" transform="translate(0 0.888672)"/>
</clipPath>
<clipPath id="clip1_24_1479">
<rect width="52.5" height="27" fill="white" transform="translate(5 0.888672)"/>
</clipPath>
</defs>
</svg>
