<svg width="63" height="28" viewBox="0 0 63 28" fill="none" xmlns="http://www.w3.org/2000/svg">
<g clip-path="url(#clip0_24_1884)">
<g clip-path="url(#clip1_24_1884)">
<path d="M55.4335 13.4786L55.4057 13.5065C55.6009 12.9768 55.9911 12.7817 56.3256 12.7817C56.7995 12.7817 57.2176 13.1441 57.2176 13.6737C57.2176 13.7852 57.2176 13.9246 57.1619 14.0918C56.1862 16.6007 54.1234 17.883 52.1163 18.0782C51.1964 19.6392 49.6911 20.7821 47.5446 20.7821C44.4782 20.7821 43.1123 18.3569 43.1123 15.7087C43.1123 12.4472 45.1752 8.82324 48.6318 8.82324C49.3844 8.82324 50.0256 8.99057 50.5552 9.21354C52.1163 9.79892 53.1199 11.8339 53.1199 14.0082C53.1199 14.7051 53.0641 15.402 52.8968 16.0711C53.9283 15.7087 54.9039 14.8724 55.4335 13.4786ZM49.6075 11.1091V11.0813C48.9942 11.0813 48.6318 11.8896 48.6318 12.8653C48.6318 14.287 49.4123 15.5972 50.6389 16.0711C50.834 15.4578 50.9176 14.7609 50.9176 13.9525C50.9176 12.3914 50.4437 11.1091 49.6075 11.1091ZM47.5725 18.7472C48.353 18.7472 49.1335 18.4127 49.7468 17.7158C47.9349 16.9073 46.792 15.0118 46.792 13.1998C46.792 12.5865 46.9035 11.9454 47.0707 11.3879C45.9557 12.3078 45.3145 14.1197 45.3145 15.7087C45.3145 17.7715 46.2902 18.7472 47.5725 18.7472Z" fill="black"/>
<path d="M43.5427 13.478L43.5148 13.5059C43.71 12.9762 44.0445 12.7533 44.379 12.7533C44.8529 12.7533 45.3267 13.1714 45.3267 13.701C45.3267 13.8404 45.2989 13.9519 45.2431 14.0913C44.156 16.7395 42.5391 19.8338 39.9467 21.6457L39.891 22.2033C39.5843 25.5484 37.8839 27.6669 35.7374 27.6669C34.1205 27.6669 33.1728 26.5519 33.1728 25.2417C33.1728 22.8723 35.598 22.0081 37.856 20.5586C37.9117 19.9731 37.9396 19.3041 37.9674 18.5514C36.8524 19.778 35.6538 20.2798 34.5945 20.2798C32.4759 20.2798 30.7476 18.5514 30.7476 15.9033C30.7476 11.8333 33.4236 9.15723 36.4064 9.15723H36.4343C38.4693 9.15723 40.6436 10.2444 40.6436 12.1957C40.6436 12.8369 40.3648 16.3214 40.1418 19.0254C41.6471 17.6037 42.9015 15.29 43.5427 13.478ZM34.9011 18.2727C35.9325 18.2727 37.3263 17.6316 38.1905 14.4816C38.3298 13.7847 38.4135 13.1714 38.3856 12.4466C38.2184 11.694 37.5772 11.2479 36.6573 11.2479C34.7617 11.2479 32.9498 13.0599 32.9498 15.8196C32.9498 17.4922 33.7303 18.2727 34.9011 18.2727ZM35.9604 25.632H35.9883C36.5736 25.632 37.2148 25.2417 37.6329 22.7329C36.4064 23.4576 35.2635 24.1824 35.2635 25.0466C35.2635 25.409 35.5422 25.632 35.9604 25.632Z" fill="black"/>
<path d="M31.2368 13.4786L31.2089 13.5065C31.404 12.9768 31.7943 12.7817 32.1288 12.7817C32.6027 12.7817 33.0209 13.1441 33.0209 13.6737C33.0209 13.7852 33.0209 13.9246 32.9651 14.0918C31.9895 16.6007 29.9266 17.883 27.9195 18.0782C26.9996 19.6392 25.4943 20.7821 23.3478 20.7821C20.2814 20.7821 18.9155 18.3569 18.9155 15.7087C18.9155 12.4472 20.9783 8.82324 24.435 8.82324C25.1876 8.82324 25.8288 8.99057 26.3585 9.21354C27.9195 9.79892 28.9231 11.8339 28.9231 14.0082C28.9231 14.7051 28.8673 15.402 28.7 16.0711C29.7315 15.7087 30.7071 14.8724 31.2368 13.4786ZM25.4107 11.1091V11.0813C24.7974 11.0813 24.435 11.8896 24.435 12.8653C24.435 14.287 25.2155 15.5972 26.4421 16.0711C26.6372 15.4578 26.7209 14.7609 26.7209 13.9525C26.7209 12.3914 26.2469 11.1091 25.4107 11.1091ZM23.3757 18.7472C24.1562 18.7472 24.9368 18.4127 25.55 17.7158C23.7381 16.9073 22.5952 15.0118 22.5952 13.1998C22.5952 12.5865 22.7067 11.9454 22.874 11.3879C21.7589 12.3078 21.1178 14.1197 21.1178 15.7087C21.1178 17.7715 22.0934 18.7472 23.3757 18.7472Z" fill="black"/>
<path d="M20.3322 12.5981C19.9419 12.5981 19.6074 12.7933 19.3843 13.3229C18.6596 15.1628 17.1542 18.2849 15.621 18.2849C14.6556 18.2849 13.9085 18.0666 13.1536 17.846C12.3826 17.6207 11.6035 17.3929 10.5753 17.3929C10.2129 17.3929 9.71115 17.4487 9.23725 17.5323C10.6649 15.5855 11.1983 13.2277 11.7151 8.77096C10.742 8.70901 9.95045 8.52923 9.37349 8.34766C8.75725 14 8.05746 16.1552 5.50178 18.2849C5.16726 18.5637 5 18.954 5 19.3443C5 19.9576 5.52966 20.4872 6.1987 20.4872C6.42172 20.4872 6.6726 20.4036 6.92349 20.2921C8.3452 19.6509 9.20938 19.4837 10.2687 19.4837C10.9423 19.4837 11.7484 19.6763 12.6114 19.8825C13.6054 20.1201 14.675 20.3757 15.7047 20.3757C17.9626 20.3757 19.4401 18.1735 21.0848 13.9083C21.1685 13.769 21.1963 13.6017 21.1963 13.4623C21.1963 12.9326 20.7782 12.5981 20.3322 12.5981Z" fill="black"/>
<path fill-rule="evenodd" clip-rule="evenodd" d="M9.51512 7.19415C10.0199 7.37037 10.808 7.57554 11.8299 7.63624L11.9971 7.63616C15.1472 7.63616 17.2101 5.68479 17.2101 3.34315C17.2101 1.83781 16.0393 0.666992 14.3945 0.666992C12.1923 0.666992 10.6591 2.17233 9.87851 5.15513C8.90282 4.62548 8.23379 3.67767 7.89926 2.47898C7.732 1.89356 7.36961 1.53116 6.86782 1.53116C6.25454 1.53116 5.86426 2.00507 5.86426 2.64623C5.86426 4.54185 7.34173 6.35383 9.51611 7.19013L9.51512 7.19415ZM12.1644 5.60116C12.5825 3.67767 13.2516 2.75774 14.1436 2.75774C14.6176 2.75774 14.9242 3.03651 14.9242 3.53829C14.9242 4.45822 13.9485 5.5454 12.1644 5.60116Z" fill="black"/>
</g>
</g>
<defs>
<clipPath id="clip0_24_1884">
<rect width="63" height="27" fill="white" transform="translate(0 0.666992)"/>
</clipPath>
<clipPath id="clip1_24_1884">
<rect width="52.5" height="27" fill="white" transform="translate(5 0.666992)"/>
</clipPath>
</defs>
</svg>
