<svg width="24" height="25" viewBox="0 0 24 25" fill="none" xmlns="http://www.w3.org/2000/svg">
<path fill-rule="evenodd" clip-rule="evenodd" d="M12 3.88867C7.03145 3.88867 3 7.92012 3 12.8887C3 17.8573 7.03145 21.8887 12 21.8887C16.9588 21.8887 21 17.8573 21 12.8887C21 7.92012 16.9588 3.88867 12 3.88867ZM17.9447 8.03726C19.0184 9.34529 19.6627 11.0145 19.6822 12.8204C19.4284 12.7716 16.8904 12.2542 14.333 12.5763C14.2744 12.4494 14.2256 12.3128 14.167 12.1761C14.0108 11.8052 13.8352 11.4245 13.6594 11.0633C16.4902 9.91147 17.7787 8.25201 17.9447 8.03726ZM12 5.21622C13.9523 5.21622 15.7386 5.94833 17.0955 7.14898C16.9588 7.3442 15.7972 8.89626 13.064 9.9212C11.8048 7.60776 10.4089 5.71405 10.1942 5.42121C10.77 5.28455 11.3753 5.21622 12 5.21622ZM8.72996 5.93856C8.93494 6.21188 10.3015 8.11535 11.5803 10.38C7.98807 11.3367 4.81562 11.3171 4.47397 11.3171C4.9718 8.93531 6.58243 6.95374 8.72996 5.93856ZM4.30803 12.8985C4.30803 12.8204 4.30803 12.7423 4.30803 12.6642C4.63991 12.6739 8.36876 12.7228 12.205 11.5709C12.4295 12.0004 12.6345 12.4397 12.8297 12.8789C12.7321 12.9082 12.6247 12.9375 12.5271 12.9668C8.56399 14.2455 6.45553 17.7401 6.27983 18.0329C5.05965 16.6761 4.30803 14.8703 4.30803 12.8985ZM12 20.5807C10.2234 20.5807 8.58352 19.9755 7.28525 18.9603C7.42191 18.6772 8.98371 15.6707 13.3178 14.1577C13.3373 14.1479 13.3471 14.1479 13.3666 14.1382C14.4501 16.9397 14.8894 19.2921 15.0065 19.9657C14.0792 20.3659 13.064 20.5807 12 20.5807ZM16.2852 19.2629C16.2072 18.7943 15.7972 16.5492 14.7917 13.7867C17.2028 13.406 19.3113 14.0308 19.5749 14.1187C19.243 16.2564 18.013 18.1013 16.2852 19.2629Z" fill="black"/>
</svg>
