<svg width="24" height="25" viewBox="0 0 24 25" fill="none" xmlns="http://www.w3.org/2000/svg">
<path fill-rule="evenodd" clip-rule="evenodd" d="M12 3.66699C7.03145 3.66699 3 7.69844 3 12.667C3 17.6356 7.03145 21.667 12 21.667C16.9588 21.667 21 17.6356 21 12.667C21 7.69844 16.9588 3.66699 12 3.66699ZM17.9447 7.81558C19.0184 9.12361 19.6627 10.7928 19.6822 12.5987C19.4284 12.5499 16.8904 12.0325 14.333 12.3546C14.2744 12.2277 14.2256 12.0911 14.167 11.9544C14.0108 11.5835 13.8352 11.2028 13.6594 10.8416C16.4902 9.68979 17.7787 8.03033 17.9447 7.81558ZM12 4.99454C13.9523 4.99454 15.7386 5.72665 17.0955 6.9273C16.9588 7.12252 15.7972 8.67458 13.064 9.69952C11.8048 7.38608 10.4089 5.49237 10.1942 5.19953C10.77 5.06287 11.3753 4.99454 12 4.99454ZM8.72996 5.71688C8.93494 5.9902 10.3015 7.89367 11.5803 10.1583C7.98807 11.115 4.81562 11.0954 4.47397 11.0954C4.9718 8.71363 6.58243 6.73206 8.72996 5.71688ZM4.30803 12.6768C4.30803 12.5987 4.30803 12.5206 4.30803 12.4425C4.63991 12.4522 8.36876 12.5011 12.205 11.3492C12.4295 11.7787 12.6345 12.218 12.8297 12.6572C12.7321 12.6865 12.6247 12.7158 12.5271 12.7451C8.56399 14.0238 6.45553 17.5184 6.27983 17.8112C5.05965 16.4544 4.30803 14.6486 4.30803 12.6768ZM12 20.359C10.2234 20.359 8.58352 19.7538 7.28525 18.7386C7.42191 18.4555 8.98371 15.449 13.3178 13.936C13.3373 13.9262 13.3471 13.9262 13.3666 13.9165C14.4501 16.718 14.8894 19.0704 15.0065 19.744C14.0792 20.1442 13.064 20.359 12 20.359ZM16.2852 19.0412C16.2072 18.5726 15.7972 16.3275 14.7917 13.565C17.2028 13.1843 19.3113 13.8091 19.5749 13.897C19.243 16.0347 18.013 17.8796 16.2852 19.0412Z" fill="black"/>
</svg>
