<svg width="25" height="25" viewBox="0 0 25 25" fill="none" xmlns="http://www.w3.org/2000/svg">
<path fill-rule="evenodd" clip-rule="evenodd" d="M5.1665 4.13086C4.33807 4.13086 3.6665 4.80243 3.6665 5.63086V20.6309C3.6665 21.4593 4.33807 22.1309 5.1665 22.1309H20.1665C20.9949 22.1309 21.6665 21.4593 21.6665 20.6309V5.63086C21.6665 4.80243 20.9949 4.13086 20.1665 4.13086H5.1665ZM9.18726 8.13358C9.19289 9.08983 8.47711 9.67905 7.62773 9.67483C6.82757 9.67061 6.13007 9.03358 6.13429 8.13499C6.13851 7.28983 6.80648 6.61061 7.67414 6.6303C8.55445 6.64999 9.19289 7.29546 9.18726 8.13358ZM12.9462 10.8926H10.4262H10.4248V19.4525H13.0882V19.2528C13.0882 18.8729 13.0879 18.4929 13.0876 18.1128C13.0868 17.099 13.0859 16.0841 13.0911 15.0706C13.0925 14.8245 13.1037 14.5686 13.167 14.3337C13.4046 13.4562 14.1936 12.8895 15.0739 13.0288C15.6392 13.1173 16.0132 13.445 16.1707 13.978C16.2678 14.3112 16.3114 14.6698 16.3156 15.0172C16.327 16.0648 16.3254 17.1124 16.3238 18.1601C16.3232 18.5299 16.3226 18.8999 16.3226 19.2697V19.4511H18.9945V19.2458C18.9945 18.7938 18.9943 18.3419 18.994 17.89C18.9935 16.7605 18.9929 15.631 18.9959 14.5011C18.9973 13.9906 18.9425 13.4872 18.8173 12.9936C18.6303 12.2595 18.2436 11.652 17.615 11.2133C17.1692 10.901 16.6798 10.7 16.1328 10.6775C16.0705 10.6749 16.0077 10.6715 15.9446 10.6681C15.6649 10.6529 15.3806 10.6376 15.1132 10.6915C14.3482 10.8448 13.6761 11.195 13.1684 11.8123C13.1094 11.8831 13.0517 11.955 12.9656 12.0623L12.9462 12.0866V10.8926ZM6.34814 19.4553H8.99892V10.8982H6.34814V19.4553Z" fill="black"/>
</svg>
