<svg width="25" height="25" viewBox="0 0 25 25" fill="none" xmlns="http://www.w3.org/2000/svg">
<path fill-rule="evenodd" clip-rule="evenodd" d="M16.6665 4.13086H8.6665C5.90508 4.13086 3.6665 6.36944 3.6665 9.13086V17.1309C3.6665 19.8923 5.90508 22.1309 8.6665 22.1309H16.6665C19.4279 22.1309 21.6665 19.8923 21.6665 17.1309V9.13086C21.6665 6.36944 19.4279 4.13086 16.6665 4.13086ZM19.9165 17.1309C19.911 18.9235 18.4591 20.3754 16.6665 20.3809H8.6665C6.87385 20.3754 5.42199 18.9235 5.4165 17.1309V9.13086C5.42199 7.33821 6.87385 5.88635 8.6665 5.88086H16.6665C18.4591 5.88635 19.911 7.33821 19.9165 9.13086V17.1309ZM17.4165 9.38086C17.9688 9.38086 18.4165 8.93314 18.4165 8.38086C18.4165 7.82858 17.9688 7.38086 17.4165 7.38086C16.8642 7.38086 16.4165 7.82858 16.4165 8.38086C16.4165 8.93314 16.8642 9.38086 17.4165 9.38086ZM12.6665 8.63086C10.1812 8.63086 8.1665 10.6456 8.1665 13.1309C8.1665 15.6162 10.1812 17.6309 12.6665 17.6309C15.1518 17.6309 17.1665 15.6162 17.1665 13.1309C17.1692 11.9366 16.6959 10.7904 15.8514 9.94594C15.0069 9.10145 13.8608 8.6282 12.6665 8.63086ZM9.9165 13.1309C9.9165 14.6497 11.1477 15.8809 12.6665 15.8809C14.1853 15.8809 15.4165 14.6497 15.4165 13.1309C15.4165 11.6121 14.1853 10.3809 12.6665 10.3809C11.1477 10.3809 9.9165 11.6121 9.9165 13.1309Z" fill="black"/>
</svg>
