<svg width="25" height="25" viewBox="0 0 25 25" fill="none" xmlns="http://www.w3.org/2000/svg">
<path d="M22.2593 8.09168C22.1454 7.66908 21.9228 7.28368 21.6137 6.97385C21.3046 6.66401 20.9197 6.44054 20.4973 6.32568C18.9313 5.89568 12.6663 5.88868 12.6663 5.88868C12.6663 5.88868 6.40235 5.88168 4.83535 6.29268C4.41327 6.41283 4.02917 6.63946 3.71991 6.95081C3.41066 7.26217 3.18663 7.6478 3.06935 8.07068C2.65635 9.63668 2.65235 12.8847 2.65235 12.8847C2.65235 12.8847 2.64835 16.1487 3.05835 17.6987C3.28835 18.5557 3.96335 19.2327 4.82135 19.4637C6.40335 19.8937 12.6513 19.9007 12.6513 19.9007C12.6513 19.9007 18.9163 19.9077 20.4823 19.4977C20.9048 19.383 21.2901 19.1601 21.6 18.8509C21.9099 18.5417 22.1337 18.1569 22.2493 17.7347C22.6633 16.1697 22.6663 12.9227 22.6663 12.9227C22.6663 12.9227 22.6863 9.65768 22.2593 8.09168ZM10.6623 15.8937L10.6673 9.89368L15.8743 12.8987L10.6623 15.8937Z" fill="black"/>
</svg>
