<svg width="25" height="25" viewBox="0 0 25 25" fill="none" xmlns="http://www.w3.org/2000/svg">
<path d="M22.2597 8.09168C22.1457 7.66908 21.9232 7.28368 21.614 6.97385C21.3049 6.66401 20.92 6.44054 20.4977 6.32568C18.9317 5.89568 12.6667 5.88868 12.6667 5.88868C12.6667 5.88868 6.40265 5.88168 4.83565 6.29268C4.41358 6.41283 4.02947 6.63946 3.72022 6.95081C3.41096 7.26217 3.18694 7.6478 3.06965 8.07068C2.65665 9.63668 2.65265 12.8847 2.65265 12.8847C2.65265 12.8847 2.64865 16.1487 3.05865 17.6987C3.28865 18.5557 3.96365 19.2327 4.82165 19.4637C6.40365 19.8937 12.6517 19.9007 12.6517 19.9007C12.6517 19.9007 18.9167 19.9077 20.4827 19.4977C20.9051 19.383 21.2904 19.1601 21.6003 18.8509C21.9102 18.5417 22.134 18.1569 22.2497 17.7347C22.6637 16.1697 22.6667 12.9227 22.6667 12.9227C22.6667 12.9227 22.6867 9.65768 22.2597 8.09168ZM10.6627 15.8937L10.6677 9.89368L15.8747 12.8987L10.6627 15.8937Z" fill="black"/>
</svg>
