<svg width="24" height="25" viewBox="0 0 24 25" fill="none" xmlns="http://www.w3.org/2000/svg">
<path fill-rule="evenodd" clip-rule="evenodd" d="M4.5 4.13086C3.67157 4.13086 3 4.80243 3 5.63086V20.6309C3 21.4593 3.67157 22.1309 4.5 22.1309H19.5C20.3284 22.1309 21 21.4593 21 20.6309V5.63086C21 4.80243 20.3284 4.13086 19.5 4.13086H4.5ZM8.52076 8.13358C8.52639 9.08983 7.81061 9.67905 6.96123 9.67483C6.16107 9.67061 5.46357 9.03358 5.46779 8.13499C5.47201 7.28983 6.13998 6.61061 7.00764 6.6303C7.88795 6.64999 8.52639 7.29546 8.52076 8.13358ZM12.2797 10.8926H9.75971H9.7583V19.4525H12.4217V19.2528C12.4217 18.8729 12.4214 18.4929 12.4211 18.1128C12.4203 17.099 12.4194 16.0841 12.4246 15.0706C12.426 14.8245 12.4372 14.5686 12.5005 14.3337C12.7381 13.4562 13.5271 12.8895 14.4074 13.0288C14.9727 13.1173 15.3467 13.445 15.5042 13.978C15.6013 14.3112 15.6449 14.6698 15.6491 15.0172C15.6605 16.0648 15.6589 17.1124 15.6573 18.1601C15.6567 18.5299 15.6561 18.8999 15.6561 19.2697V19.4511H18.328V19.2458C18.328 18.7938 18.3278 18.3419 18.3275 17.89C18.327 16.7605 18.3264 15.631 18.3294 14.5011C18.3308 13.9906 18.276 13.4872 18.1508 12.9936C17.9638 12.2595 17.5771 11.652 16.9485 11.2133C16.5027 10.901 16.0133 10.7 15.4663 10.6775C15.404 10.6749 15.3412 10.6715 15.2781 10.6681C14.9984 10.6529 14.7141 10.6376 14.4467 10.6915C13.6817 10.8448 13.0096 11.195 12.5019 11.8123C12.4429 11.8831 12.3852 11.955 12.2991 12.0623L12.2797 12.0866V10.8926ZM5.68164 19.4553H8.33242V10.8982H5.68164V19.4553Z" fill="black"/>
</svg>
