<svg width="120" height="49" viewBox="0 0 120 49" fill="none" xmlns="http://www.w3.org/2000/svg">
<path fill-rule="evenodd" clip-rule="evenodd" d="M33.0596 15.2456L23.1943 34.5314H13.9279L18.0565 26.5385H17.8713C14.4652 30.9601 9.38316 33.8709 2.14209 34.5314V26.6492C2.14209 26.6492 6.77438 26.3756 9.49757 23.5125H2.14209V15.2458H10.4089V22.0451L10.5944 22.0443L13.9725 15.2458H20.2245V22.0019L20.4099 22.0016L23.9148 15.2456H33.0596ZM86.8565 32.4027H89.5189V17.1206H86.8565V32.4027ZM72.1789 32.2466C72.7575 32.4872 73.3459 32.6075 73.9441 32.6075C74.9323 32.6075 75.8165 32.367 76.5967 31.8858C77.3768 31.4047 77.9816 30.7416 78.4107 29.8963C78.8398 29.0447 79.0543 28.0791 79.0543 26.9998C79.0543 25.9206 78.8332 24.9551 78.3912 24.1034C77.949 23.2517 77.3346 22.5918 76.5479 22.1237C75.7612 21.649 74.8672 21.415 73.866 21.4215C73.2289 21.4215 72.6177 21.545 72.0325 21.7921C71.4474 22.0391 70.9598 22.3902 70.5697 22.8453C70.5396 22.88 70.5103 22.915 70.4819 22.9503V17.1304H67.8098V32.4028H70.4624L70.4571 30.976C70.5257 31.0601 70.5991 31.1423 70.6769 31.2227C71.0995 31.6583 71.6002 31.9996 72.1789 32.2466ZM74.9095 29.7793C74.4739 30.0459 73.9765 30.1792 73.4174 30.1792C72.8647 30.1792 72.3576 30.0426 71.896 29.7696C71.4343 29.49 71.0671 29.1097 70.7939 28.6285C70.5274 28.1474 70.3941 27.6012 70.3941 26.9901C70.3877 26.3789 70.5176 25.8328 70.7842 25.3517C71.0573 24.8641 71.4246 24.487 71.8863 24.2204C72.3478 23.9474 72.8583 23.8141 73.4174 23.8206C73.9765 23.8141 74.4739 23.9441 74.9095 24.2107C75.3516 24.4707 75.6897 24.8446 75.9238 25.3322C76.1643 25.8133 76.2846 26.366 76.2846 26.9901C76.2846 27.6143 76.1643 28.1669 75.9238 28.648C75.6897 29.1292 75.3516 29.5062 74.9095 29.7793ZM36.9166 18.0471H39.9594L42.6812 27.9875L45.5768 18.0471H48.1124L51.2527 27.788L53.8664 18.0471H56.6555L52.54 32.4027H49.9166L46.7233 22.8867L43.7921 32.4027H41.1394L36.9166 18.0471ZM61.1492 32.6562C60.0893 32.6627 59.1336 32.4286 58.2819 31.9541C57.4367 31.4729 56.7703 30.8065 56.2826 29.9548C55.8016 29.1031 55.561 28.1311 55.561 27.0388C55.561 25.979 55.8081 25.0201 56.3022 24.1619C56.7963 23.3037 57.4659 22.634 58.3112 22.1529C59.1564 21.6718 60.0991 21.4312 61.1393 21.4312C62.3097 21.4312 63.3336 21.6913 64.2113 22.2114C65.0956 22.7315 65.7555 23.4695 66.1911 24.4252C66.6332 25.3744 66.7925 26.4634 66.669 27.6923H58.3154C58.3387 28.1818 58.4609 28.6272 58.6818 29.0283C58.9289 29.4704 59.2734 29.815 59.7155 30.0621C60.1577 30.3091 60.6517 30.4327 61.1979 30.4327C61.614 30.4261 62.0009 30.3547 62.3584 30.2182C62.7161 30.0751 63.0183 29.8833 63.2654 29.6427C63.519 29.4022 63.6978 29.1292 63.8018 28.8236H66.591C66.4219 29.5712 66.0839 30.2377 65.5768 30.8228C65.0696 31.4015 64.4325 31.8533 63.6652 32.1783C62.8981 32.5034 62.0594 32.6627 61.1492 32.6562ZM58.6915 25.0103C58.5358 25.282 58.4277 25.5746 58.3676 25.8881H63.9051C63.865 25.4921 63.7427 25.1312 63.5385 24.8055C63.3044 24.4219 62.9858 24.1261 62.5828 23.9181C62.1797 23.7035 61.7246 23.5962 61.2174 23.5962C60.6778 23.5962 60.1869 23.7198 59.7448 23.9668C59.3027 24.2139 58.9516 24.5617 58.6915 25.0103ZM81.0148 21.6555C81.0148 20.7843 81.2131 20.0106 81.6097 19.3344C82.0062 18.6518 82.5622 18.1219 83.2774 17.7448C83.999 17.3612 84.841 17.1629 85.8032 17.1499V19.5197C85.3546 19.5262 84.971 19.6205 84.6525 19.8026C84.3404 19.9781 84.0998 20.2349 83.9307 20.573C83.7752 20.8843 83.6912 21.2451 83.6789 21.6555H85.7447V23.9083H83.6773V32.4027H81.0148V23.9083H79.2984V21.6555H81.0148ZM96.2867 32.6367C95.2009 32.6367 94.2289 32.3993 93.3707 31.9248C92.519 31.4436 91.8493 30.7805 91.3617 29.9353C90.8805 29.0836 90.64 28.1181 90.64 27.0387C90.64 25.9531 90.8805 24.9843 91.3617 24.1326C91.8493 23.2744 92.519 22.6079 93.3707 22.1333C94.2289 21.6587 95.2009 21.4214 96.2867 21.4214C97.3789 21.4214 98.3542 21.6587 99.2123 22.1333C100.077 22.6079 100.75 23.2711 101.231 24.1228C101.712 24.9745 101.956 25.9465 101.963 27.0387C101.956 28.1181 101.712 29.0836 101.231 29.9353C100.757 30.7805 100.087 31.4436 99.2221 31.9248C98.3574 32.3993 97.3789 32.6367 96.2867 32.6367ZM96.2867 30.1889C96.8588 30.1889 97.3659 30.0588 97.808 29.7988C98.2502 29.5322 98.5914 29.1616 98.8321 28.6869C99.0726 28.2059 99.1928 27.6564 99.1928 27.0387C99.1928 26.4146 99.0726 25.862 98.8321 25.3809C98.5914 24.8998 98.2502 24.5292 97.808 24.2691C97.3659 24.0025 96.8588 23.8693 96.2867 23.8693C95.7211 23.8693 95.2172 24.0025 94.775 24.2691C94.3395 24.5292 94.0013 24.8998 93.7608 25.3809C93.5202 25.862 93.4032 26.4146 93.4097 27.0387C93.4097 27.6564 93.53 28.2059 93.7705 28.6869C94.0176 29.1616 94.3556 29.5322 94.7848 29.7988C95.2204 30.0588 95.7211 30.1889 96.2867 30.1889ZM104.84 21.6555H101.875L105.083 32.4027H107.678L109.788 25.5385L112.066 32.4027H114.621L117.84 21.6555H115.158L113.332 28.345L111.315 21.6555H108.721L106.713 28.4923L104.84 21.6555Z" fill="black"/>
<path d="M33.0596 15.2456L23.1943 34.5314H13.9279L18.0565 26.5385H17.8713C14.4652 30.9601 9.38316 33.8709 2.14209 34.5314V26.6492C2.14209 26.6492 6.77438 26.3756 9.49757 23.5125H2.14209V15.2458H10.4089V22.0451L10.5944 22.0443L13.9725 15.2458H20.2245V22.0019L20.4099 22.0016L23.9148 15.2456H33.0596ZM86.8565 32.4027H89.5189V17.1206H86.8565V32.4027ZM72.1789 32.2466C72.7575 32.4872 73.3459 32.6075 73.9441 32.6075C74.9323 32.6075 75.8165 32.367 76.5967 31.8858C77.3768 31.4047 77.9816 30.7416 78.4107 29.8963C78.8398 29.0447 79.0543 28.0791 79.0543 26.9998C79.0543 25.9206 78.8332 24.9551 78.3912 24.1034C77.949 23.2517 77.3346 22.5918 76.5479 22.1237C75.7612 21.649 74.8672 21.415 73.866 21.4215C73.2289 21.4215 72.6177 21.545 72.0325 21.7921C71.4474 22.0391 70.9598 22.3902 70.5697 22.8453C70.5396 22.88 70.5103 22.915 70.4819 22.9503V17.1304H67.8098V32.4028H70.4624L70.4571 30.976C70.5257 31.0601 70.5991 31.1423 70.6769 31.2227C71.0995 31.6583 71.6002 31.9996 72.1789 32.2466ZM74.9095 29.7793C74.4739 30.0459 73.9765 30.1792 73.4174 30.1792C72.8647 30.1792 72.3576 30.0426 71.896 29.7696C71.4343 29.49 71.0671 29.1097 70.7939 28.6285C70.5274 28.1474 70.3941 27.6012 70.3941 26.9901C70.3877 26.3789 70.5176 25.8328 70.7842 25.3517C71.0573 24.8641 71.4246 24.487 71.8863 24.2204C72.3478 23.9474 72.8583 23.8141 73.4174 23.8206C73.9765 23.8141 74.4739 23.9441 74.9095 24.2107C75.3516 24.4707 75.6897 24.8446 75.9238 25.3322C76.1643 25.8133 76.2846 26.366 76.2846 26.9901C76.2846 27.6143 76.1643 28.1669 75.9238 28.648C75.6897 29.1292 75.3516 29.5062 74.9095 29.7793ZM36.9166 18.0471H39.9594L42.6812 27.9875L45.5768 18.0471H48.1124L51.2527 27.788L53.8664 18.0471H56.6555L52.54 32.4027H49.9166L46.7233 22.8867L43.7921 32.4027H41.1394L36.9166 18.0471ZM61.1492 32.6562C60.0893 32.6627 59.1336 32.4286 58.2819 31.9541C57.4367 31.4729 56.7703 30.8065 56.2826 29.9548C55.8016 29.1031 55.561 28.1311 55.561 27.0388C55.561 25.979 55.8081 25.0201 56.3022 24.1619C56.7963 23.3037 57.4659 22.634 58.3112 22.1529C59.1564 21.6718 60.0991 21.4312 61.1393 21.4312C62.3097 21.4312 63.3336 21.6913 64.2113 22.2114C65.0956 22.7315 65.7555 23.4695 66.1911 24.4252C66.6332 25.3744 66.7925 26.4634 66.669 27.6923H58.3154C58.3387 28.1818 58.4609 28.6272 58.6818 29.0283C58.9289 29.4704 59.2734 29.815 59.7155 30.0621C60.1577 30.3091 60.6517 30.4327 61.1979 30.4327C61.614 30.4261 62.0009 30.3547 62.3584 30.2182C62.7161 30.0751 63.0183 29.8833 63.2654 29.6427C63.519 29.4022 63.6978 29.1292 63.8018 28.8236H66.591C66.4219 29.5712 66.0839 30.2377 65.5768 30.8228C65.0696 31.4015 64.4325 31.8533 63.6652 32.1783C62.8981 32.5034 62.0594 32.6627 61.1492 32.6562ZM58.6915 25.0103C58.5358 25.282 58.4277 25.5746 58.3676 25.8881H63.9051C63.865 25.4921 63.7427 25.1312 63.5385 24.8055C63.3044 24.4219 62.9858 24.1261 62.5828 23.9181C62.1797 23.7035 61.7246 23.5962 61.2174 23.5962C60.6778 23.5962 60.1869 23.7198 59.7448 23.9668C59.3027 24.2139 58.9516 24.5617 58.6915 25.0103ZM81.0148 21.6555C81.0148 20.7843 81.2131 20.0106 81.6097 19.3344C82.0062 18.6518 82.5622 18.1219 83.2774 17.7448C83.999 17.3612 84.841 17.1629 85.8032 17.1499V19.5197C85.3546 19.5262 84.971 19.6205 84.6525 19.8026C84.3404 19.9781 84.0998 20.2349 83.9307 20.573C83.7752 20.8843 83.6912 21.2451 83.6789 21.6555H85.7447V23.9083H83.6773V32.4027H81.0148V23.9083H79.2984V21.6555H81.0148ZM96.2867 32.6367C95.2009 32.6367 94.2289 32.3993 93.3707 31.9248C92.519 31.4436 91.8493 30.7805 91.3617 29.9353C90.8805 29.0836 90.64 28.1181 90.64 27.0387C90.64 25.9531 90.8805 24.9843 91.3617 24.1326C91.8493 23.2744 92.519 22.6079 93.3707 22.1333C94.2289 21.6587 95.2009 21.4214 96.2867 21.4214C97.3789 21.4214 98.3542 21.6587 99.2123 22.1333C100.077 22.6079 100.75 23.2711 101.231 24.1228C101.712 24.9745 101.956 25.9465 101.963 27.0387C101.956 28.1181 101.712 29.0836 101.231 29.9353C100.757 30.7805 100.087 31.4436 99.2221 31.9248C98.3574 32.3993 97.3789 32.6367 96.2867 32.6367ZM96.2867 30.1889C96.8588 30.1889 97.3659 30.0588 97.808 29.7988C98.2502 29.5322 98.5914 29.1616 98.8321 28.6869C99.0726 28.2059 99.1928 27.6564 99.1928 27.0387C99.1928 26.4146 99.0726 25.862 98.8321 25.3809C98.5914 24.8998 98.2502 24.5292 97.808 24.2691C97.3659 24.0025 96.8588 23.8693 96.2867 23.8693C95.7211 23.8693 95.2172 24.0025 94.775 24.2691C94.3395 24.5292 94.0013 24.8998 93.7608 25.3809C93.5202 25.862 93.4032 26.4146 93.4097 27.0387C93.4097 27.6564 93.53 28.2059 93.7705 28.6869C94.0176 29.1616 94.3556 29.5322 94.7848 29.7988C95.2204 30.0588 95.7211 30.1889 96.2867 30.1889ZM104.84 21.6555H101.875L105.083 32.4027H107.678L109.788 25.5385L112.066 32.4027H114.621L117.84 21.6555H115.158L113.332 28.345L111.315 21.6555H108.721L106.713 28.4923L104.84 21.6555Z" fill="black"/>
<path fill-rule="evenodd" clip-rule="evenodd" d="M33.0596 15.2456L23.1943 34.5314H13.9279L18.0565 26.5385H17.8713C14.4652 30.9601 9.38316 33.8709 2.14209 34.5314V26.6492C2.14209 26.6492 6.77438 26.3756 9.49757 23.5125H2.14209V15.2458H10.4089V22.0451L10.5944 22.0443L13.9725 15.2458H20.2245V22.0019L20.4099 22.0016L23.9148 15.2456H33.0596ZM86.8565 32.4027H89.5189V17.1206H86.8565V32.4027ZM72.1789 32.2466C72.7575 32.4872 73.3459 32.6075 73.9441 32.6075C74.9323 32.6075 75.8165 32.367 76.5967 31.8858C77.3768 31.4047 77.9816 30.7416 78.4107 29.8963C78.8398 29.0447 79.0543 28.0791 79.0543 26.9998C79.0543 25.9206 78.8332 24.9551 78.3912 24.1034C77.949 23.2517 77.3346 22.5918 76.5479 22.1237C75.7612 21.649 74.8672 21.415 73.866 21.4215C73.2289 21.4215 72.6177 21.545 72.0325 21.7921C71.4474 22.0391 70.9598 22.3902 70.5697 22.8453C70.5396 22.88 70.5103 22.915 70.4819 22.9503V17.1304H67.8098V32.4028H70.4624L70.4571 30.976C70.5257 31.0601 70.5991 31.1423 70.6769 31.2227C71.0995 31.6583 71.6002 31.9996 72.1789 32.2466ZM74.9095 29.7793C74.4739 30.0459 73.9765 30.1792 73.4174 30.1792C72.8647 30.1792 72.3576 30.0426 71.896 29.7696C71.4343 29.49 71.0671 29.1097 70.7939 28.6285C70.5274 28.1474 70.3941 27.6012 70.3941 26.9901C70.3877 26.3789 70.5176 25.8328 70.7842 25.3517C71.0573 24.8641 71.4246 24.487 71.8863 24.2204C72.3478 23.9474 72.8583 23.8141 73.4174 23.8206C73.9765 23.8141 74.4739 23.9441 74.9095 24.2107C75.3516 24.4707 75.6897 24.8446 75.9238 25.3322C76.1643 25.8133 76.2846 26.366 76.2846 26.9901C76.2846 27.6143 76.1643 28.1669 75.9238 28.648C75.6897 29.1292 75.3516 29.5062 74.9095 29.7793ZM36.9166 18.0471H39.9594L42.6812 27.9875L45.5768 18.0471H48.1124L51.2527 27.788L53.8664 18.0471H56.6555L52.54 32.4027H49.9166L46.7233 22.8867L43.7921 32.4027H41.1394L36.9166 18.0471ZM61.1492 32.6562C60.0893 32.6627 59.1336 32.4286 58.2819 31.9541C57.4367 31.4729 56.7703 30.8065 56.2826 29.9548C55.8016 29.1031 55.561 28.1311 55.561 27.0388C55.561 25.979 55.8081 25.0201 56.3022 24.1619C56.7963 23.3037 57.4659 22.634 58.3112 22.1529C59.1564 21.6718 60.0991 21.4312 61.1393 21.4312C62.3097 21.4312 63.3336 21.6913 64.2113 22.2114C65.0956 22.7315 65.7555 23.4695 66.1911 24.4252C66.6332 25.3744 66.7925 26.4634 66.669 27.6923H58.3154C58.3387 28.1818 58.4609 28.6272 58.6818 29.0283C58.9289 29.4704 59.2734 29.815 59.7155 30.0621C60.1577 30.3091 60.6517 30.4327 61.1979 30.4327C61.614 30.4261 62.0009 30.3547 62.3584 30.2182C62.7161 30.0751 63.0183 29.8833 63.2654 29.6427C63.519 29.4022 63.6978 29.1292 63.8018 28.8236H66.591C66.4219 29.5712 66.0839 30.2377 65.5768 30.8228C65.0696 31.4015 64.4325 31.8533 63.6652 32.1783C62.8981 32.5034 62.0594 32.6627 61.1492 32.6562ZM58.6915 25.0103C58.5358 25.282 58.4277 25.5746 58.3676 25.8881H63.9051C63.865 25.4921 63.7427 25.1312 63.5385 24.8055C63.3044 24.4219 62.9858 24.1261 62.5828 23.9181C62.1797 23.7035 61.7246 23.5962 61.2174 23.5962C60.6778 23.5962 60.1869 23.7198 59.7448 23.9668C59.3027 24.2139 58.9516 24.5617 58.6915 25.0103ZM81.0148 21.6555C81.0148 20.7843 81.2131 20.0106 81.6097 19.3344C82.0062 18.6518 82.5622 18.1219 83.2774 17.7448C83.999 17.3612 84.841 17.1629 85.8032 17.1499V19.5197C85.3546 19.5262 84.971 19.6205 84.6525 19.8026C84.3404 19.9781 84.0998 20.2349 83.9307 20.573C83.7752 20.8843 83.6912 21.2451 83.6789 21.6555H85.7447V23.9083H83.6773V32.4027H81.0148V23.9083H79.2984V21.6555H81.0148ZM96.2867 32.6367C95.2009 32.6367 94.2289 32.3993 93.3707 31.9248C92.519 31.4436 91.8493 30.7805 91.3617 29.9353C90.8805 29.0836 90.64 28.1181 90.64 27.0387C90.64 25.9531 90.8805 24.9843 91.3617 24.1326C91.8493 23.2744 92.519 22.6079 93.3707 22.1333C94.2289 21.6587 95.2009 21.4214 96.2867 21.4214C97.3789 21.4214 98.3542 21.6587 99.2123 22.1333C100.077 22.6079 100.75 23.2711 101.231 24.1228C101.712 24.9745 101.956 25.9465 101.963 27.0387C101.956 28.1181 101.712 29.0836 101.231 29.9353C100.757 30.7805 100.087 31.4436 99.2221 31.9248C98.3574 32.3993 97.3789 32.6367 96.2867 32.6367ZM96.2867 30.1889C96.8588 30.1889 97.3659 30.0588 97.808 29.7988C98.2502 29.5322 98.5914 29.1616 98.8321 28.6869C99.0726 28.2059 99.1928 27.6564 99.1928 27.0387C99.1928 26.4146 99.0726 25.862 98.8321 25.3809C98.5914 24.8998 98.2502 24.5292 97.808 24.2691C97.3659 24.0025 96.8588 23.8693 96.2867 23.8693C95.7211 23.8693 95.2172 24.0025 94.775 24.2691C94.3395 24.5292 94.0013 24.8998 93.7608 25.3809C93.5202 25.862 93.4032 26.4146 93.4097 27.0387C93.4097 27.6564 93.53 28.2059 93.7705 28.6869C94.0176 29.1616 94.3556 29.5322 94.7848 29.7988C95.2204 30.0588 95.7211 30.1889 96.2867 30.1889ZM104.84 21.6555H101.875L105.083 32.4027H107.678L109.788 25.5385L112.066 32.4027H114.621L117.84 21.6555H115.158L113.332 28.345L111.315 21.6555H108.721L106.713 28.4923L104.84 21.6555Z" fill="black"/>
<path d="M33.0596 15.2456L23.1943 34.5314H13.9279L18.0565 26.5385H17.8713C14.4652 30.9601 9.38316 33.8709 2.14209 34.5314V26.6492C2.14209 26.6492 6.77438 26.3756 9.49757 23.5125H2.14209V15.2458H10.4089V22.0451L10.5944 22.0443L13.9725 15.2458H20.2245V22.0019L20.4099 22.0016L23.9148 15.2456H33.0596ZM86.8565 32.4027H89.5189V17.1206H86.8565V32.4027ZM72.1789 32.2466C72.7575 32.4872 73.3459 32.6075 73.9441 32.6075C74.9323 32.6075 75.8165 32.367 76.5967 31.8858C77.3768 31.4047 77.9816 30.7416 78.4107 29.8963C78.8398 29.0447 79.0543 28.0791 79.0543 26.9998C79.0543 25.9206 78.8332 24.9551 78.3912 24.1034C77.949 23.2517 77.3346 22.5918 76.5479 22.1237C75.7612 21.649 74.8672 21.415 73.866 21.4215C73.2289 21.4215 72.6177 21.545 72.0325 21.7921C71.4474 22.0391 70.9598 22.3902 70.5697 22.8453C70.5396 22.88 70.5103 22.915 70.4819 22.9503V17.1304H67.8098V32.4028H70.4624L70.4571 30.976C70.5257 31.0601 70.5991 31.1423 70.6769 31.2227C71.0995 31.6583 71.6002 31.9996 72.1789 32.2466ZM74.9095 29.7793C74.4739 30.0459 73.9765 30.1792 73.4174 30.1792C72.8647 30.1792 72.3576 30.0426 71.896 29.7696C71.4343 29.49 71.0671 29.1097 70.7939 28.6285C70.5274 28.1474 70.3941 27.6012 70.3941 26.9901C70.3877 26.3789 70.5176 25.8328 70.7842 25.3517C71.0573 24.8641 71.4246 24.487 71.8863 24.2204C72.3478 23.9474 72.8583 23.8141 73.4174 23.8206C73.9765 23.8141 74.4739 23.9441 74.9095 24.2107C75.3516 24.4707 75.6897 24.8446 75.9238 25.3322C76.1643 25.8133 76.2846 26.366 76.2846 26.9901C76.2846 27.6143 76.1643 28.1669 75.9238 28.648C75.6897 29.1292 75.3516 29.5062 74.9095 29.7793ZM36.9166 18.0471H39.9594L42.6812 27.9875L45.5768 18.0471H48.1124L51.2527 27.788L53.8664 18.0471H56.6555L52.54 32.4027H49.9166L46.7233 22.8867L43.7921 32.4027H41.1394L36.9166 18.0471ZM61.1492 32.6562C60.0893 32.6627 59.1336 32.4286 58.2819 31.9541C57.4367 31.4729 56.7703 30.8065 56.2826 29.9548C55.8016 29.1031 55.561 28.1311 55.561 27.0388C55.561 25.979 55.8081 25.0201 56.3022 24.1619C56.7963 23.3037 57.4659 22.634 58.3112 22.1529C59.1564 21.6718 60.0991 21.4312 61.1393 21.4312C62.3097 21.4312 63.3336 21.6913 64.2113 22.2114C65.0956 22.7315 65.7555 23.4695 66.1911 24.4252C66.6332 25.3744 66.7925 26.4634 66.669 27.6923H58.3154C58.3387 28.1818 58.4609 28.6272 58.6818 29.0283C58.9289 29.4704 59.2734 29.815 59.7155 30.0621C60.1577 30.3091 60.6517 30.4327 61.1979 30.4327C61.614 30.4261 62.0009 30.3547 62.3584 30.2182C62.7161 30.0751 63.0183 29.8833 63.2654 29.6427C63.519 29.4022 63.6978 29.1292 63.8018 28.8236H66.591C66.4219 29.5712 66.0839 30.2377 65.5768 30.8228C65.0696 31.4015 64.4325 31.8533 63.6652 32.1783C62.8981 32.5034 62.0594 32.6627 61.1492 32.6562ZM58.6915 25.0103C58.5358 25.282 58.4277 25.5746 58.3676 25.8881H63.9051C63.865 25.4921 63.7427 25.1312 63.5385 24.8055C63.3044 24.4219 62.9858 24.1261 62.5828 23.9181C62.1797 23.7035 61.7246 23.5962 61.2174 23.5962C60.6778 23.5962 60.1869 23.7198 59.7448 23.9668C59.3027 24.2139 58.9516 24.5617 58.6915 25.0103ZM81.0148 21.6555C81.0148 20.7843 81.2131 20.0106 81.6097 19.3344C82.0062 18.6518 82.5622 18.1219 83.2774 17.7448C83.999 17.3612 84.841 17.1629 85.8032 17.1499V19.5197C85.3546 19.5262 84.971 19.6205 84.6525 19.8026C84.3404 19.9781 84.0998 20.2349 83.9307 20.573C83.7752 20.8843 83.6912 21.2451 83.6789 21.6555H85.7447V23.9083H83.6773V32.4027H81.0148V23.9083H79.2984V21.6555H81.0148ZM96.2867 32.6367C95.2009 32.6367 94.2289 32.3993 93.3707 31.9248C92.519 31.4436 91.8493 30.7805 91.3617 29.9353C90.8805 29.0836 90.64 28.1181 90.64 27.0387C90.64 25.9531 90.8805 24.9843 91.3617 24.1326C91.8493 23.2744 92.519 22.6079 93.3707 22.1333C94.2289 21.6587 95.2009 21.4214 96.2867 21.4214C97.3789 21.4214 98.3542 21.6587 99.2123 22.1333C100.077 22.6079 100.75 23.2711 101.231 24.1228C101.712 24.9745 101.956 25.9465 101.963 27.0387C101.956 28.1181 101.712 29.0836 101.231 29.9353C100.757 30.7805 100.087 31.4436 99.2221 31.9248C98.3574 32.3993 97.3789 32.6367 96.2867 32.6367ZM96.2867 30.1889C96.8588 30.1889 97.3659 30.0588 97.808 29.7988C98.2502 29.5322 98.5914 29.1616 98.8321 28.6869C99.0726 28.2059 99.1928 27.6564 99.1928 27.0387C99.1928 26.4146 99.0726 25.862 98.8321 25.3809C98.5914 24.8998 98.2502 24.5292 97.808 24.2691C97.3659 24.0025 96.8588 23.8693 96.2867 23.8693C95.7211 23.8693 95.2172 24.0025 94.775 24.2691C94.3395 24.5292 94.0013 24.8998 93.7608 25.3809C93.5202 25.862 93.4032 26.4146 93.4097 27.0387C93.4097 27.6564 93.53 28.2059 93.7705 28.6869C94.0176 29.1616 94.3556 29.5322 94.7848 29.7988C95.2204 30.0588 95.7211 30.1889 96.2867 30.1889ZM104.84 21.6555H101.875L105.083 32.4027H107.678L109.788 25.5385L112.066 32.4027H114.621L117.84 21.6555H115.158L113.332 28.345L111.315 21.6555H108.721L106.713 28.4923L104.84 21.6555Z" fill="black"/>
<path fill-rule="evenodd" clip-rule="evenodd" d="M33.0596 15.2456L23.1943 34.5314H13.9279L18.0565 26.5385H17.8713C14.4652 30.9601 9.38316 33.8709 2.14209 34.5314V26.6492C2.14209 26.6492 6.77438 26.3756 9.49757 23.5125H2.14209V15.2458H10.4089V22.0451L10.5944 22.0443L13.9725 15.2458H20.2245V22.0019L20.4099 22.0016L23.9148 15.2456H33.0596ZM86.8565 32.4027H89.5189V17.1206H86.8565V32.4027ZM72.1789 32.2466C72.7575 32.4872 73.3459 32.6075 73.9441 32.6075C74.9323 32.6075 75.8165 32.367 76.5967 31.8858C77.3768 31.4047 77.9816 30.7416 78.4107 29.8963C78.8398 29.0447 79.0543 28.0791 79.0543 26.9998C79.0543 25.9206 78.8332 24.9551 78.3912 24.1034C77.949 23.2517 77.3346 22.5918 76.5479 22.1237C75.7612 21.649 74.8672 21.415 73.866 21.4215C73.2289 21.4215 72.6177 21.545 72.0325 21.7921C71.4474 22.0391 70.9598 22.3902 70.5697 22.8453C70.5396 22.88 70.5103 22.915 70.4819 22.9503V17.1304H67.8098V32.4028H70.4624L70.4571 30.976C70.5257 31.0601 70.5991 31.1423 70.6769 31.2227C71.0995 31.6583 71.6002 31.9996 72.1789 32.2466ZM74.9095 29.7793C74.4739 30.0459 73.9765 30.1792 73.4174 30.1792C72.8647 30.1792 72.3576 30.0426 71.896 29.7696C71.4343 29.49 71.0671 29.1097 70.7939 28.6285C70.5274 28.1474 70.3941 27.6012 70.3941 26.9901C70.3877 26.3789 70.5176 25.8328 70.7842 25.3517C71.0573 24.8641 71.4246 24.487 71.8863 24.2204C72.3478 23.9474 72.8583 23.8141 73.4174 23.8206C73.9765 23.8141 74.4739 23.9441 74.9095 24.2107C75.3516 24.4707 75.6897 24.8446 75.9238 25.3322C76.1643 25.8133 76.2846 26.366 76.2846 26.9901C76.2846 27.6143 76.1643 28.1669 75.9238 28.648C75.6897 29.1292 75.3516 29.5062 74.9095 29.7793ZM36.9166 18.0471H39.9594L42.6812 27.9875L45.5768 18.0471H48.1124L51.2527 27.788L53.8664 18.0471H56.6555L52.54 32.4027H49.9166L46.7233 22.8867L43.7921 32.4027H41.1394L36.9166 18.0471ZM61.1492 32.6562C60.0893 32.6627 59.1336 32.4286 58.2819 31.9541C57.4367 31.4729 56.7703 30.8065 56.2826 29.9548C55.8016 29.1031 55.561 28.1311 55.561 27.0388C55.561 25.979 55.8081 25.0201 56.3022 24.1619C56.7963 23.3037 57.4659 22.634 58.3112 22.1529C59.1564 21.6718 60.0991 21.4312 61.1393 21.4312C62.3097 21.4312 63.3336 21.6913 64.2113 22.2114C65.0956 22.7315 65.7555 23.4695 66.1911 24.4252C66.6332 25.3744 66.7925 26.4634 66.669 27.6923H58.3154C58.3387 28.1818 58.4609 28.6272 58.6818 29.0283C58.9289 29.4704 59.2734 29.815 59.7155 30.0621C60.1577 30.3091 60.6517 30.4327 61.1979 30.4327C61.614 30.4261 62.0009 30.3547 62.3584 30.2182C62.7161 30.0751 63.0183 29.8833 63.2654 29.6427C63.519 29.4022 63.6978 29.1292 63.8018 28.8236H66.591C66.4219 29.5712 66.0839 30.2377 65.5768 30.8228C65.0696 31.4015 64.4325 31.8533 63.6652 32.1783C62.8981 32.5034 62.0594 32.6627 61.1492 32.6562ZM58.6915 25.0103C58.5358 25.282 58.4277 25.5746 58.3676 25.8881H63.9051C63.865 25.4921 63.7427 25.1312 63.5385 24.8055C63.3044 24.4219 62.9858 24.1261 62.5828 23.9181C62.1797 23.7035 61.7246 23.5962 61.2174 23.5962C60.6778 23.5962 60.1869 23.7198 59.7448 23.9668C59.3027 24.2139 58.9516 24.5617 58.6915 25.0103ZM81.0148 21.6555C81.0148 20.7843 81.2131 20.0106 81.6097 19.3344C82.0062 18.6518 82.5622 18.1219 83.2774 17.7448C83.999 17.3612 84.841 17.1629 85.8032 17.1499V19.5197C85.3546 19.5262 84.971 19.6205 84.6525 19.8026C84.3404 19.9781 84.0998 20.2349 83.9307 20.573C83.7752 20.8843 83.6912 21.2451 83.6789 21.6555H85.7447V23.9083H83.6773V32.4027H81.0148V23.9083H79.2984V21.6555H81.0148ZM96.2867 32.6367C95.2009 32.6367 94.2289 32.3993 93.3707 31.9248C92.519 31.4436 91.8493 30.7805 91.3617 29.9353C90.8805 29.0836 90.64 28.1181 90.64 27.0387C90.64 25.9531 90.8805 24.9843 91.3617 24.1326C91.8493 23.2744 92.519 22.6079 93.3707 22.1333C94.2289 21.6587 95.2009 21.4214 96.2867 21.4214C97.3789 21.4214 98.3542 21.6587 99.2123 22.1333C100.077 22.6079 100.75 23.2711 101.231 24.1228C101.712 24.9745 101.956 25.9465 101.963 27.0387C101.956 28.1181 101.712 29.0836 101.231 29.9353C100.757 30.7805 100.087 31.4436 99.2221 31.9248C98.3574 32.3993 97.3789 32.6367 96.2867 32.6367ZM96.2867 30.1889C96.8588 30.1889 97.3659 30.0588 97.808 29.7988C98.2502 29.5322 98.5914 29.1616 98.8321 28.6869C99.0726 28.2059 99.1928 27.6564 99.1928 27.0387C99.1928 26.4146 99.0726 25.862 98.8321 25.3809C98.5914 24.8998 98.2502 24.5292 97.808 24.2691C97.3659 24.0025 96.8588 23.8693 96.2867 23.8693C95.7211 23.8693 95.2172 24.0025 94.775 24.2691C94.3395 24.5292 94.0013 24.8998 93.7608 25.3809C93.5202 25.862 93.4032 26.4146 93.4097 27.0387C93.4097 27.6564 93.53 28.2059 93.7705 28.6869C94.0176 29.1616 94.3556 29.5322 94.7848 29.7988C95.2204 30.0588 95.7211 30.1889 96.2867 30.1889ZM104.84 21.6555H101.875L105.083 32.4027H107.678L109.788 25.5385L112.066 32.4027H114.621L117.84 21.6555H115.158L113.332 28.345L111.315 21.6555H108.721L106.713 28.4923L104.84 21.6555Z" fill="black"/>
<path d="M33.0596 15.2456L23.1943 34.5314H13.9279L18.0565 26.5385H17.8713C14.4652 30.9601 9.38316 33.8709 2.14209 34.5314V26.6492C2.14209 26.6492 6.77438 26.3756 9.49757 23.5125H2.14209V15.2458H10.4089V22.0451L10.5944 22.0443L13.9725 15.2458H20.2245V22.0019L20.4099 22.0016L23.9148 15.2456H33.0596ZM86.8565 32.4027H89.5189V17.1206H86.8565V32.4027ZM72.1789 32.2466C72.7575 32.4872 73.3459 32.6075 73.9441 32.6075C74.9323 32.6075 75.8165 32.367 76.5967 31.8858C77.3768 31.4047 77.9816 30.7416 78.4107 29.8963C78.8398 29.0447 79.0543 28.0791 79.0543 26.9998C79.0543 25.9206 78.8332 24.9551 78.3912 24.1034C77.949 23.2517 77.3346 22.5918 76.5479 22.1237C75.7612 21.649 74.8672 21.415 73.866 21.4215C73.2289 21.4215 72.6177 21.545 72.0325 21.7921C71.4474 22.0391 70.9598 22.3902 70.5697 22.8453C70.5396 22.88 70.5103 22.915 70.4819 22.9503V17.1304H67.8098V32.4028H70.4624L70.4571 30.976C70.5257 31.0601 70.5991 31.1423 70.6769 31.2227C71.0995 31.6583 71.6002 31.9996 72.1789 32.2466ZM74.9095 29.7793C74.4739 30.0459 73.9765 30.1792 73.4174 30.1792C72.8647 30.1792 72.3576 30.0426 71.896 29.7696C71.4343 29.49 71.0671 29.1097 70.7939 28.6285C70.5274 28.1474 70.3941 27.6012 70.3941 26.9901C70.3877 26.3789 70.5176 25.8328 70.7842 25.3517C71.0573 24.8641 71.4246 24.487 71.8863 24.2204C72.3478 23.9474 72.8583 23.8141 73.4174 23.8206C73.9765 23.8141 74.4739 23.9441 74.9095 24.2107C75.3516 24.4707 75.6897 24.8446 75.9238 25.3322C76.1643 25.8133 76.2846 26.366 76.2846 26.9901C76.2846 27.6143 76.1643 28.1669 75.9238 28.648C75.6897 29.1292 75.3516 29.5062 74.9095 29.7793ZM36.9166 18.0471H39.9594L42.6812 27.9875L45.5768 18.0471H48.1124L51.2527 27.788L53.8664 18.0471H56.6555L52.54 32.4027H49.9166L46.7233 22.8867L43.7921 32.4027H41.1394L36.9166 18.0471ZM61.1492 32.6562C60.0893 32.6627 59.1336 32.4286 58.2819 31.9541C57.4367 31.4729 56.7703 30.8065 56.2826 29.9548C55.8016 29.1031 55.561 28.1311 55.561 27.0388C55.561 25.979 55.8081 25.0201 56.3022 24.1619C56.7963 23.3037 57.4659 22.634 58.3112 22.1529C59.1564 21.6718 60.0991 21.4312 61.1393 21.4312C62.3097 21.4312 63.3336 21.6913 64.2113 22.2114C65.0956 22.7315 65.7555 23.4695 66.1911 24.4252C66.6332 25.3744 66.7925 26.4634 66.669 27.6923H58.3154C58.3387 28.1818 58.4609 28.6272 58.6818 29.0283C58.9289 29.4704 59.2734 29.815 59.7155 30.0621C60.1577 30.3091 60.6517 30.4327 61.1979 30.4327C61.614 30.4261 62.0009 30.3547 62.3584 30.2182C62.7161 30.0751 63.0183 29.8833 63.2654 29.6427C63.519 29.4022 63.6978 29.1292 63.8018 28.8236H66.591C66.4219 29.5712 66.0839 30.2377 65.5768 30.8228C65.0696 31.4015 64.4325 31.8533 63.6652 32.1783C62.8981 32.5034 62.0594 32.6627 61.1492 32.6562ZM58.6915 25.0103C58.5358 25.282 58.4277 25.5746 58.3676 25.8881H63.9051C63.865 25.4921 63.7427 25.1312 63.5385 24.8055C63.3044 24.4219 62.9858 24.1261 62.5828 23.9181C62.1797 23.7035 61.7246 23.5962 61.2174 23.5962C60.6778 23.5962 60.1869 23.7198 59.7448 23.9668C59.3027 24.2139 58.9516 24.5617 58.6915 25.0103ZM81.0148 21.6555C81.0148 20.7843 81.2131 20.0106 81.6097 19.3344C82.0062 18.6518 82.5622 18.1219 83.2774 17.7448C83.999 17.3612 84.841 17.1629 85.8032 17.1499V19.5197C85.3546 19.5262 84.971 19.6205 84.6525 19.8026C84.3404 19.9781 84.0998 20.2349 83.9307 20.573C83.7752 20.8843 83.6912 21.2451 83.6789 21.6555H85.7447V23.9083H83.6773V32.4027H81.0148V23.9083H79.2984V21.6555H81.0148ZM96.2867 32.6367C95.2009 32.6367 94.2289 32.3993 93.3707 31.9248C92.519 31.4436 91.8493 30.7805 91.3617 29.9353C90.8805 29.0836 90.64 28.1181 90.64 27.0387C90.64 25.9531 90.8805 24.9843 91.3617 24.1326C91.8493 23.2744 92.519 22.6079 93.3707 22.1333C94.2289 21.6587 95.2009 21.4214 96.2867 21.4214C97.3789 21.4214 98.3542 21.6587 99.2123 22.1333C100.077 22.6079 100.75 23.2711 101.231 24.1228C101.712 24.9745 101.956 25.9465 101.963 27.0387C101.956 28.1181 101.712 29.0836 101.231 29.9353C100.757 30.7805 100.087 31.4436 99.2221 31.9248C98.3574 32.3993 97.3789 32.6367 96.2867 32.6367ZM96.2867 30.1889C96.8588 30.1889 97.3659 30.0588 97.808 29.7988C98.2502 29.5322 98.5914 29.1616 98.8321 28.6869C99.0726 28.2059 99.1928 27.6564 99.1928 27.0387C99.1928 26.4146 99.0726 25.862 98.8321 25.3809C98.5914 24.8998 98.2502 24.5292 97.808 24.2691C97.3659 24.0025 96.8588 23.8693 96.2867 23.8693C95.7211 23.8693 95.2172 24.0025 94.775 24.2691C94.3395 24.5292 94.0013 24.8998 93.7608 25.3809C93.5202 25.862 93.4032 26.4146 93.4097 27.0387C93.4097 27.6564 93.53 28.2059 93.7705 28.6869C94.0176 29.1616 94.3556 29.5322 94.7848 29.7988C95.2204 30.0588 95.7211 30.1889 96.2867 30.1889ZM104.84 21.6555H101.875L105.083 32.4027H107.678L109.788 25.5385L112.066 32.4027H114.621L117.84 21.6555H115.158L113.332 28.345L111.315 21.6555H108.721L106.713 28.4923L104.84 21.6555Z" fill="black"/>
<path fill-rule="evenodd" clip-rule="evenodd" d="M33.0596 15.2456L23.1943 34.5314H13.9279L18.0565 26.5385H17.8713C14.4652 30.9601 9.38316 33.8709 2.14209 34.5314V26.6492C2.14209 26.6492 6.77438 26.3756 9.49757 23.5125H2.14209V15.2458H10.4089V22.0451L10.5944 22.0443L13.9725 15.2458H20.2245V22.0019L20.4099 22.0016L23.9148 15.2456H33.0596ZM86.8565 32.4027H89.5189V17.1206H86.8565V32.4027ZM72.1789 32.2466C72.7575 32.4872 73.3459 32.6075 73.9441 32.6075C74.9323 32.6075 75.8165 32.367 76.5967 31.8858C77.3768 31.4047 77.9816 30.7416 78.4107 29.8963C78.8398 29.0447 79.0543 28.0791 79.0543 26.9998C79.0543 25.9206 78.8332 24.9551 78.3912 24.1034C77.949 23.2517 77.3346 22.5918 76.5479 22.1237C75.7612 21.649 74.8672 21.415 73.866 21.4215C73.2289 21.4215 72.6177 21.545 72.0325 21.7921C71.4474 22.0391 70.9598 22.3902 70.5697 22.8453C70.5396 22.88 70.5103 22.915 70.4819 22.9503V17.1304H67.8098V32.4028H70.4624L70.4571 30.976C70.5257 31.0601 70.5991 31.1423 70.6769 31.2227C71.0995 31.6583 71.6002 31.9996 72.1789 32.2466ZM74.9095 29.7793C74.4739 30.0459 73.9765 30.1792 73.4174 30.1792C72.8647 30.1792 72.3576 30.0426 71.896 29.7696C71.4343 29.49 71.0671 29.1097 70.7939 28.6285C70.5274 28.1474 70.3941 27.6012 70.3941 26.9901C70.3877 26.3789 70.5176 25.8328 70.7842 25.3517C71.0573 24.8641 71.4246 24.487 71.8863 24.2204C72.3478 23.9474 72.8583 23.8141 73.4174 23.8206C73.9765 23.8141 74.4739 23.9441 74.9095 24.2107C75.3516 24.4707 75.6897 24.8446 75.9238 25.3322C76.1643 25.8133 76.2846 26.366 76.2846 26.9901C76.2846 27.6143 76.1643 28.1669 75.9238 28.648C75.6897 29.1292 75.3516 29.5062 74.9095 29.7793ZM36.9166 18.0471H39.9594L42.6812 27.9875L45.5768 18.0471H48.1124L51.2527 27.788L53.8664 18.0471H56.6555L52.54 32.4027H49.9166L46.7233 22.8867L43.7921 32.4027H41.1394L36.9166 18.0471ZM61.1492 32.6562C60.0893 32.6627 59.1336 32.4286 58.2819 31.9541C57.4367 31.4729 56.7703 30.8065 56.2826 29.9548C55.8016 29.1031 55.561 28.1311 55.561 27.0388C55.561 25.979 55.8081 25.0201 56.3022 24.1619C56.7963 23.3037 57.4659 22.634 58.3112 22.1529C59.1564 21.6718 60.0991 21.4312 61.1393 21.4312C62.3097 21.4312 63.3336 21.6913 64.2113 22.2114C65.0956 22.7315 65.7555 23.4695 66.1911 24.4252C66.6332 25.3744 66.7925 26.4634 66.669 27.6923H58.3154C58.3387 28.1818 58.4609 28.6272 58.6818 29.0283C58.9289 29.4704 59.2734 29.815 59.7155 30.0621C60.1577 30.3091 60.6517 30.4327 61.1979 30.4327C61.614 30.4261 62.0009 30.3547 62.3584 30.2182C62.7161 30.0751 63.0183 29.8833 63.2654 29.6427C63.519 29.4022 63.6978 29.1292 63.8018 28.8236H66.591C66.4219 29.5712 66.0839 30.2377 65.5768 30.8228C65.0696 31.4015 64.4325 31.8533 63.6652 32.1783C62.8981 32.5034 62.0594 32.6627 61.1492 32.6562ZM58.6915 25.0103C58.5358 25.282 58.4277 25.5746 58.3676 25.8881H63.9051C63.865 25.4921 63.7427 25.1312 63.5385 24.8055C63.3044 24.4219 62.9858 24.1261 62.5828 23.9181C62.1797 23.7035 61.7246 23.5962 61.2174 23.5962C60.6778 23.5962 60.1869 23.7198 59.7448 23.9668C59.3027 24.2139 58.9516 24.5617 58.6915 25.0103ZM81.0148 21.6555C81.0148 20.7843 81.2131 20.0106 81.6097 19.3344C82.0062 18.6518 82.5622 18.1219 83.2774 17.7448C83.999 17.3612 84.841 17.1629 85.8032 17.1499V19.5197C85.3546 19.5262 84.971 19.6205 84.6525 19.8026C84.3404 19.9781 84.0998 20.2349 83.9307 20.573C83.7752 20.8843 83.6912 21.2451 83.6789 21.6555H85.7447V23.9083H83.6773V32.4027H81.0148V23.9083H79.2984V21.6555H81.0148ZM96.2867 32.6367C95.2009 32.6367 94.2289 32.3993 93.3707 31.9248C92.519 31.4436 91.8493 30.7805 91.3617 29.9353C90.8805 29.0836 90.64 28.1181 90.64 27.0387C90.64 25.9531 90.8805 24.9843 91.3617 24.1326C91.8493 23.2744 92.519 22.6079 93.3707 22.1333C94.2289 21.6587 95.2009 21.4214 96.2867 21.4214C97.3789 21.4214 98.3542 21.6587 99.2123 22.1333C100.077 22.6079 100.75 23.2711 101.231 24.1228C101.712 24.9745 101.956 25.9465 101.963 27.0387C101.956 28.1181 101.712 29.0836 101.231 29.9353C100.757 30.7805 100.087 31.4436 99.2221 31.9248C98.3574 32.3993 97.3789 32.6367 96.2867 32.6367ZM96.2867 30.1889C96.8588 30.1889 97.3659 30.0588 97.808 29.7988C98.2502 29.5322 98.5914 29.1616 98.8321 28.6869C99.0726 28.2059 99.1928 27.6564 99.1928 27.0387C99.1928 26.4146 99.0726 25.862 98.8321 25.3809C98.5914 24.8998 98.2502 24.5292 97.808 24.2691C97.3659 24.0025 96.8588 23.8693 96.2867 23.8693C95.7211 23.8693 95.2172 24.0025 94.775 24.2691C94.3395 24.5292 94.0013 24.8998 93.7608 25.3809C93.5202 25.862 93.4032 26.4146 93.4097 27.0387C93.4097 27.6564 93.53 28.2059 93.7705 28.6869C94.0176 29.1616 94.3556 29.5322 94.7848 29.7988C95.2204 30.0588 95.7211 30.1889 96.2867 30.1889ZM104.84 21.6555H101.875L105.083 32.4027H107.678L109.788 25.5385L112.066 32.4027H114.621L117.84 21.6555H115.158L113.332 28.345L111.315 21.6555H108.721L106.713 28.4923L104.84 21.6555Z" fill="black"/>
<path d="M33.0596 15.2456L23.1943 34.5314H13.9279L18.0565 26.5385H17.8713C14.4652 30.9601 9.38316 33.8709 2.14209 34.5314V26.6492C2.14209 26.6492 6.77438 26.3756 9.49757 23.5125H2.14209V15.2458H10.4089V22.0451L10.5944 22.0443L13.9725 15.2458H20.2245V22.0019L20.4099 22.0016L23.9148 15.2456H33.0596ZM86.8565 32.4027H89.5189V17.1206H86.8565V32.4027ZM72.1789 32.2466C72.7575 32.4872 73.3459 32.6075 73.9441 32.6075C74.9323 32.6075 75.8165 32.367 76.5967 31.8858C77.3768 31.4047 77.9816 30.7416 78.4107 29.8963C78.8398 29.0447 79.0543 28.0791 79.0543 26.9998C79.0543 25.9206 78.8332 24.9551 78.3912 24.1034C77.949 23.2517 77.3346 22.5918 76.5479 22.1237C75.7612 21.649 74.8672 21.415 73.866 21.4215C73.2289 21.4215 72.6177 21.545 72.0325 21.7921C71.4474 22.0391 70.9598 22.3902 70.5697 22.8453C70.5396 22.88 70.5103 22.915 70.4819 22.9503V17.1304H67.8098V32.4028H70.4624L70.4571 30.976C70.5257 31.0601 70.5991 31.1423 70.6769 31.2227C71.0995 31.6583 71.6002 31.9996 72.1789 32.2466ZM74.9095 29.7793C74.4739 30.0459 73.9765 30.1792 73.4174 30.1792C72.8647 30.1792 72.3576 30.0426 71.896 29.7696C71.4343 29.49 71.0671 29.1097 70.7939 28.6285C70.5274 28.1474 70.3941 27.6012 70.3941 26.9901C70.3877 26.3789 70.5176 25.8328 70.7842 25.3517C71.0573 24.8641 71.4246 24.487 71.8863 24.2204C72.3478 23.9474 72.8583 23.8141 73.4174 23.8206C73.9765 23.8141 74.4739 23.9441 74.9095 24.2107C75.3516 24.4707 75.6897 24.8446 75.9238 25.3322C76.1643 25.8133 76.2846 26.366 76.2846 26.9901C76.2846 27.6143 76.1643 28.1669 75.9238 28.648C75.6897 29.1292 75.3516 29.5062 74.9095 29.7793ZM36.9166 18.0471H39.9594L42.6812 27.9875L45.5768 18.0471H48.1124L51.2527 27.788L53.8664 18.0471H56.6555L52.54 32.4027H49.9166L46.7233 22.8867L43.7921 32.4027H41.1394L36.9166 18.0471ZM61.1492 32.6562C60.0893 32.6627 59.1336 32.4286 58.2819 31.9541C57.4367 31.4729 56.7703 30.8065 56.2826 29.9548C55.8016 29.1031 55.561 28.1311 55.561 27.0388C55.561 25.979 55.8081 25.0201 56.3022 24.1619C56.7963 23.3037 57.4659 22.634 58.3112 22.1529C59.1564 21.6718 60.0991 21.4312 61.1393 21.4312C62.3097 21.4312 63.3336 21.6913 64.2113 22.2114C65.0956 22.7315 65.7555 23.4695 66.1911 24.4252C66.6332 25.3744 66.7925 26.4634 66.669 27.6923H58.3154C58.3387 28.1818 58.4609 28.6272 58.6818 29.0283C58.9289 29.4704 59.2734 29.815 59.7155 30.0621C60.1577 30.3091 60.6517 30.4327 61.1979 30.4327C61.614 30.4261 62.0009 30.3547 62.3584 30.2182C62.7161 30.0751 63.0183 29.8833 63.2654 29.6427C63.519 29.4022 63.6978 29.1292 63.8018 28.8236H66.591C66.4219 29.5712 66.0839 30.2377 65.5768 30.8228C65.0696 31.4015 64.4325 31.8533 63.6652 32.1783C62.8981 32.5034 62.0594 32.6627 61.1492 32.6562ZM58.6915 25.0103C58.5358 25.282 58.4277 25.5746 58.3676 25.8881H63.9051C63.865 25.4921 63.7427 25.1312 63.5385 24.8055C63.3044 24.4219 62.9858 24.1261 62.5828 23.9181C62.1797 23.7035 61.7246 23.5962 61.2174 23.5962C60.6778 23.5962 60.1869 23.7198 59.7448 23.9668C59.3027 24.2139 58.9516 24.5617 58.6915 25.0103ZM81.0148 21.6555C81.0148 20.7843 81.2131 20.0106 81.6097 19.3344C82.0062 18.6518 82.5622 18.1219 83.2774 17.7448C83.999 17.3612 84.841 17.1629 85.8032 17.1499V19.5197C85.3546 19.5262 84.971 19.6205 84.6525 19.8026C84.3404 19.9781 84.0998 20.2349 83.9307 20.573C83.7752 20.8843 83.6912 21.2451 83.6789 21.6555H85.7447V23.9083H83.6773V32.4027H81.0148V23.9083H79.2984V21.6555H81.0148ZM96.2867 32.6367C95.2009 32.6367 94.2289 32.3993 93.3707 31.9248C92.519 31.4436 91.8493 30.7805 91.3617 29.9353C90.8805 29.0836 90.64 28.1181 90.64 27.0387C90.64 25.9531 90.8805 24.9843 91.3617 24.1326C91.8493 23.2744 92.519 22.6079 93.3707 22.1333C94.2289 21.6587 95.2009 21.4214 96.2867 21.4214C97.3789 21.4214 98.3542 21.6587 99.2123 22.1333C100.077 22.6079 100.75 23.2711 101.231 24.1228C101.712 24.9745 101.956 25.9465 101.963 27.0387C101.956 28.1181 101.712 29.0836 101.231 29.9353C100.757 30.7805 100.087 31.4436 99.2221 31.9248C98.3574 32.3993 97.3789 32.6367 96.2867 32.6367ZM96.2867 30.1889C96.8588 30.1889 97.3659 30.0588 97.808 29.7988C98.2502 29.5322 98.5914 29.1616 98.8321 28.6869C99.0726 28.2059 99.1928 27.6564 99.1928 27.0387C99.1928 26.4146 99.0726 25.862 98.8321 25.3809C98.5914 24.8998 98.2502 24.5292 97.808 24.2691C97.3659 24.0025 96.8588 23.8693 96.2867 23.8693C95.7211 23.8693 95.2172 24.0025 94.775 24.2691C94.3395 24.5292 94.0013 24.8998 93.7608 25.3809C93.5202 25.862 93.4032 26.4146 93.4097 27.0387C93.4097 27.6564 93.53 28.2059 93.7705 28.6869C94.0176 29.1616 94.3556 29.5322 94.7848 29.7988C95.2204 30.0588 95.7211 30.1889 96.2867 30.1889ZM104.84 21.6555H101.875L105.083 32.4027H107.678L109.788 25.5385L112.066 32.4027H114.621L117.84 21.6555H115.158L113.332 28.345L111.315 21.6555H108.721L106.713 28.4923L104.84 21.6555Z" fill="black"/>
</svg>
