<svg width="120" height="49" viewBox="0 0 120 49" fill="none" xmlns="http://www.w3.org/2000/svg">
<path fill-rule="evenodd" clip-rule="evenodd" d="M33.0596 15.0225L23.1943 34.3083H13.9279L18.0565 26.3154H17.8713C14.4652 30.737 9.38316 33.6477 2.14209 34.3083V26.4261C2.14209 26.4261 6.77438 26.1524 9.49757 23.2894H2.14209V15.0226H10.4089V21.8219L10.5944 21.8211L13.9725 15.0226H20.2245V21.7788L20.4099 21.7785L23.9148 15.0225H33.0596ZM86.8565 32.1795H89.5189V16.8975H86.8565V32.1795ZM72.1789 32.0235C72.7575 32.264 73.3459 32.3844 73.9441 32.3844C74.9323 32.3844 75.8165 32.1438 76.5967 31.6626C77.3768 31.1816 77.9816 30.5185 78.4107 29.6732C78.8398 28.8215 79.0543 27.8559 79.0543 26.7767C79.0543 25.6974 78.8332 24.732 78.3912 23.8803C77.949 23.0286 77.3346 22.3686 76.5479 21.9005C75.7612 21.4259 74.8672 21.1918 73.866 21.1983C73.2289 21.1983 72.6177 21.3219 72.0325 21.5689C71.4474 21.816 70.9598 22.1671 70.5697 22.6222C70.5396 22.6569 70.5103 22.6918 70.4819 22.7272V16.9073H67.8098V32.1796H70.4624L70.4571 30.7529C70.5257 30.837 70.5991 30.9192 70.6769 30.9995C71.0995 31.4352 71.6002 31.7764 72.1789 32.0235ZM74.9095 29.5562C74.4739 29.8228 73.9765 29.9561 73.4174 29.9561C72.8647 29.9561 72.3576 29.8195 71.896 29.5464C71.4343 29.2668 71.0671 28.8866 70.7939 28.4054C70.5274 27.9243 70.3941 27.3781 70.3941 26.7669C70.3877 26.1558 70.5176 25.6097 70.7842 25.1286C71.0573 24.641 71.4246 24.2639 71.8863 23.9973C72.3478 23.7242 72.8583 23.5909 73.4174 23.5974C73.9765 23.5909 74.4739 23.721 74.9095 23.9875C75.3516 24.2476 75.6897 24.6214 75.9238 25.1091C76.1643 25.5902 76.2846 26.1428 76.2846 26.7669C76.2846 27.3912 76.1643 27.9438 75.9238 28.4249C75.6897 28.9061 75.3516 29.2831 74.9095 29.5562ZM36.9166 17.824H39.9594L42.6812 27.7643L45.5768 17.824H48.1124L51.2527 27.5648L53.8664 17.824H56.6555L52.54 32.1796H49.9166L46.7233 22.6635L43.7921 32.1796H41.1394L36.9166 17.824ZM61.1492 32.4331C60.0893 32.4396 59.1336 32.2055 58.2819 31.731C57.4367 31.2498 56.7703 30.5833 56.2826 29.7317C55.8016 28.88 55.561 27.908 55.561 26.8156C55.561 25.7559 55.8081 24.7969 56.3022 23.9387C56.7963 23.0805 57.4659 22.4108 58.3112 21.9297C59.1564 21.4486 60.0991 21.2081 61.1393 21.2081C62.3097 21.2081 63.3336 21.4681 64.2113 21.9882C65.0956 22.5084 65.7555 23.2463 66.1911 24.202C66.6332 25.1513 66.7925 26.2403 66.669 27.4691H58.3154C58.3387 27.9586 58.4609 28.404 58.6818 28.8052C58.9289 29.2473 59.2734 29.5918 59.7155 29.8389C60.1577 30.086 60.6517 30.2095 61.1979 30.2095C61.614 30.203 62.0009 30.1315 62.3584 29.995C62.7161 29.852 63.0183 29.6602 63.2654 29.4195C63.519 29.179 63.6978 28.906 63.8018 28.6004H66.591C66.4219 29.3481 66.0839 30.0145 65.5768 30.5996C65.0696 31.1783 64.4325 31.6301 63.6652 31.9552C62.8981 32.2803 62.0594 32.4396 61.1492 32.4331ZM58.6915 24.7872C58.5358 25.0589 58.4277 25.3514 58.3676 25.6649H63.9051C63.865 25.2689 63.7427 24.9081 63.5385 24.5824C63.3044 24.1988 62.9858 23.903 62.5828 23.6949C62.1797 23.4804 61.7246 23.3731 61.2174 23.3731C60.6778 23.3731 60.1869 23.4966 59.7448 23.7437C59.3027 23.9907 58.9516 24.3386 58.6915 24.7872ZM81.0148 21.4324C81.0148 20.5612 81.2131 19.7875 81.6097 19.1113C82.0062 18.4286 82.5622 17.8988 83.2774 17.5217C83.999 17.1381 84.841 16.9398 85.8032 16.9268V19.2966C85.3546 19.3031 84.971 19.3974 84.6525 19.5794C84.3404 19.755 84.0998 20.0118 83.9307 20.3499C83.7752 20.6611 83.6912 21.0219 83.6789 21.4324H85.7447V23.6852H83.6773V32.1796H81.0148V23.6852H79.2984V21.4324H81.0148ZM96.2867 32.4135C95.2009 32.4135 94.2289 32.1762 93.3707 31.7017C92.519 31.2205 91.8493 30.5574 91.3617 29.7121C90.8805 28.8604 90.64 27.895 90.64 26.8156C90.64 25.7299 90.8805 24.7611 91.3617 23.9094C91.8493 23.0512 92.519 22.3848 93.3707 21.9102C94.2289 21.4356 95.2009 21.1982 96.2867 21.1982C97.3789 21.1982 98.3542 21.4356 99.2123 21.9102C100.077 22.3848 100.75 23.048 101.231 23.8997C101.712 24.7514 101.956 25.7234 101.963 26.8156C101.956 27.895 101.712 28.8604 101.231 29.7121C100.757 30.5574 100.087 31.2205 99.2221 31.7017C98.3574 32.1762 97.3789 32.4135 96.2867 32.4135ZM96.2867 29.9657C96.8588 29.9657 97.3659 29.8356 97.808 29.5756C98.2502 29.309 98.5914 28.9384 98.8321 28.4638C99.0726 27.9827 99.1928 27.4333 99.1928 26.8156C99.1928 26.1915 99.0726 25.6388 98.8321 25.1577C98.5914 24.6766 98.2502 24.306 97.808 24.046C97.3659 23.7794 96.8588 23.6461 96.2867 23.6461C95.7211 23.6461 95.2172 23.7794 94.775 24.046C94.3395 24.306 94.0013 24.6766 93.7608 25.1577C93.5202 25.6388 93.4032 26.1915 93.4097 26.8156C93.4097 27.4333 93.53 27.9827 93.7705 28.4638C94.0176 28.9384 94.3556 29.309 94.7848 29.5756C95.2204 29.8356 95.7211 29.9657 96.2867 29.9657ZM104.84 21.4324H101.875L105.083 32.1796H107.678L109.788 25.3153L112.066 32.1796H114.621L117.84 21.4324H115.158L113.332 28.1218L111.315 21.4324H108.721L106.713 28.2691L104.84 21.4324Z" fill="black"/>
<path d="M33.0596 15.0225L23.1943 34.3083H13.9279L18.0565 26.3154H17.8713C14.4652 30.737 9.38316 33.6477 2.14209 34.3083V26.4261C2.14209 26.4261 6.77438 26.1524 9.49757 23.2894H2.14209V15.0226H10.4089V21.8219L10.5944 21.8211L13.9725 15.0226H20.2245V21.7788L20.4099 21.7785L23.9148 15.0225H33.0596ZM86.8565 32.1795H89.5189V16.8975H86.8565V32.1795ZM72.1789 32.0235C72.7575 32.264 73.3459 32.3844 73.9441 32.3844C74.9323 32.3844 75.8165 32.1438 76.5967 31.6626C77.3768 31.1816 77.9816 30.5185 78.4107 29.6732C78.8398 28.8215 79.0543 27.8559 79.0543 26.7767C79.0543 25.6974 78.8332 24.732 78.3912 23.8803C77.949 23.0286 77.3346 22.3686 76.5479 21.9005C75.7612 21.4259 74.8672 21.1918 73.866 21.1983C73.2289 21.1983 72.6177 21.3219 72.0325 21.5689C71.4474 21.816 70.9598 22.1671 70.5697 22.6222C70.5396 22.6569 70.5103 22.6918 70.4819 22.7272V16.9073H67.8098V32.1796H70.4624L70.4571 30.7529C70.5257 30.837 70.5991 30.9192 70.6769 30.9995C71.0995 31.4352 71.6002 31.7764 72.1789 32.0235ZM74.9095 29.5562C74.4739 29.8228 73.9765 29.9561 73.4174 29.9561C72.8647 29.9561 72.3576 29.8195 71.896 29.5464C71.4343 29.2668 71.0671 28.8866 70.7939 28.4054C70.5274 27.9243 70.3941 27.3781 70.3941 26.7669C70.3877 26.1558 70.5176 25.6097 70.7842 25.1286C71.0573 24.641 71.4246 24.2639 71.8863 23.9973C72.3478 23.7242 72.8583 23.5909 73.4174 23.5974C73.9765 23.5909 74.4739 23.721 74.9095 23.9875C75.3516 24.2476 75.6897 24.6214 75.9238 25.1091C76.1643 25.5902 76.2846 26.1428 76.2846 26.7669C76.2846 27.3912 76.1643 27.9438 75.9238 28.4249C75.6897 28.9061 75.3516 29.2831 74.9095 29.5562ZM36.9166 17.824H39.9594L42.6812 27.7643L45.5768 17.824H48.1124L51.2527 27.5648L53.8664 17.824H56.6555L52.54 32.1796H49.9166L46.7233 22.6635L43.7921 32.1796H41.1394L36.9166 17.824ZM61.1492 32.4331C60.0893 32.4396 59.1336 32.2055 58.2819 31.731C57.4367 31.2498 56.7703 30.5833 56.2826 29.7317C55.8016 28.88 55.561 27.908 55.561 26.8156C55.561 25.7559 55.8081 24.7969 56.3022 23.9387C56.7963 23.0805 57.4659 22.4108 58.3112 21.9297C59.1564 21.4486 60.0991 21.2081 61.1393 21.2081C62.3097 21.2081 63.3336 21.4681 64.2113 21.9882C65.0956 22.5084 65.7555 23.2463 66.1911 24.202C66.6332 25.1513 66.7925 26.2403 66.669 27.4691H58.3154C58.3387 27.9586 58.4609 28.404 58.6818 28.8052C58.9289 29.2473 59.2734 29.5918 59.7155 29.8389C60.1577 30.086 60.6517 30.2095 61.1979 30.2095C61.614 30.203 62.0009 30.1315 62.3584 29.995C62.7161 29.852 63.0183 29.6602 63.2654 29.4195C63.519 29.179 63.6978 28.906 63.8018 28.6004H66.591C66.4219 29.3481 66.0839 30.0145 65.5768 30.5996C65.0696 31.1783 64.4325 31.6301 63.6652 31.9552C62.8981 32.2803 62.0594 32.4396 61.1492 32.4331ZM58.6915 24.7872C58.5358 25.0589 58.4277 25.3514 58.3676 25.6649H63.9051C63.865 25.2689 63.7427 24.9081 63.5385 24.5824C63.3044 24.1988 62.9858 23.903 62.5828 23.6949C62.1797 23.4804 61.7246 23.3731 61.2174 23.3731C60.6778 23.3731 60.1869 23.4966 59.7448 23.7437C59.3027 23.9907 58.9516 24.3386 58.6915 24.7872ZM81.0148 21.4324C81.0148 20.5612 81.2131 19.7875 81.6097 19.1113C82.0062 18.4286 82.5622 17.8988 83.2774 17.5217C83.999 17.1381 84.841 16.9398 85.8032 16.9268V19.2966C85.3546 19.3031 84.971 19.3974 84.6525 19.5794C84.3404 19.755 84.0998 20.0118 83.9307 20.3499C83.7752 20.6611 83.6912 21.0219 83.6789 21.4324H85.7447V23.6852H83.6773V32.1796H81.0148V23.6852H79.2984V21.4324H81.0148ZM96.2867 32.4135C95.2009 32.4135 94.2289 32.1762 93.3707 31.7017C92.519 31.2205 91.8493 30.5574 91.3617 29.7121C90.8805 28.8604 90.64 27.895 90.64 26.8156C90.64 25.7299 90.8805 24.7611 91.3617 23.9094C91.8493 23.0512 92.519 22.3848 93.3707 21.9102C94.2289 21.4356 95.2009 21.1982 96.2867 21.1982C97.3789 21.1982 98.3542 21.4356 99.2123 21.9102C100.077 22.3848 100.75 23.048 101.231 23.8997C101.712 24.7514 101.956 25.7234 101.963 26.8156C101.956 27.895 101.712 28.8604 101.231 29.7121C100.757 30.5574 100.087 31.2205 99.2221 31.7017C98.3574 32.1762 97.3789 32.4135 96.2867 32.4135ZM96.2867 29.9657C96.8588 29.9657 97.3659 29.8356 97.808 29.5756C98.2502 29.309 98.5914 28.9384 98.8321 28.4638C99.0726 27.9827 99.1928 27.4333 99.1928 26.8156C99.1928 26.1915 99.0726 25.6388 98.8321 25.1577C98.5914 24.6766 98.2502 24.306 97.808 24.046C97.3659 23.7794 96.8588 23.6461 96.2867 23.6461C95.7211 23.6461 95.2172 23.7794 94.775 24.046C94.3395 24.306 94.0013 24.6766 93.7608 25.1577C93.5202 25.6388 93.4032 26.1915 93.4097 26.8156C93.4097 27.4333 93.53 27.9827 93.7705 28.4638C94.0176 28.9384 94.3556 29.309 94.7848 29.5756C95.2204 29.8356 95.7211 29.9657 96.2867 29.9657ZM104.84 21.4324H101.875L105.083 32.1796H107.678L109.788 25.3153L112.066 32.1796H114.621L117.84 21.4324H115.158L113.332 28.1218L111.315 21.4324H108.721L106.713 28.2691L104.84 21.4324Z" fill="black"/>
<path fill-rule="evenodd" clip-rule="evenodd" d="M33.0596 15.0225L23.1943 34.3083H13.9279L18.0565 26.3154H17.8713C14.4652 30.737 9.38316 33.6477 2.14209 34.3083V26.4261C2.14209 26.4261 6.77438 26.1524 9.49757 23.2894H2.14209V15.0226H10.4089V21.8219L10.5944 21.8211L13.9725 15.0226H20.2245V21.7788L20.4099 21.7785L23.9148 15.0225H33.0596ZM86.8565 32.1795H89.5189V16.8975H86.8565V32.1795ZM72.1789 32.0235C72.7575 32.264 73.3459 32.3844 73.9441 32.3844C74.9323 32.3844 75.8165 32.1438 76.5967 31.6626C77.3768 31.1816 77.9816 30.5185 78.4107 29.6732C78.8398 28.8215 79.0543 27.8559 79.0543 26.7767C79.0543 25.6974 78.8332 24.732 78.3912 23.8803C77.949 23.0286 77.3346 22.3686 76.5479 21.9005C75.7612 21.4259 74.8672 21.1918 73.866 21.1983C73.2289 21.1983 72.6177 21.3219 72.0325 21.5689C71.4474 21.816 70.9598 22.1671 70.5697 22.6222C70.5396 22.6569 70.5103 22.6918 70.4819 22.7272V16.9073H67.8098V32.1796H70.4624L70.4571 30.7529C70.5257 30.837 70.5991 30.9192 70.6769 30.9995C71.0995 31.4352 71.6002 31.7764 72.1789 32.0235ZM74.9095 29.5562C74.4739 29.8228 73.9765 29.9561 73.4174 29.9561C72.8647 29.9561 72.3576 29.8195 71.896 29.5464C71.4343 29.2668 71.0671 28.8866 70.7939 28.4054C70.5274 27.9243 70.3941 27.3781 70.3941 26.7669C70.3877 26.1558 70.5176 25.6097 70.7842 25.1286C71.0573 24.641 71.4246 24.2639 71.8863 23.9973C72.3478 23.7242 72.8583 23.5909 73.4174 23.5974C73.9765 23.5909 74.4739 23.721 74.9095 23.9875C75.3516 24.2476 75.6897 24.6214 75.9238 25.1091C76.1643 25.5902 76.2846 26.1428 76.2846 26.7669C76.2846 27.3912 76.1643 27.9438 75.9238 28.4249C75.6897 28.9061 75.3516 29.2831 74.9095 29.5562ZM36.9166 17.824H39.9594L42.6812 27.7643L45.5768 17.824H48.1124L51.2527 27.5648L53.8664 17.824H56.6555L52.54 32.1796H49.9166L46.7233 22.6635L43.7921 32.1796H41.1394L36.9166 17.824ZM61.1492 32.4331C60.0893 32.4396 59.1336 32.2055 58.2819 31.731C57.4367 31.2498 56.7703 30.5833 56.2826 29.7317C55.8016 28.88 55.561 27.908 55.561 26.8156C55.561 25.7559 55.8081 24.7969 56.3022 23.9387C56.7963 23.0805 57.4659 22.4108 58.3112 21.9297C59.1564 21.4486 60.0991 21.2081 61.1393 21.2081C62.3097 21.2081 63.3336 21.4681 64.2113 21.9882C65.0956 22.5084 65.7555 23.2463 66.1911 24.202C66.6332 25.1513 66.7925 26.2403 66.669 27.4691H58.3154C58.3387 27.9586 58.4609 28.404 58.6818 28.8052C58.9289 29.2473 59.2734 29.5918 59.7155 29.8389C60.1577 30.086 60.6517 30.2095 61.1979 30.2095C61.614 30.203 62.0009 30.1315 62.3584 29.995C62.7161 29.852 63.0183 29.6602 63.2654 29.4195C63.519 29.179 63.6978 28.906 63.8018 28.6004H66.591C66.4219 29.3481 66.0839 30.0145 65.5768 30.5996C65.0696 31.1783 64.4325 31.6301 63.6652 31.9552C62.8981 32.2803 62.0594 32.4396 61.1492 32.4331ZM58.6915 24.7872C58.5358 25.0589 58.4277 25.3514 58.3676 25.6649H63.9051C63.865 25.2689 63.7427 24.9081 63.5385 24.5824C63.3044 24.1988 62.9858 23.903 62.5828 23.6949C62.1797 23.4804 61.7246 23.3731 61.2174 23.3731C60.6778 23.3731 60.1869 23.4966 59.7448 23.7437C59.3027 23.9907 58.9516 24.3386 58.6915 24.7872ZM81.0148 21.4324C81.0148 20.5612 81.2131 19.7875 81.6097 19.1113C82.0062 18.4286 82.5622 17.8988 83.2774 17.5217C83.999 17.1381 84.841 16.9398 85.8032 16.9268V19.2966C85.3546 19.3031 84.971 19.3974 84.6525 19.5794C84.3404 19.755 84.0998 20.0118 83.9307 20.3499C83.7752 20.6611 83.6912 21.0219 83.6789 21.4324H85.7447V23.6852H83.6773V32.1796H81.0148V23.6852H79.2984V21.4324H81.0148ZM96.2867 32.4135C95.2009 32.4135 94.2289 32.1762 93.3707 31.7017C92.519 31.2205 91.8493 30.5574 91.3617 29.7121C90.8805 28.8604 90.64 27.895 90.64 26.8156C90.64 25.7299 90.8805 24.7611 91.3617 23.9094C91.8493 23.0512 92.519 22.3848 93.3707 21.9102C94.2289 21.4356 95.2009 21.1982 96.2867 21.1982C97.3789 21.1982 98.3542 21.4356 99.2123 21.9102C100.077 22.3848 100.75 23.048 101.231 23.8997C101.712 24.7514 101.956 25.7234 101.963 26.8156C101.956 27.895 101.712 28.8604 101.231 29.7121C100.757 30.5574 100.087 31.2205 99.2221 31.7017C98.3574 32.1762 97.3789 32.4135 96.2867 32.4135ZM96.2867 29.9657C96.8588 29.9657 97.3659 29.8356 97.808 29.5756C98.2502 29.309 98.5914 28.9384 98.8321 28.4638C99.0726 27.9827 99.1928 27.4333 99.1928 26.8156C99.1928 26.1915 99.0726 25.6388 98.8321 25.1577C98.5914 24.6766 98.2502 24.306 97.808 24.046C97.3659 23.7794 96.8588 23.6461 96.2867 23.6461C95.7211 23.6461 95.2172 23.7794 94.775 24.046C94.3395 24.306 94.0013 24.6766 93.7608 25.1577C93.5202 25.6388 93.4032 26.1915 93.4097 26.8156C93.4097 27.4333 93.53 27.9827 93.7705 28.4638C94.0176 28.9384 94.3556 29.309 94.7848 29.5756C95.2204 29.8356 95.7211 29.9657 96.2867 29.9657ZM104.84 21.4324H101.875L105.083 32.1796H107.678L109.788 25.3153L112.066 32.1796H114.621L117.84 21.4324H115.158L113.332 28.1218L111.315 21.4324H108.721L106.713 28.2691L104.84 21.4324Z" fill="black"/>
<path d="M33.0596 15.0225L23.1943 34.3083H13.9279L18.0565 26.3154H17.8713C14.4652 30.737 9.38316 33.6477 2.14209 34.3083V26.4261C2.14209 26.4261 6.77438 26.1524 9.49757 23.2894H2.14209V15.0226H10.4089V21.8219L10.5944 21.8211L13.9725 15.0226H20.2245V21.7788L20.4099 21.7785L23.9148 15.0225H33.0596ZM86.8565 32.1795H89.5189V16.8975H86.8565V32.1795ZM72.1789 32.0235C72.7575 32.264 73.3459 32.3844 73.9441 32.3844C74.9323 32.3844 75.8165 32.1438 76.5967 31.6626C77.3768 31.1816 77.9816 30.5185 78.4107 29.6732C78.8398 28.8215 79.0543 27.8559 79.0543 26.7767C79.0543 25.6974 78.8332 24.732 78.3912 23.8803C77.949 23.0286 77.3346 22.3686 76.5479 21.9005C75.7612 21.4259 74.8672 21.1918 73.866 21.1983C73.2289 21.1983 72.6177 21.3219 72.0325 21.5689C71.4474 21.816 70.9598 22.1671 70.5697 22.6222C70.5396 22.6569 70.5103 22.6918 70.4819 22.7272V16.9073H67.8098V32.1796H70.4624L70.4571 30.7529C70.5257 30.837 70.5991 30.9192 70.6769 30.9995C71.0995 31.4352 71.6002 31.7764 72.1789 32.0235ZM74.9095 29.5562C74.4739 29.8228 73.9765 29.9561 73.4174 29.9561C72.8647 29.9561 72.3576 29.8195 71.896 29.5464C71.4343 29.2668 71.0671 28.8866 70.7939 28.4054C70.5274 27.9243 70.3941 27.3781 70.3941 26.7669C70.3877 26.1558 70.5176 25.6097 70.7842 25.1286C71.0573 24.641 71.4246 24.2639 71.8863 23.9973C72.3478 23.7242 72.8583 23.5909 73.4174 23.5974C73.9765 23.5909 74.4739 23.721 74.9095 23.9875C75.3516 24.2476 75.6897 24.6214 75.9238 25.1091C76.1643 25.5902 76.2846 26.1428 76.2846 26.7669C76.2846 27.3912 76.1643 27.9438 75.9238 28.4249C75.6897 28.9061 75.3516 29.2831 74.9095 29.5562ZM36.9166 17.824H39.9594L42.6812 27.7643L45.5768 17.824H48.1124L51.2527 27.5648L53.8664 17.824H56.6555L52.54 32.1796H49.9166L46.7233 22.6635L43.7921 32.1796H41.1394L36.9166 17.824ZM61.1492 32.4331C60.0893 32.4396 59.1336 32.2055 58.2819 31.731C57.4367 31.2498 56.7703 30.5833 56.2826 29.7317C55.8016 28.88 55.561 27.908 55.561 26.8156C55.561 25.7559 55.8081 24.7969 56.3022 23.9387C56.7963 23.0805 57.4659 22.4108 58.3112 21.9297C59.1564 21.4486 60.0991 21.2081 61.1393 21.2081C62.3097 21.2081 63.3336 21.4681 64.2113 21.9882C65.0956 22.5084 65.7555 23.2463 66.1911 24.202C66.6332 25.1513 66.7925 26.2403 66.669 27.4691H58.3154C58.3387 27.9586 58.4609 28.404 58.6818 28.8052C58.9289 29.2473 59.2734 29.5918 59.7155 29.8389C60.1577 30.086 60.6517 30.2095 61.1979 30.2095C61.614 30.203 62.0009 30.1315 62.3584 29.995C62.7161 29.852 63.0183 29.6602 63.2654 29.4195C63.519 29.179 63.6978 28.906 63.8018 28.6004H66.591C66.4219 29.3481 66.0839 30.0145 65.5768 30.5996C65.0696 31.1783 64.4325 31.6301 63.6652 31.9552C62.8981 32.2803 62.0594 32.4396 61.1492 32.4331ZM58.6915 24.7872C58.5358 25.0589 58.4277 25.3514 58.3676 25.6649H63.9051C63.865 25.2689 63.7427 24.9081 63.5385 24.5824C63.3044 24.1988 62.9858 23.903 62.5828 23.6949C62.1797 23.4804 61.7246 23.3731 61.2174 23.3731C60.6778 23.3731 60.1869 23.4966 59.7448 23.7437C59.3027 23.9907 58.9516 24.3386 58.6915 24.7872ZM81.0148 21.4324C81.0148 20.5612 81.2131 19.7875 81.6097 19.1113C82.0062 18.4286 82.5622 17.8988 83.2774 17.5217C83.999 17.1381 84.841 16.9398 85.8032 16.9268V19.2966C85.3546 19.3031 84.971 19.3974 84.6525 19.5794C84.3404 19.755 84.0998 20.0118 83.9307 20.3499C83.7752 20.6611 83.6912 21.0219 83.6789 21.4324H85.7447V23.6852H83.6773V32.1796H81.0148V23.6852H79.2984V21.4324H81.0148ZM96.2867 32.4135C95.2009 32.4135 94.2289 32.1762 93.3707 31.7017C92.519 31.2205 91.8493 30.5574 91.3617 29.7121C90.8805 28.8604 90.64 27.895 90.64 26.8156C90.64 25.7299 90.8805 24.7611 91.3617 23.9094C91.8493 23.0512 92.519 22.3848 93.3707 21.9102C94.2289 21.4356 95.2009 21.1982 96.2867 21.1982C97.3789 21.1982 98.3542 21.4356 99.2123 21.9102C100.077 22.3848 100.75 23.048 101.231 23.8997C101.712 24.7514 101.956 25.7234 101.963 26.8156C101.956 27.895 101.712 28.8604 101.231 29.7121C100.757 30.5574 100.087 31.2205 99.2221 31.7017C98.3574 32.1762 97.3789 32.4135 96.2867 32.4135ZM96.2867 29.9657C96.8588 29.9657 97.3659 29.8356 97.808 29.5756C98.2502 29.309 98.5914 28.9384 98.8321 28.4638C99.0726 27.9827 99.1928 27.4333 99.1928 26.8156C99.1928 26.1915 99.0726 25.6388 98.8321 25.1577C98.5914 24.6766 98.2502 24.306 97.808 24.046C97.3659 23.7794 96.8588 23.6461 96.2867 23.6461C95.7211 23.6461 95.2172 23.7794 94.775 24.046C94.3395 24.306 94.0013 24.6766 93.7608 25.1577C93.5202 25.6388 93.4032 26.1915 93.4097 26.8156C93.4097 27.4333 93.53 27.9827 93.7705 28.4638C94.0176 28.9384 94.3556 29.309 94.7848 29.5756C95.2204 29.8356 95.7211 29.9657 96.2867 29.9657ZM104.84 21.4324H101.875L105.083 32.1796H107.678L109.788 25.3153L112.066 32.1796H114.621L117.84 21.4324H115.158L113.332 28.1218L111.315 21.4324H108.721L106.713 28.2691L104.84 21.4324Z" fill="black"/>
<path fill-rule="evenodd" clip-rule="evenodd" d="M33.0596 15.0225L23.1943 34.3083H13.9279L18.0565 26.3154H17.8713C14.4652 30.737 9.38316 33.6477 2.14209 34.3083V26.4261C2.14209 26.4261 6.77438 26.1524 9.49757 23.2894H2.14209V15.0226H10.4089V21.8219L10.5944 21.8211L13.9725 15.0226H20.2245V21.7788L20.4099 21.7785L23.9148 15.0225H33.0596ZM86.8565 32.1795H89.5189V16.8975H86.8565V32.1795ZM72.1789 32.0235C72.7575 32.264 73.3459 32.3844 73.9441 32.3844C74.9323 32.3844 75.8165 32.1438 76.5967 31.6626C77.3768 31.1816 77.9816 30.5185 78.4107 29.6732C78.8398 28.8215 79.0543 27.8559 79.0543 26.7767C79.0543 25.6974 78.8332 24.732 78.3912 23.8803C77.949 23.0286 77.3346 22.3686 76.5479 21.9005C75.7612 21.4259 74.8672 21.1918 73.866 21.1983C73.2289 21.1983 72.6177 21.3219 72.0325 21.5689C71.4474 21.816 70.9598 22.1671 70.5697 22.6222C70.5396 22.6569 70.5103 22.6918 70.4819 22.7272V16.9073H67.8098V32.1796H70.4624L70.4571 30.7529C70.5257 30.837 70.5991 30.9192 70.6769 30.9995C71.0995 31.4352 71.6002 31.7764 72.1789 32.0235ZM74.9095 29.5562C74.4739 29.8228 73.9765 29.9561 73.4174 29.9561C72.8647 29.9561 72.3576 29.8195 71.896 29.5464C71.4343 29.2668 71.0671 28.8866 70.7939 28.4054C70.5274 27.9243 70.3941 27.3781 70.3941 26.7669C70.3877 26.1558 70.5176 25.6097 70.7842 25.1286C71.0573 24.641 71.4246 24.2639 71.8863 23.9973C72.3478 23.7242 72.8583 23.5909 73.4174 23.5974C73.9765 23.5909 74.4739 23.721 74.9095 23.9875C75.3516 24.2476 75.6897 24.6214 75.9238 25.1091C76.1643 25.5902 76.2846 26.1428 76.2846 26.7669C76.2846 27.3912 76.1643 27.9438 75.9238 28.4249C75.6897 28.9061 75.3516 29.2831 74.9095 29.5562ZM36.9166 17.824H39.9594L42.6812 27.7643L45.5768 17.824H48.1124L51.2527 27.5648L53.8664 17.824H56.6555L52.54 32.1796H49.9166L46.7233 22.6635L43.7921 32.1796H41.1394L36.9166 17.824ZM61.1492 32.4331C60.0893 32.4396 59.1336 32.2055 58.2819 31.731C57.4367 31.2498 56.7703 30.5833 56.2826 29.7317C55.8016 28.88 55.561 27.908 55.561 26.8156C55.561 25.7559 55.8081 24.7969 56.3022 23.9387C56.7963 23.0805 57.4659 22.4108 58.3112 21.9297C59.1564 21.4486 60.0991 21.2081 61.1393 21.2081C62.3097 21.2081 63.3336 21.4681 64.2113 21.9882C65.0956 22.5084 65.7555 23.2463 66.1911 24.202C66.6332 25.1513 66.7925 26.2403 66.669 27.4691H58.3154C58.3387 27.9586 58.4609 28.404 58.6818 28.8052C58.9289 29.2473 59.2734 29.5918 59.7155 29.8389C60.1577 30.086 60.6517 30.2095 61.1979 30.2095C61.614 30.203 62.0009 30.1315 62.3584 29.995C62.7161 29.852 63.0183 29.6602 63.2654 29.4195C63.519 29.179 63.6978 28.906 63.8018 28.6004H66.591C66.4219 29.3481 66.0839 30.0145 65.5768 30.5996C65.0696 31.1783 64.4325 31.6301 63.6652 31.9552C62.8981 32.2803 62.0594 32.4396 61.1492 32.4331ZM58.6915 24.7872C58.5358 25.0589 58.4277 25.3514 58.3676 25.6649H63.9051C63.865 25.2689 63.7427 24.9081 63.5385 24.5824C63.3044 24.1988 62.9858 23.903 62.5828 23.6949C62.1797 23.4804 61.7246 23.3731 61.2174 23.3731C60.6778 23.3731 60.1869 23.4966 59.7448 23.7437C59.3027 23.9907 58.9516 24.3386 58.6915 24.7872ZM81.0148 21.4324C81.0148 20.5612 81.2131 19.7875 81.6097 19.1113C82.0062 18.4286 82.5622 17.8988 83.2774 17.5217C83.999 17.1381 84.841 16.9398 85.8032 16.9268V19.2966C85.3546 19.3031 84.971 19.3974 84.6525 19.5794C84.3404 19.755 84.0998 20.0118 83.9307 20.3499C83.7752 20.6611 83.6912 21.0219 83.6789 21.4324H85.7447V23.6852H83.6773V32.1796H81.0148V23.6852H79.2984V21.4324H81.0148ZM96.2867 32.4135C95.2009 32.4135 94.2289 32.1762 93.3707 31.7017C92.519 31.2205 91.8493 30.5574 91.3617 29.7121C90.8805 28.8604 90.64 27.895 90.64 26.8156C90.64 25.7299 90.8805 24.7611 91.3617 23.9094C91.8493 23.0512 92.519 22.3848 93.3707 21.9102C94.2289 21.4356 95.2009 21.1982 96.2867 21.1982C97.3789 21.1982 98.3542 21.4356 99.2123 21.9102C100.077 22.3848 100.75 23.048 101.231 23.8997C101.712 24.7514 101.956 25.7234 101.963 26.8156C101.956 27.895 101.712 28.8604 101.231 29.7121C100.757 30.5574 100.087 31.2205 99.2221 31.7017C98.3574 32.1762 97.3789 32.4135 96.2867 32.4135ZM96.2867 29.9657C96.8588 29.9657 97.3659 29.8356 97.808 29.5756C98.2502 29.309 98.5914 28.9384 98.8321 28.4638C99.0726 27.9827 99.1928 27.4333 99.1928 26.8156C99.1928 26.1915 99.0726 25.6388 98.8321 25.1577C98.5914 24.6766 98.2502 24.306 97.808 24.046C97.3659 23.7794 96.8588 23.6461 96.2867 23.6461C95.7211 23.6461 95.2172 23.7794 94.775 24.046C94.3395 24.306 94.0013 24.6766 93.7608 25.1577C93.5202 25.6388 93.4032 26.1915 93.4097 26.8156C93.4097 27.4333 93.53 27.9827 93.7705 28.4638C94.0176 28.9384 94.3556 29.309 94.7848 29.5756C95.2204 29.8356 95.7211 29.9657 96.2867 29.9657ZM104.84 21.4324H101.875L105.083 32.1796H107.678L109.788 25.3153L112.066 32.1796H114.621L117.84 21.4324H115.158L113.332 28.1218L111.315 21.4324H108.721L106.713 28.2691L104.84 21.4324Z" fill="black"/>
<path d="M33.0596 15.0225L23.1943 34.3083H13.9279L18.0565 26.3154H17.8713C14.4652 30.737 9.38316 33.6477 2.14209 34.3083V26.4261C2.14209 26.4261 6.77438 26.1524 9.49757 23.2894H2.14209V15.0226H10.4089V21.8219L10.5944 21.8211L13.9725 15.0226H20.2245V21.7788L20.4099 21.7785L23.9148 15.0225H33.0596ZM86.8565 32.1795H89.5189V16.8975H86.8565V32.1795ZM72.1789 32.0235C72.7575 32.264 73.3459 32.3844 73.9441 32.3844C74.9323 32.3844 75.8165 32.1438 76.5967 31.6626C77.3768 31.1816 77.9816 30.5185 78.4107 29.6732C78.8398 28.8215 79.0543 27.8559 79.0543 26.7767C79.0543 25.6974 78.8332 24.732 78.3912 23.8803C77.949 23.0286 77.3346 22.3686 76.5479 21.9005C75.7612 21.4259 74.8672 21.1918 73.866 21.1983C73.2289 21.1983 72.6177 21.3219 72.0325 21.5689C71.4474 21.816 70.9598 22.1671 70.5697 22.6222C70.5396 22.6569 70.5103 22.6918 70.4819 22.7272V16.9073H67.8098V32.1796H70.4624L70.4571 30.7529C70.5257 30.837 70.5991 30.9192 70.6769 30.9995C71.0995 31.4352 71.6002 31.7764 72.1789 32.0235ZM74.9095 29.5562C74.4739 29.8228 73.9765 29.9561 73.4174 29.9561C72.8647 29.9561 72.3576 29.8195 71.896 29.5464C71.4343 29.2668 71.0671 28.8866 70.7939 28.4054C70.5274 27.9243 70.3941 27.3781 70.3941 26.7669C70.3877 26.1558 70.5176 25.6097 70.7842 25.1286C71.0573 24.641 71.4246 24.2639 71.8863 23.9973C72.3478 23.7242 72.8583 23.5909 73.4174 23.5974C73.9765 23.5909 74.4739 23.721 74.9095 23.9875C75.3516 24.2476 75.6897 24.6214 75.9238 25.1091C76.1643 25.5902 76.2846 26.1428 76.2846 26.7669C76.2846 27.3912 76.1643 27.9438 75.9238 28.4249C75.6897 28.9061 75.3516 29.2831 74.9095 29.5562ZM36.9166 17.824H39.9594L42.6812 27.7643L45.5768 17.824H48.1124L51.2527 27.5648L53.8664 17.824H56.6555L52.54 32.1796H49.9166L46.7233 22.6635L43.7921 32.1796H41.1394L36.9166 17.824ZM61.1492 32.4331C60.0893 32.4396 59.1336 32.2055 58.2819 31.731C57.4367 31.2498 56.7703 30.5833 56.2826 29.7317C55.8016 28.88 55.561 27.908 55.561 26.8156C55.561 25.7559 55.8081 24.7969 56.3022 23.9387C56.7963 23.0805 57.4659 22.4108 58.3112 21.9297C59.1564 21.4486 60.0991 21.2081 61.1393 21.2081C62.3097 21.2081 63.3336 21.4681 64.2113 21.9882C65.0956 22.5084 65.7555 23.2463 66.1911 24.202C66.6332 25.1513 66.7925 26.2403 66.669 27.4691H58.3154C58.3387 27.9586 58.4609 28.404 58.6818 28.8052C58.9289 29.2473 59.2734 29.5918 59.7155 29.8389C60.1577 30.086 60.6517 30.2095 61.1979 30.2095C61.614 30.203 62.0009 30.1315 62.3584 29.995C62.7161 29.852 63.0183 29.6602 63.2654 29.4195C63.519 29.179 63.6978 28.906 63.8018 28.6004H66.591C66.4219 29.3481 66.0839 30.0145 65.5768 30.5996C65.0696 31.1783 64.4325 31.6301 63.6652 31.9552C62.8981 32.2803 62.0594 32.4396 61.1492 32.4331ZM58.6915 24.7872C58.5358 25.0589 58.4277 25.3514 58.3676 25.6649H63.9051C63.865 25.2689 63.7427 24.9081 63.5385 24.5824C63.3044 24.1988 62.9858 23.903 62.5828 23.6949C62.1797 23.4804 61.7246 23.3731 61.2174 23.3731C60.6778 23.3731 60.1869 23.4966 59.7448 23.7437C59.3027 23.9907 58.9516 24.3386 58.6915 24.7872ZM81.0148 21.4324C81.0148 20.5612 81.2131 19.7875 81.6097 19.1113C82.0062 18.4286 82.5622 17.8988 83.2774 17.5217C83.999 17.1381 84.841 16.9398 85.8032 16.9268V19.2966C85.3546 19.3031 84.971 19.3974 84.6525 19.5794C84.3404 19.755 84.0998 20.0118 83.9307 20.3499C83.7752 20.6611 83.6912 21.0219 83.6789 21.4324H85.7447V23.6852H83.6773V32.1796H81.0148V23.6852H79.2984V21.4324H81.0148ZM96.2867 32.4135C95.2009 32.4135 94.2289 32.1762 93.3707 31.7017C92.519 31.2205 91.8493 30.5574 91.3617 29.7121C90.8805 28.8604 90.64 27.895 90.64 26.8156C90.64 25.7299 90.8805 24.7611 91.3617 23.9094C91.8493 23.0512 92.519 22.3848 93.3707 21.9102C94.2289 21.4356 95.2009 21.1982 96.2867 21.1982C97.3789 21.1982 98.3542 21.4356 99.2123 21.9102C100.077 22.3848 100.75 23.048 101.231 23.8997C101.712 24.7514 101.956 25.7234 101.963 26.8156C101.956 27.895 101.712 28.8604 101.231 29.7121C100.757 30.5574 100.087 31.2205 99.2221 31.7017C98.3574 32.1762 97.3789 32.4135 96.2867 32.4135ZM96.2867 29.9657C96.8588 29.9657 97.3659 29.8356 97.808 29.5756C98.2502 29.309 98.5914 28.9384 98.8321 28.4638C99.0726 27.9827 99.1928 27.4333 99.1928 26.8156C99.1928 26.1915 99.0726 25.6388 98.8321 25.1577C98.5914 24.6766 98.2502 24.306 97.808 24.046C97.3659 23.7794 96.8588 23.6461 96.2867 23.6461C95.7211 23.6461 95.2172 23.7794 94.775 24.046C94.3395 24.306 94.0013 24.6766 93.7608 25.1577C93.5202 25.6388 93.4032 26.1915 93.4097 26.8156C93.4097 27.4333 93.53 27.9827 93.7705 28.4638C94.0176 28.9384 94.3556 29.309 94.7848 29.5756C95.2204 29.8356 95.7211 29.9657 96.2867 29.9657ZM104.84 21.4324H101.875L105.083 32.1796H107.678L109.788 25.3153L112.066 32.1796H114.621L117.84 21.4324H115.158L113.332 28.1218L111.315 21.4324H108.721L106.713 28.2691L104.84 21.4324Z" fill="black"/>
<path fill-rule="evenodd" clip-rule="evenodd" d="M33.0596 15.0225L23.1943 34.3083H13.9279L18.0565 26.3154H17.8713C14.4652 30.737 9.38316 33.6477 2.14209 34.3083V26.4261C2.14209 26.4261 6.77438 26.1524 9.49757 23.2894H2.14209V15.0226H10.4089V21.8219L10.5944 21.8211L13.9725 15.0226H20.2245V21.7788L20.4099 21.7785L23.9148 15.0225H33.0596ZM86.8565 32.1795H89.5189V16.8975H86.8565V32.1795ZM72.1789 32.0235C72.7575 32.264 73.3459 32.3844 73.9441 32.3844C74.9323 32.3844 75.8165 32.1438 76.5967 31.6626C77.3768 31.1816 77.9816 30.5185 78.4107 29.6732C78.8398 28.8215 79.0543 27.8559 79.0543 26.7767C79.0543 25.6974 78.8332 24.732 78.3912 23.8803C77.949 23.0286 77.3346 22.3686 76.5479 21.9005C75.7612 21.4259 74.8672 21.1918 73.866 21.1983C73.2289 21.1983 72.6177 21.3219 72.0325 21.5689C71.4474 21.816 70.9598 22.1671 70.5697 22.6222C70.5396 22.6569 70.5103 22.6918 70.4819 22.7272V16.9073H67.8098V32.1796H70.4624L70.4571 30.7529C70.5257 30.837 70.5991 30.9192 70.6769 30.9995C71.0995 31.4352 71.6002 31.7764 72.1789 32.0235ZM74.9095 29.5562C74.4739 29.8228 73.9765 29.9561 73.4174 29.9561C72.8647 29.9561 72.3576 29.8195 71.896 29.5464C71.4343 29.2668 71.0671 28.8866 70.7939 28.4054C70.5274 27.9243 70.3941 27.3781 70.3941 26.7669C70.3877 26.1558 70.5176 25.6097 70.7842 25.1286C71.0573 24.641 71.4246 24.2639 71.8863 23.9973C72.3478 23.7242 72.8583 23.5909 73.4174 23.5974C73.9765 23.5909 74.4739 23.721 74.9095 23.9875C75.3516 24.2476 75.6897 24.6214 75.9238 25.1091C76.1643 25.5902 76.2846 26.1428 76.2846 26.7669C76.2846 27.3912 76.1643 27.9438 75.9238 28.4249C75.6897 28.9061 75.3516 29.2831 74.9095 29.5562ZM36.9166 17.824H39.9594L42.6812 27.7643L45.5768 17.824H48.1124L51.2527 27.5648L53.8664 17.824H56.6555L52.54 32.1796H49.9166L46.7233 22.6635L43.7921 32.1796H41.1394L36.9166 17.824ZM61.1492 32.4331C60.0893 32.4396 59.1336 32.2055 58.2819 31.731C57.4367 31.2498 56.7703 30.5833 56.2826 29.7317C55.8016 28.88 55.561 27.908 55.561 26.8156C55.561 25.7559 55.8081 24.7969 56.3022 23.9387C56.7963 23.0805 57.4659 22.4108 58.3112 21.9297C59.1564 21.4486 60.0991 21.2081 61.1393 21.2081C62.3097 21.2081 63.3336 21.4681 64.2113 21.9882C65.0956 22.5084 65.7555 23.2463 66.1911 24.202C66.6332 25.1513 66.7925 26.2403 66.669 27.4691H58.3154C58.3387 27.9586 58.4609 28.404 58.6818 28.8052C58.9289 29.2473 59.2734 29.5918 59.7155 29.8389C60.1577 30.086 60.6517 30.2095 61.1979 30.2095C61.614 30.203 62.0009 30.1315 62.3584 29.995C62.7161 29.852 63.0183 29.6602 63.2654 29.4195C63.519 29.179 63.6978 28.906 63.8018 28.6004H66.591C66.4219 29.3481 66.0839 30.0145 65.5768 30.5996C65.0696 31.1783 64.4325 31.6301 63.6652 31.9552C62.8981 32.2803 62.0594 32.4396 61.1492 32.4331ZM58.6915 24.7872C58.5358 25.0589 58.4277 25.3514 58.3676 25.6649H63.9051C63.865 25.2689 63.7427 24.9081 63.5385 24.5824C63.3044 24.1988 62.9858 23.903 62.5828 23.6949C62.1797 23.4804 61.7246 23.3731 61.2174 23.3731C60.6778 23.3731 60.1869 23.4966 59.7448 23.7437C59.3027 23.9907 58.9516 24.3386 58.6915 24.7872ZM81.0148 21.4324C81.0148 20.5612 81.2131 19.7875 81.6097 19.1113C82.0062 18.4286 82.5622 17.8988 83.2774 17.5217C83.999 17.1381 84.841 16.9398 85.8032 16.9268V19.2966C85.3546 19.3031 84.971 19.3974 84.6525 19.5794C84.3404 19.755 84.0998 20.0118 83.9307 20.3499C83.7752 20.6611 83.6912 21.0219 83.6789 21.4324H85.7447V23.6852H83.6773V32.1796H81.0148V23.6852H79.2984V21.4324H81.0148ZM96.2867 32.4135C95.2009 32.4135 94.2289 32.1762 93.3707 31.7017C92.519 31.2205 91.8493 30.5574 91.3617 29.7121C90.8805 28.8604 90.64 27.895 90.64 26.8156C90.64 25.7299 90.8805 24.7611 91.3617 23.9094C91.8493 23.0512 92.519 22.3848 93.3707 21.9102C94.2289 21.4356 95.2009 21.1982 96.2867 21.1982C97.3789 21.1982 98.3542 21.4356 99.2123 21.9102C100.077 22.3848 100.75 23.048 101.231 23.8997C101.712 24.7514 101.956 25.7234 101.963 26.8156C101.956 27.895 101.712 28.8604 101.231 29.7121C100.757 30.5574 100.087 31.2205 99.2221 31.7017C98.3574 32.1762 97.3789 32.4135 96.2867 32.4135ZM96.2867 29.9657C96.8588 29.9657 97.3659 29.8356 97.808 29.5756C98.2502 29.309 98.5914 28.9384 98.8321 28.4638C99.0726 27.9827 99.1928 27.4333 99.1928 26.8156C99.1928 26.1915 99.0726 25.6388 98.8321 25.1577C98.5914 24.6766 98.2502 24.306 97.808 24.046C97.3659 23.7794 96.8588 23.6461 96.2867 23.6461C95.7211 23.6461 95.2172 23.7794 94.775 24.046C94.3395 24.306 94.0013 24.6766 93.7608 25.1577C93.5202 25.6388 93.4032 26.1915 93.4097 26.8156C93.4097 27.4333 93.53 27.9827 93.7705 28.4638C94.0176 28.9384 94.3556 29.309 94.7848 29.5756C95.2204 29.8356 95.7211 29.9657 96.2867 29.9657ZM104.84 21.4324H101.875L105.083 32.1796H107.678L109.788 25.3153L112.066 32.1796H114.621L117.84 21.4324H115.158L113.332 28.1218L111.315 21.4324H108.721L106.713 28.2691L104.84 21.4324Z" fill="black"/>
<path d="M33.0596 15.0225L23.1943 34.3083H13.9279L18.0565 26.3154H17.8713C14.4652 30.737 9.38316 33.6477 2.14209 34.3083V26.4261C2.14209 26.4261 6.77438 26.1524 9.49757 23.2894H2.14209V15.0226H10.4089V21.8219L10.5944 21.8211L13.9725 15.0226H20.2245V21.7788L20.4099 21.7785L23.9148 15.0225H33.0596ZM86.8565 32.1795H89.5189V16.8975H86.8565V32.1795ZM72.1789 32.0235C72.7575 32.264 73.3459 32.3844 73.9441 32.3844C74.9323 32.3844 75.8165 32.1438 76.5967 31.6626C77.3768 31.1816 77.9816 30.5185 78.4107 29.6732C78.8398 28.8215 79.0543 27.8559 79.0543 26.7767C79.0543 25.6974 78.8332 24.732 78.3912 23.8803C77.949 23.0286 77.3346 22.3686 76.5479 21.9005C75.7612 21.4259 74.8672 21.1918 73.866 21.1983C73.2289 21.1983 72.6177 21.3219 72.0325 21.5689C71.4474 21.816 70.9598 22.1671 70.5697 22.6222C70.5396 22.6569 70.5103 22.6918 70.4819 22.7272V16.9073H67.8098V32.1796H70.4624L70.4571 30.7529C70.5257 30.837 70.5991 30.9192 70.6769 30.9995C71.0995 31.4352 71.6002 31.7764 72.1789 32.0235ZM74.9095 29.5562C74.4739 29.8228 73.9765 29.9561 73.4174 29.9561C72.8647 29.9561 72.3576 29.8195 71.896 29.5464C71.4343 29.2668 71.0671 28.8866 70.7939 28.4054C70.5274 27.9243 70.3941 27.3781 70.3941 26.7669C70.3877 26.1558 70.5176 25.6097 70.7842 25.1286C71.0573 24.641 71.4246 24.2639 71.8863 23.9973C72.3478 23.7242 72.8583 23.5909 73.4174 23.5974C73.9765 23.5909 74.4739 23.721 74.9095 23.9875C75.3516 24.2476 75.6897 24.6214 75.9238 25.1091C76.1643 25.5902 76.2846 26.1428 76.2846 26.7669C76.2846 27.3912 76.1643 27.9438 75.9238 28.4249C75.6897 28.9061 75.3516 29.2831 74.9095 29.5562ZM36.9166 17.824H39.9594L42.6812 27.7643L45.5768 17.824H48.1124L51.2527 27.5648L53.8664 17.824H56.6555L52.54 32.1796H49.9166L46.7233 22.6635L43.7921 32.1796H41.1394L36.9166 17.824ZM61.1492 32.4331C60.0893 32.4396 59.1336 32.2055 58.2819 31.731C57.4367 31.2498 56.7703 30.5833 56.2826 29.7317C55.8016 28.88 55.561 27.908 55.561 26.8156C55.561 25.7559 55.8081 24.7969 56.3022 23.9387C56.7963 23.0805 57.4659 22.4108 58.3112 21.9297C59.1564 21.4486 60.0991 21.2081 61.1393 21.2081C62.3097 21.2081 63.3336 21.4681 64.2113 21.9882C65.0956 22.5084 65.7555 23.2463 66.1911 24.202C66.6332 25.1513 66.7925 26.2403 66.669 27.4691H58.3154C58.3387 27.9586 58.4609 28.404 58.6818 28.8052C58.9289 29.2473 59.2734 29.5918 59.7155 29.8389C60.1577 30.086 60.6517 30.2095 61.1979 30.2095C61.614 30.203 62.0009 30.1315 62.3584 29.995C62.7161 29.852 63.0183 29.6602 63.2654 29.4195C63.519 29.179 63.6978 28.906 63.8018 28.6004H66.591C66.4219 29.3481 66.0839 30.0145 65.5768 30.5996C65.0696 31.1783 64.4325 31.6301 63.6652 31.9552C62.8981 32.2803 62.0594 32.4396 61.1492 32.4331ZM58.6915 24.7872C58.5358 25.0589 58.4277 25.3514 58.3676 25.6649H63.9051C63.865 25.2689 63.7427 24.9081 63.5385 24.5824C63.3044 24.1988 62.9858 23.903 62.5828 23.6949C62.1797 23.4804 61.7246 23.3731 61.2174 23.3731C60.6778 23.3731 60.1869 23.4966 59.7448 23.7437C59.3027 23.9907 58.9516 24.3386 58.6915 24.7872ZM81.0148 21.4324C81.0148 20.5612 81.2131 19.7875 81.6097 19.1113C82.0062 18.4286 82.5622 17.8988 83.2774 17.5217C83.999 17.1381 84.841 16.9398 85.8032 16.9268V19.2966C85.3546 19.3031 84.971 19.3974 84.6525 19.5794C84.3404 19.755 84.0998 20.0118 83.9307 20.3499C83.7752 20.6611 83.6912 21.0219 83.6789 21.4324H85.7447V23.6852H83.6773V32.1796H81.0148V23.6852H79.2984V21.4324H81.0148ZM96.2867 32.4135C95.2009 32.4135 94.2289 32.1762 93.3707 31.7017C92.519 31.2205 91.8493 30.5574 91.3617 29.7121C90.8805 28.8604 90.64 27.895 90.64 26.8156C90.64 25.7299 90.8805 24.7611 91.3617 23.9094C91.8493 23.0512 92.519 22.3848 93.3707 21.9102C94.2289 21.4356 95.2009 21.1982 96.2867 21.1982C97.3789 21.1982 98.3542 21.4356 99.2123 21.9102C100.077 22.3848 100.75 23.048 101.231 23.8997C101.712 24.7514 101.956 25.7234 101.963 26.8156C101.956 27.895 101.712 28.8604 101.231 29.7121C100.757 30.5574 100.087 31.2205 99.2221 31.7017C98.3574 32.1762 97.3789 32.4135 96.2867 32.4135ZM96.2867 29.9657C96.8588 29.9657 97.3659 29.8356 97.808 29.5756C98.2502 29.309 98.5914 28.9384 98.8321 28.4638C99.0726 27.9827 99.1928 27.4333 99.1928 26.8156C99.1928 26.1915 99.0726 25.6388 98.8321 25.1577C98.5914 24.6766 98.2502 24.306 97.808 24.046C97.3659 23.7794 96.8588 23.6461 96.2867 23.6461C95.7211 23.6461 95.2172 23.7794 94.775 24.046C94.3395 24.306 94.0013 24.6766 93.7608 25.1577C93.5202 25.6388 93.4032 26.1915 93.4097 26.8156C93.4097 27.4333 93.53 27.9827 93.7705 28.4638C94.0176 28.9384 94.3556 29.309 94.7848 29.5756C95.2204 29.8356 95.7211 29.9657 96.2867 29.9657ZM104.84 21.4324H101.875L105.083 32.1796H107.678L109.788 25.3153L112.066 32.1796H114.621L117.84 21.4324H115.158L113.332 28.1218L111.315 21.4324H108.721L106.713 28.2691L104.84 21.4324Z" fill="black"/>
</svg>
