<svg width="120" height="49" viewBox="0 0 120 49" fill="none" xmlns="http://www.w3.org/2000/svg">
<path fill-rule="evenodd" clip-rule="evenodd" d="M33.0596 15.1338L23.1943 34.4196H13.9279L18.0565 26.4267H17.8713C14.4652 30.8483 9.38316 33.7591 2.14209 34.4196V26.5374C2.14209 26.5374 6.77438 26.2637 9.49757 23.4007H2.14209V15.1339H10.4089V21.9332L10.5944 21.9325L13.9725 15.1339H20.2245V21.8901L20.4099 21.8898L23.9148 15.1338H33.0596ZM86.8565 32.2909H89.5189V17.0088H86.8565V32.2909ZM72.1789 32.1348C72.7575 32.3754 73.3459 32.4957 73.9441 32.4957C74.9323 32.4957 75.8165 32.2551 76.5967 31.774C77.3768 31.2929 77.9816 30.6298 78.4107 29.7845C78.8398 28.9328 79.0543 27.9673 79.0543 26.888C79.0543 25.8088 78.8332 24.8433 78.3912 23.9916C77.949 23.1399 77.3346 22.48 76.5479 22.0118C75.7612 21.5372 74.8672 21.3032 73.866 21.3097C73.2289 21.3097 72.6177 21.4332 72.0325 21.6803C71.4474 21.9273 70.9598 22.2784 70.5697 22.7335C70.5396 22.7682 70.5103 22.8032 70.4819 22.8385V17.0186H67.8098V32.2909H70.4624L70.4571 30.8642C70.5257 30.9483 70.5991 31.0305 70.6769 31.1109C71.0995 31.5465 71.6002 31.8878 72.1789 32.1348ZM74.9095 29.6675C74.4739 29.9341 73.9765 30.0674 73.4174 30.0674C72.8647 30.0674 72.3576 29.9308 71.896 29.6578C71.4343 29.3781 71.0671 28.9979 70.7939 28.5167C70.5274 28.0356 70.3941 27.4894 70.3941 26.8783C70.3877 26.2671 70.5176 25.721 70.7842 25.2399C71.0573 24.7523 71.4246 24.3752 71.8863 24.1086C72.3478 23.8356 72.8583 23.7023 73.4174 23.7088C73.9765 23.7023 74.4739 23.8323 74.9095 24.0989C75.3516 24.3589 75.6897 24.7328 75.9238 25.2204C76.1643 25.7015 76.2846 26.2542 76.2846 26.8783C76.2846 27.5025 76.1643 28.0551 75.9238 28.5362C75.6897 29.0174 75.3516 29.3944 74.9095 29.6675ZM36.9166 17.9353H39.9594L42.6812 27.8756L45.5768 17.9353H48.1124L51.2527 27.6761L53.8664 17.9353H56.6555L52.54 32.2909H49.9166L46.7233 22.7749L43.7921 32.2909H41.1394L36.9166 17.9353ZM61.1492 32.5444C60.0893 32.5509 59.1336 32.3168 58.2819 31.8423C57.4367 31.3611 56.7703 30.6947 56.2826 29.843C55.8016 28.9913 55.561 28.0193 55.561 26.927C55.561 25.8672 55.8081 24.9083 56.3022 24.0501C56.7963 23.1918 57.4659 22.5222 58.3112 22.0411C59.1564 21.5599 60.0991 21.3194 61.1393 21.3194C62.3097 21.3194 63.3336 21.5794 64.2113 22.0996C65.0956 22.6197 65.7555 23.3576 66.1911 24.3134C66.6332 25.2626 66.7925 26.3516 66.669 27.5804H58.3154C58.3387 28.07 58.4609 28.5154 58.6818 28.9165C58.9289 29.3586 59.2734 29.7032 59.7155 29.9502C60.1577 30.1973 60.6517 30.3208 61.1979 30.3208C61.614 30.3143 62.0009 30.2428 62.3584 30.1063C62.7161 29.9633 63.0183 29.7715 63.2654 29.5309C63.519 29.2903 63.6978 29.0173 63.8018 28.7118H66.591C66.4219 29.4594 66.0839 30.1258 65.5768 30.711C65.0696 31.2896 64.4325 31.7415 63.6652 32.0665C62.8981 32.3916 62.0594 32.5509 61.1492 32.5444ZM58.6915 24.8985C58.5358 25.1702 58.4277 25.4627 58.3676 25.7762H63.9051C63.865 25.3802 63.7427 25.0194 63.5385 24.6937C63.3044 24.3101 62.9858 24.0143 62.5828 23.8062C62.1797 23.5917 61.7246 23.4844 61.2174 23.4844C60.6778 23.4844 60.1869 23.6079 59.7448 23.855C59.3027 24.1021 58.9516 24.4499 58.6915 24.8985ZM81.0148 21.5437C81.0148 20.6725 81.2131 19.8988 81.6097 19.2226C82.0062 18.54 82.5622 18.0101 83.2774 17.633C83.999 17.2494 84.841 17.0511 85.8032 17.0381V19.4079C85.3546 19.4144 84.971 19.5087 84.6525 19.6908C84.3404 19.8663 84.0998 20.1231 83.9307 20.4612C83.7752 20.7724 83.6912 21.1333 83.6789 21.5437H85.7447V23.7965H83.6773V32.2909H81.0148V23.7965H79.2984V21.5437H81.0148ZM96.2867 32.5248C95.2009 32.5248 94.2289 32.2875 93.3707 31.813C92.519 31.3318 91.8493 30.6687 91.3617 29.8234C90.8805 28.9718 90.64 28.0063 90.64 26.9269C90.64 25.8412 90.8805 24.8725 91.3617 24.0208C91.8493 23.1625 92.519 22.4961 93.3707 22.0215C94.2289 21.5469 95.2009 21.3096 96.2867 21.3096C97.3789 21.3096 98.3542 21.5469 99.2123 22.0215C100.077 22.4961 100.75 23.1593 101.231 24.011C101.712 24.8627 101.956 25.8347 101.963 26.9269C101.956 28.0063 101.712 28.9718 101.231 29.8234C100.757 30.6687 100.087 31.3318 99.2221 31.813C98.3574 32.2875 97.3789 32.5248 96.2867 32.5248ZM96.2867 30.077C96.8588 30.077 97.3659 29.947 97.808 29.6869C98.2502 29.4204 98.5914 29.0498 98.8321 28.5751C99.0726 28.094 99.1928 27.5446 99.1928 26.9269C99.1928 26.3028 99.0726 25.7502 98.8321 25.2691C98.5914 24.7879 98.2502 24.4174 97.808 24.1573C97.3659 23.8907 96.8588 23.7574 96.2867 23.7574C95.7211 23.7574 95.2172 23.8907 94.775 24.1573C94.3395 24.4174 94.0013 24.7879 93.7608 25.2691C93.5202 25.7502 93.4032 26.3028 93.4097 26.9269C93.4097 27.5446 93.53 28.094 93.7705 28.5751C94.0176 29.0498 94.3556 29.4204 94.7848 29.6869C95.2204 29.947 95.7211 30.077 96.2867 30.077ZM104.84 21.5437H101.875L105.083 32.2909H107.678L109.788 25.4266L112.066 32.2909H114.621L117.84 21.5437H115.158L113.332 28.2332L111.315 21.5437H108.721L106.713 28.3805L104.84 21.5437Z" fill="black"/>
<path d="M33.0596 15.1338L23.1943 34.4196H13.9279L18.0565 26.4267H17.8713C14.4652 30.8483 9.38316 33.7591 2.14209 34.4196V26.5374C2.14209 26.5374 6.77438 26.2637 9.49757 23.4007H2.14209V15.1339H10.4089V21.9332L10.5944 21.9325L13.9725 15.1339H20.2245V21.8901L20.4099 21.8898L23.9148 15.1338H33.0596ZM86.8565 32.2909H89.5189V17.0088H86.8565V32.2909ZM72.1789 32.1348C72.7575 32.3754 73.3459 32.4957 73.9441 32.4957C74.9323 32.4957 75.8165 32.2551 76.5967 31.774C77.3768 31.2929 77.9816 30.6298 78.4107 29.7845C78.8398 28.9328 79.0543 27.9673 79.0543 26.888C79.0543 25.8088 78.8332 24.8433 78.3912 23.9916C77.949 23.1399 77.3346 22.48 76.5479 22.0118C75.7612 21.5372 74.8672 21.3032 73.866 21.3097C73.2289 21.3097 72.6177 21.4332 72.0325 21.6803C71.4474 21.9273 70.9598 22.2784 70.5697 22.7335C70.5396 22.7682 70.5103 22.8032 70.4819 22.8385V17.0186H67.8098V32.2909H70.4624L70.4571 30.8642C70.5257 30.9483 70.5991 31.0305 70.6769 31.1109C71.0995 31.5465 71.6002 31.8878 72.1789 32.1348ZM74.9095 29.6675C74.4739 29.9341 73.9765 30.0674 73.4174 30.0674C72.8647 30.0674 72.3576 29.9308 71.896 29.6578C71.4343 29.3781 71.0671 28.9979 70.7939 28.5167C70.5274 28.0356 70.3941 27.4894 70.3941 26.8783C70.3877 26.2671 70.5176 25.721 70.7842 25.2399C71.0573 24.7523 71.4246 24.3752 71.8863 24.1086C72.3478 23.8356 72.8583 23.7023 73.4174 23.7088C73.9765 23.7023 74.4739 23.8323 74.9095 24.0989C75.3516 24.3589 75.6897 24.7328 75.9238 25.2204C76.1643 25.7015 76.2846 26.2542 76.2846 26.8783C76.2846 27.5025 76.1643 28.0551 75.9238 28.5362C75.6897 29.0174 75.3516 29.3944 74.9095 29.6675ZM36.9166 17.9353H39.9594L42.6812 27.8756L45.5768 17.9353H48.1124L51.2527 27.6761L53.8664 17.9353H56.6555L52.54 32.2909H49.9166L46.7233 22.7749L43.7921 32.2909H41.1394L36.9166 17.9353ZM61.1492 32.5444C60.0893 32.5509 59.1336 32.3168 58.2819 31.8423C57.4367 31.3611 56.7703 30.6947 56.2826 29.843C55.8016 28.9913 55.561 28.0193 55.561 26.927C55.561 25.8672 55.8081 24.9083 56.3022 24.0501C56.7963 23.1918 57.4659 22.5222 58.3112 22.0411C59.1564 21.5599 60.0991 21.3194 61.1393 21.3194C62.3097 21.3194 63.3336 21.5794 64.2113 22.0996C65.0956 22.6197 65.7555 23.3576 66.1911 24.3134C66.6332 25.2626 66.7925 26.3516 66.669 27.5804H58.3154C58.3387 28.07 58.4609 28.5154 58.6818 28.9165C58.9289 29.3586 59.2734 29.7032 59.7155 29.9502C60.1577 30.1973 60.6517 30.3208 61.1979 30.3208C61.614 30.3143 62.0009 30.2428 62.3584 30.1063C62.7161 29.9633 63.0183 29.7715 63.2654 29.5309C63.519 29.2903 63.6978 29.0173 63.8018 28.7118H66.591C66.4219 29.4594 66.0839 30.1258 65.5768 30.711C65.0696 31.2896 64.4325 31.7415 63.6652 32.0665C62.8981 32.3916 62.0594 32.5509 61.1492 32.5444ZM58.6915 24.8985C58.5358 25.1702 58.4277 25.4627 58.3676 25.7762H63.9051C63.865 25.3802 63.7427 25.0194 63.5385 24.6937C63.3044 24.3101 62.9858 24.0143 62.5828 23.8062C62.1797 23.5917 61.7246 23.4844 61.2174 23.4844C60.6778 23.4844 60.1869 23.6079 59.7448 23.855C59.3027 24.1021 58.9516 24.4499 58.6915 24.8985ZM81.0148 21.5437C81.0148 20.6725 81.2131 19.8988 81.6097 19.2226C82.0062 18.54 82.5622 18.0101 83.2774 17.633C83.999 17.2494 84.841 17.0511 85.8032 17.0381V19.4079C85.3546 19.4144 84.971 19.5087 84.6525 19.6908C84.3404 19.8663 84.0998 20.1231 83.9307 20.4612C83.7752 20.7724 83.6912 21.1333 83.6789 21.5437H85.7447V23.7965H83.6773V32.2909H81.0148V23.7965H79.2984V21.5437H81.0148ZM96.2867 32.5248C95.2009 32.5248 94.2289 32.2875 93.3707 31.813C92.519 31.3318 91.8493 30.6687 91.3617 29.8234C90.8805 28.9718 90.64 28.0063 90.64 26.9269C90.64 25.8412 90.8805 24.8725 91.3617 24.0208C91.8493 23.1625 92.519 22.4961 93.3707 22.0215C94.2289 21.5469 95.2009 21.3096 96.2867 21.3096C97.3789 21.3096 98.3542 21.5469 99.2123 22.0215C100.077 22.4961 100.75 23.1593 101.231 24.011C101.712 24.8627 101.956 25.8347 101.963 26.9269C101.956 28.0063 101.712 28.9718 101.231 29.8234C100.757 30.6687 100.087 31.3318 99.2221 31.813C98.3574 32.2875 97.3789 32.5248 96.2867 32.5248ZM96.2867 30.077C96.8588 30.077 97.3659 29.947 97.808 29.6869C98.2502 29.4204 98.5914 29.0498 98.8321 28.5751C99.0726 28.094 99.1928 27.5446 99.1928 26.9269C99.1928 26.3028 99.0726 25.7502 98.8321 25.2691C98.5914 24.7879 98.2502 24.4174 97.808 24.1573C97.3659 23.8907 96.8588 23.7574 96.2867 23.7574C95.7211 23.7574 95.2172 23.8907 94.775 24.1573C94.3395 24.4174 94.0013 24.7879 93.7608 25.2691C93.5202 25.7502 93.4032 26.3028 93.4097 26.9269C93.4097 27.5446 93.53 28.094 93.7705 28.5751C94.0176 29.0498 94.3556 29.4204 94.7848 29.6869C95.2204 29.947 95.7211 30.077 96.2867 30.077ZM104.84 21.5437H101.875L105.083 32.2909H107.678L109.788 25.4266L112.066 32.2909H114.621L117.84 21.5437H115.158L113.332 28.2332L111.315 21.5437H108.721L106.713 28.3805L104.84 21.5437Z" fill="black"/>
<path fill-rule="evenodd" clip-rule="evenodd" d="M33.0596 15.1338L23.1943 34.4196H13.9279L18.0565 26.4267H17.8713C14.4652 30.8483 9.38316 33.7591 2.14209 34.4196V26.5374C2.14209 26.5374 6.77438 26.2637 9.49757 23.4007H2.14209V15.1339H10.4089V21.9332L10.5944 21.9325L13.9725 15.1339H20.2245V21.8901L20.4099 21.8898L23.9148 15.1338H33.0596ZM86.8565 32.2909H89.5189V17.0088H86.8565V32.2909ZM72.1789 32.1348C72.7575 32.3754 73.3459 32.4957 73.9441 32.4957C74.9323 32.4957 75.8165 32.2551 76.5967 31.774C77.3768 31.2929 77.9816 30.6298 78.4107 29.7845C78.8398 28.9328 79.0543 27.9673 79.0543 26.888C79.0543 25.8088 78.8332 24.8433 78.3912 23.9916C77.949 23.1399 77.3346 22.48 76.5479 22.0118C75.7612 21.5372 74.8672 21.3032 73.866 21.3097C73.2289 21.3097 72.6177 21.4332 72.0325 21.6803C71.4474 21.9273 70.9598 22.2784 70.5697 22.7335C70.5396 22.7682 70.5103 22.8032 70.4819 22.8385V17.0186H67.8098V32.2909H70.4624L70.4571 30.8642C70.5257 30.9483 70.5991 31.0305 70.6769 31.1109C71.0995 31.5465 71.6002 31.8878 72.1789 32.1348ZM74.9095 29.6675C74.4739 29.9341 73.9765 30.0674 73.4174 30.0674C72.8647 30.0674 72.3576 29.9308 71.896 29.6578C71.4343 29.3781 71.0671 28.9979 70.7939 28.5167C70.5274 28.0356 70.3941 27.4894 70.3941 26.8783C70.3877 26.2671 70.5176 25.721 70.7842 25.2399C71.0573 24.7523 71.4246 24.3752 71.8863 24.1086C72.3478 23.8356 72.8583 23.7023 73.4174 23.7088C73.9765 23.7023 74.4739 23.8323 74.9095 24.0989C75.3516 24.3589 75.6897 24.7328 75.9238 25.2204C76.1643 25.7015 76.2846 26.2542 76.2846 26.8783C76.2846 27.5025 76.1643 28.0551 75.9238 28.5362C75.6897 29.0174 75.3516 29.3944 74.9095 29.6675ZM36.9166 17.9353H39.9594L42.6812 27.8756L45.5768 17.9353H48.1124L51.2527 27.6761L53.8664 17.9353H56.6555L52.54 32.2909H49.9166L46.7233 22.7749L43.7921 32.2909H41.1394L36.9166 17.9353ZM61.1492 32.5444C60.0893 32.5509 59.1336 32.3168 58.2819 31.8423C57.4367 31.3611 56.7703 30.6947 56.2826 29.843C55.8016 28.9913 55.561 28.0193 55.561 26.927C55.561 25.8672 55.8081 24.9083 56.3022 24.0501C56.7963 23.1918 57.4659 22.5222 58.3112 22.0411C59.1564 21.5599 60.0991 21.3194 61.1393 21.3194C62.3097 21.3194 63.3336 21.5794 64.2113 22.0996C65.0956 22.6197 65.7555 23.3576 66.1911 24.3134C66.6332 25.2626 66.7925 26.3516 66.669 27.5804H58.3154C58.3387 28.07 58.4609 28.5154 58.6818 28.9165C58.9289 29.3586 59.2734 29.7032 59.7155 29.9502C60.1577 30.1973 60.6517 30.3208 61.1979 30.3208C61.614 30.3143 62.0009 30.2428 62.3584 30.1063C62.7161 29.9633 63.0183 29.7715 63.2654 29.5309C63.519 29.2903 63.6978 29.0173 63.8018 28.7118H66.591C66.4219 29.4594 66.0839 30.1258 65.5768 30.711C65.0696 31.2896 64.4325 31.7415 63.6652 32.0665C62.8981 32.3916 62.0594 32.5509 61.1492 32.5444ZM58.6915 24.8985C58.5358 25.1702 58.4277 25.4627 58.3676 25.7762H63.9051C63.865 25.3802 63.7427 25.0194 63.5385 24.6937C63.3044 24.3101 62.9858 24.0143 62.5828 23.8062C62.1797 23.5917 61.7246 23.4844 61.2174 23.4844C60.6778 23.4844 60.1869 23.6079 59.7448 23.855C59.3027 24.1021 58.9516 24.4499 58.6915 24.8985ZM81.0148 21.5437C81.0148 20.6725 81.2131 19.8988 81.6097 19.2226C82.0062 18.54 82.5622 18.0101 83.2774 17.633C83.999 17.2494 84.841 17.0511 85.8032 17.0381V19.4079C85.3546 19.4144 84.971 19.5087 84.6525 19.6908C84.3404 19.8663 84.0998 20.1231 83.9307 20.4612C83.7752 20.7724 83.6912 21.1333 83.6789 21.5437H85.7447V23.7965H83.6773V32.2909H81.0148V23.7965H79.2984V21.5437H81.0148ZM96.2867 32.5248C95.2009 32.5248 94.2289 32.2875 93.3707 31.813C92.519 31.3318 91.8493 30.6687 91.3617 29.8234C90.8805 28.9718 90.64 28.0063 90.64 26.9269C90.64 25.8412 90.8805 24.8725 91.3617 24.0208C91.8493 23.1625 92.519 22.4961 93.3707 22.0215C94.2289 21.5469 95.2009 21.3096 96.2867 21.3096C97.3789 21.3096 98.3542 21.5469 99.2123 22.0215C100.077 22.4961 100.75 23.1593 101.231 24.011C101.712 24.8627 101.956 25.8347 101.963 26.9269C101.956 28.0063 101.712 28.9718 101.231 29.8234C100.757 30.6687 100.087 31.3318 99.2221 31.813C98.3574 32.2875 97.3789 32.5248 96.2867 32.5248ZM96.2867 30.077C96.8588 30.077 97.3659 29.947 97.808 29.6869C98.2502 29.4204 98.5914 29.0498 98.8321 28.5751C99.0726 28.094 99.1928 27.5446 99.1928 26.9269C99.1928 26.3028 99.0726 25.7502 98.8321 25.2691C98.5914 24.7879 98.2502 24.4174 97.808 24.1573C97.3659 23.8907 96.8588 23.7574 96.2867 23.7574C95.7211 23.7574 95.2172 23.8907 94.775 24.1573C94.3395 24.4174 94.0013 24.7879 93.7608 25.2691C93.5202 25.7502 93.4032 26.3028 93.4097 26.9269C93.4097 27.5446 93.53 28.094 93.7705 28.5751C94.0176 29.0498 94.3556 29.4204 94.7848 29.6869C95.2204 29.947 95.7211 30.077 96.2867 30.077ZM104.84 21.5437H101.875L105.083 32.2909H107.678L109.788 25.4266L112.066 32.2909H114.621L117.84 21.5437H115.158L113.332 28.2332L111.315 21.5437H108.721L106.713 28.3805L104.84 21.5437Z" fill="black"/>
<path d="M33.0596 15.1338L23.1943 34.4196H13.9279L18.0565 26.4267H17.8713C14.4652 30.8483 9.38316 33.7591 2.14209 34.4196V26.5374C2.14209 26.5374 6.77438 26.2637 9.49757 23.4007H2.14209V15.1339H10.4089V21.9332L10.5944 21.9325L13.9725 15.1339H20.2245V21.8901L20.4099 21.8898L23.9148 15.1338H33.0596ZM86.8565 32.2909H89.5189V17.0088H86.8565V32.2909ZM72.1789 32.1348C72.7575 32.3754 73.3459 32.4957 73.9441 32.4957C74.9323 32.4957 75.8165 32.2551 76.5967 31.774C77.3768 31.2929 77.9816 30.6298 78.4107 29.7845C78.8398 28.9328 79.0543 27.9673 79.0543 26.888C79.0543 25.8088 78.8332 24.8433 78.3912 23.9916C77.949 23.1399 77.3346 22.48 76.5479 22.0118C75.7612 21.5372 74.8672 21.3032 73.866 21.3097C73.2289 21.3097 72.6177 21.4332 72.0325 21.6803C71.4474 21.9273 70.9598 22.2784 70.5697 22.7335C70.5396 22.7682 70.5103 22.8032 70.4819 22.8385V17.0186H67.8098V32.2909H70.4624L70.4571 30.8642C70.5257 30.9483 70.5991 31.0305 70.6769 31.1109C71.0995 31.5465 71.6002 31.8878 72.1789 32.1348ZM74.9095 29.6675C74.4739 29.9341 73.9765 30.0674 73.4174 30.0674C72.8647 30.0674 72.3576 29.9308 71.896 29.6578C71.4343 29.3781 71.0671 28.9979 70.7939 28.5167C70.5274 28.0356 70.3941 27.4894 70.3941 26.8783C70.3877 26.2671 70.5176 25.721 70.7842 25.2399C71.0573 24.7523 71.4246 24.3752 71.8863 24.1086C72.3478 23.8356 72.8583 23.7023 73.4174 23.7088C73.9765 23.7023 74.4739 23.8323 74.9095 24.0989C75.3516 24.3589 75.6897 24.7328 75.9238 25.2204C76.1643 25.7015 76.2846 26.2542 76.2846 26.8783C76.2846 27.5025 76.1643 28.0551 75.9238 28.5362C75.6897 29.0174 75.3516 29.3944 74.9095 29.6675ZM36.9166 17.9353H39.9594L42.6812 27.8756L45.5768 17.9353H48.1124L51.2527 27.6761L53.8664 17.9353H56.6555L52.54 32.2909H49.9166L46.7233 22.7749L43.7921 32.2909H41.1394L36.9166 17.9353ZM61.1492 32.5444C60.0893 32.5509 59.1336 32.3168 58.2819 31.8423C57.4367 31.3611 56.7703 30.6947 56.2826 29.843C55.8016 28.9913 55.561 28.0193 55.561 26.927C55.561 25.8672 55.8081 24.9083 56.3022 24.0501C56.7963 23.1918 57.4659 22.5222 58.3112 22.0411C59.1564 21.5599 60.0991 21.3194 61.1393 21.3194C62.3097 21.3194 63.3336 21.5794 64.2113 22.0996C65.0956 22.6197 65.7555 23.3576 66.1911 24.3134C66.6332 25.2626 66.7925 26.3516 66.669 27.5804H58.3154C58.3387 28.07 58.4609 28.5154 58.6818 28.9165C58.9289 29.3586 59.2734 29.7032 59.7155 29.9502C60.1577 30.1973 60.6517 30.3208 61.1979 30.3208C61.614 30.3143 62.0009 30.2428 62.3584 30.1063C62.7161 29.9633 63.0183 29.7715 63.2654 29.5309C63.519 29.2903 63.6978 29.0173 63.8018 28.7118H66.591C66.4219 29.4594 66.0839 30.1258 65.5768 30.711C65.0696 31.2896 64.4325 31.7415 63.6652 32.0665C62.8981 32.3916 62.0594 32.5509 61.1492 32.5444ZM58.6915 24.8985C58.5358 25.1702 58.4277 25.4627 58.3676 25.7762H63.9051C63.865 25.3802 63.7427 25.0194 63.5385 24.6937C63.3044 24.3101 62.9858 24.0143 62.5828 23.8062C62.1797 23.5917 61.7246 23.4844 61.2174 23.4844C60.6778 23.4844 60.1869 23.6079 59.7448 23.855C59.3027 24.1021 58.9516 24.4499 58.6915 24.8985ZM81.0148 21.5437C81.0148 20.6725 81.2131 19.8988 81.6097 19.2226C82.0062 18.54 82.5622 18.0101 83.2774 17.633C83.999 17.2494 84.841 17.0511 85.8032 17.0381V19.4079C85.3546 19.4144 84.971 19.5087 84.6525 19.6908C84.3404 19.8663 84.0998 20.1231 83.9307 20.4612C83.7752 20.7724 83.6912 21.1333 83.6789 21.5437H85.7447V23.7965H83.6773V32.2909H81.0148V23.7965H79.2984V21.5437H81.0148ZM96.2867 32.5248C95.2009 32.5248 94.2289 32.2875 93.3707 31.813C92.519 31.3318 91.8493 30.6687 91.3617 29.8234C90.8805 28.9718 90.64 28.0063 90.64 26.9269C90.64 25.8412 90.8805 24.8725 91.3617 24.0208C91.8493 23.1625 92.519 22.4961 93.3707 22.0215C94.2289 21.5469 95.2009 21.3096 96.2867 21.3096C97.3789 21.3096 98.3542 21.5469 99.2123 22.0215C100.077 22.4961 100.75 23.1593 101.231 24.011C101.712 24.8627 101.956 25.8347 101.963 26.9269C101.956 28.0063 101.712 28.9718 101.231 29.8234C100.757 30.6687 100.087 31.3318 99.2221 31.813C98.3574 32.2875 97.3789 32.5248 96.2867 32.5248ZM96.2867 30.077C96.8588 30.077 97.3659 29.947 97.808 29.6869C98.2502 29.4204 98.5914 29.0498 98.8321 28.5751C99.0726 28.094 99.1928 27.5446 99.1928 26.9269C99.1928 26.3028 99.0726 25.7502 98.8321 25.2691C98.5914 24.7879 98.2502 24.4174 97.808 24.1573C97.3659 23.8907 96.8588 23.7574 96.2867 23.7574C95.7211 23.7574 95.2172 23.8907 94.775 24.1573C94.3395 24.4174 94.0013 24.7879 93.7608 25.2691C93.5202 25.7502 93.4032 26.3028 93.4097 26.9269C93.4097 27.5446 93.53 28.094 93.7705 28.5751C94.0176 29.0498 94.3556 29.4204 94.7848 29.6869C95.2204 29.947 95.7211 30.077 96.2867 30.077ZM104.84 21.5437H101.875L105.083 32.2909H107.678L109.788 25.4266L112.066 32.2909H114.621L117.84 21.5437H115.158L113.332 28.2332L111.315 21.5437H108.721L106.713 28.3805L104.84 21.5437Z" fill="black"/>
<path fill-rule="evenodd" clip-rule="evenodd" d="M33.0596 15.1338L23.1943 34.4196H13.9279L18.0565 26.4267H17.8713C14.4652 30.8483 9.38316 33.7591 2.14209 34.4196V26.5374C2.14209 26.5374 6.77438 26.2637 9.49757 23.4007H2.14209V15.1339H10.4089V21.9332L10.5944 21.9325L13.9725 15.1339H20.2245V21.8901L20.4099 21.8898L23.9148 15.1338H33.0596ZM86.8565 32.2909H89.5189V17.0088H86.8565V32.2909ZM72.1789 32.1348C72.7575 32.3754 73.3459 32.4957 73.9441 32.4957C74.9323 32.4957 75.8165 32.2551 76.5967 31.774C77.3768 31.2929 77.9816 30.6298 78.4107 29.7845C78.8398 28.9328 79.0543 27.9673 79.0543 26.888C79.0543 25.8088 78.8332 24.8433 78.3912 23.9916C77.949 23.1399 77.3346 22.48 76.5479 22.0118C75.7612 21.5372 74.8672 21.3032 73.866 21.3097C73.2289 21.3097 72.6177 21.4332 72.0325 21.6803C71.4474 21.9273 70.9598 22.2784 70.5697 22.7335C70.5396 22.7682 70.5103 22.8032 70.4819 22.8385V17.0186H67.8098V32.2909H70.4624L70.4571 30.8642C70.5257 30.9483 70.5991 31.0305 70.6769 31.1109C71.0995 31.5465 71.6002 31.8878 72.1789 32.1348ZM74.9095 29.6675C74.4739 29.9341 73.9765 30.0674 73.4174 30.0674C72.8647 30.0674 72.3576 29.9308 71.896 29.6578C71.4343 29.3781 71.0671 28.9979 70.7939 28.5167C70.5274 28.0356 70.3941 27.4894 70.3941 26.8783C70.3877 26.2671 70.5176 25.721 70.7842 25.2399C71.0573 24.7523 71.4246 24.3752 71.8863 24.1086C72.3478 23.8356 72.8583 23.7023 73.4174 23.7088C73.9765 23.7023 74.4739 23.8323 74.9095 24.0989C75.3516 24.3589 75.6897 24.7328 75.9238 25.2204C76.1643 25.7015 76.2846 26.2542 76.2846 26.8783C76.2846 27.5025 76.1643 28.0551 75.9238 28.5362C75.6897 29.0174 75.3516 29.3944 74.9095 29.6675ZM36.9166 17.9353H39.9594L42.6812 27.8756L45.5768 17.9353H48.1124L51.2527 27.6761L53.8664 17.9353H56.6555L52.54 32.2909H49.9166L46.7233 22.7749L43.7921 32.2909H41.1394L36.9166 17.9353ZM61.1492 32.5444C60.0893 32.5509 59.1336 32.3168 58.2819 31.8423C57.4367 31.3611 56.7703 30.6947 56.2826 29.843C55.8016 28.9913 55.561 28.0193 55.561 26.927C55.561 25.8672 55.8081 24.9083 56.3022 24.0501C56.7963 23.1918 57.4659 22.5222 58.3112 22.0411C59.1564 21.5599 60.0991 21.3194 61.1393 21.3194C62.3097 21.3194 63.3336 21.5794 64.2113 22.0996C65.0956 22.6197 65.7555 23.3576 66.1911 24.3134C66.6332 25.2626 66.7925 26.3516 66.669 27.5804H58.3154C58.3387 28.07 58.4609 28.5154 58.6818 28.9165C58.9289 29.3586 59.2734 29.7032 59.7155 29.9502C60.1577 30.1973 60.6517 30.3208 61.1979 30.3208C61.614 30.3143 62.0009 30.2428 62.3584 30.1063C62.7161 29.9633 63.0183 29.7715 63.2654 29.5309C63.519 29.2903 63.6978 29.0173 63.8018 28.7118H66.591C66.4219 29.4594 66.0839 30.1258 65.5768 30.711C65.0696 31.2896 64.4325 31.7415 63.6652 32.0665C62.8981 32.3916 62.0594 32.5509 61.1492 32.5444ZM58.6915 24.8985C58.5358 25.1702 58.4277 25.4627 58.3676 25.7762H63.9051C63.865 25.3802 63.7427 25.0194 63.5385 24.6937C63.3044 24.3101 62.9858 24.0143 62.5828 23.8062C62.1797 23.5917 61.7246 23.4844 61.2174 23.4844C60.6778 23.4844 60.1869 23.6079 59.7448 23.855C59.3027 24.1021 58.9516 24.4499 58.6915 24.8985ZM81.0148 21.5437C81.0148 20.6725 81.2131 19.8988 81.6097 19.2226C82.0062 18.54 82.5622 18.0101 83.2774 17.633C83.999 17.2494 84.841 17.0511 85.8032 17.0381V19.4079C85.3546 19.4144 84.971 19.5087 84.6525 19.6908C84.3404 19.8663 84.0998 20.1231 83.9307 20.4612C83.7752 20.7724 83.6912 21.1333 83.6789 21.5437H85.7447V23.7965H83.6773V32.2909H81.0148V23.7965H79.2984V21.5437H81.0148ZM96.2867 32.5248C95.2009 32.5248 94.2289 32.2875 93.3707 31.813C92.519 31.3318 91.8493 30.6687 91.3617 29.8234C90.8805 28.9718 90.64 28.0063 90.64 26.9269C90.64 25.8412 90.8805 24.8725 91.3617 24.0208C91.8493 23.1625 92.519 22.4961 93.3707 22.0215C94.2289 21.5469 95.2009 21.3096 96.2867 21.3096C97.3789 21.3096 98.3542 21.5469 99.2123 22.0215C100.077 22.4961 100.75 23.1593 101.231 24.011C101.712 24.8627 101.956 25.8347 101.963 26.9269C101.956 28.0063 101.712 28.9718 101.231 29.8234C100.757 30.6687 100.087 31.3318 99.2221 31.813C98.3574 32.2875 97.3789 32.5248 96.2867 32.5248ZM96.2867 30.077C96.8588 30.077 97.3659 29.947 97.808 29.6869C98.2502 29.4204 98.5914 29.0498 98.8321 28.5751C99.0726 28.094 99.1928 27.5446 99.1928 26.9269C99.1928 26.3028 99.0726 25.7502 98.8321 25.2691C98.5914 24.7879 98.2502 24.4174 97.808 24.1573C97.3659 23.8907 96.8588 23.7574 96.2867 23.7574C95.7211 23.7574 95.2172 23.8907 94.775 24.1573C94.3395 24.4174 94.0013 24.7879 93.7608 25.2691C93.5202 25.7502 93.4032 26.3028 93.4097 26.9269C93.4097 27.5446 93.53 28.094 93.7705 28.5751C94.0176 29.0498 94.3556 29.4204 94.7848 29.6869C95.2204 29.947 95.7211 30.077 96.2867 30.077ZM104.84 21.5437H101.875L105.083 32.2909H107.678L109.788 25.4266L112.066 32.2909H114.621L117.84 21.5437H115.158L113.332 28.2332L111.315 21.5437H108.721L106.713 28.3805L104.84 21.5437Z" fill="black"/>
<path d="M33.0596 15.1338L23.1943 34.4196H13.9279L18.0565 26.4267H17.8713C14.4652 30.8483 9.38316 33.7591 2.14209 34.4196V26.5374C2.14209 26.5374 6.77438 26.2637 9.49757 23.4007H2.14209V15.1339H10.4089V21.9332L10.5944 21.9325L13.9725 15.1339H20.2245V21.8901L20.4099 21.8898L23.9148 15.1338H33.0596ZM86.8565 32.2909H89.5189V17.0088H86.8565V32.2909ZM72.1789 32.1348C72.7575 32.3754 73.3459 32.4957 73.9441 32.4957C74.9323 32.4957 75.8165 32.2551 76.5967 31.774C77.3768 31.2929 77.9816 30.6298 78.4107 29.7845C78.8398 28.9328 79.0543 27.9673 79.0543 26.888C79.0543 25.8088 78.8332 24.8433 78.3912 23.9916C77.949 23.1399 77.3346 22.48 76.5479 22.0118C75.7612 21.5372 74.8672 21.3032 73.866 21.3097C73.2289 21.3097 72.6177 21.4332 72.0325 21.6803C71.4474 21.9273 70.9598 22.2784 70.5697 22.7335C70.5396 22.7682 70.5103 22.8032 70.4819 22.8385V17.0186H67.8098V32.2909H70.4624L70.4571 30.8642C70.5257 30.9483 70.5991 31.0305 70.6769 31.1109C71.0995 31.5465 71.6002 31.8878 72.1789 32.1348ZM74.9095 29.6675C74.4739 29.9341 73.9765 30.0674 73.4174 30.0674C72.8647 30.0674 72.3576 29.9308 71.896 29.6578C71.4343 29.3781 71.0671 28.9979 70.7939 28.5167C70.5274 28.0356 70.3941 27.4894 70.3941 26.8783C70.3877 26.2671 70.5176 25.721 70.7842 25.2399C71.0573 24.7523 71.4246 24.3752 71.8863 24.1086C72.3478 23.8356 72.8583 23.7023 73.4174 23.7088C73.9765 23.7023 74.4739 23.8323 74.9095 24.0989C75.3516 24.3589 75.6897 24.7328 75.9238 25.2204C76.1643 25.7015 76.2846 26.2542 76.2846 26.8783C76.2846 27.5025 76.1643 28.0551 75.9238 28.5362C75.6897 29.0174 75.3516 29.3944 74.9095 29.6675ZM36.9166 17.9353H39.9594L42.6812 27.8756L45.5768 17.9353H48.1124L51.2527 27.6761L53.8664 17.9353H56.6555L52.54 32.2909H49.9166L46.7233 22.7749L43.7921 32.2909H41.1394L36.9166 17.9353ZM61.1492 32.5444C60.0893 32.5509 59.1336 32.3168 58.2819 31.8423C57.4367 31.3611 56.7703 30.6947 56.2826 29.843C55.8016 28.9913 55.561 28.0193 55.561 26.927C55.561 25.8672 55.8081 24.9083 56.3022 24.0501C56.7963 23.1918 57.4659 22.5222 58.3112 22.0411C59.1564 21.5599 60.0991 21.3194 61.1393 21.3194C62.3097 21.3194 63.3336 21.5794 64.2113 22.0996C65.0956 22.6197 65.7555 23.3576 66.1911 24.3134C66.6332 25.2626 66.7925 26.3516 66.669 27.5804H58.3154C58.3387 28.07 58.4609 28.5154 58.6818 28.9165C58.9289 29.3586 59.2734 29.7032 59.7155 29.9502C60.1577 30.1973 60.6517 30.3208 61.1979 30.3208C61.614 30.3143 62.0009 30.2428 62.3584 30.1063C62.7161 29.9633 63.0183 29.7715 63.2654 29.5309C63.519 29.2903 63.6978 29.0173 63.8018 28.7118H66.591C66.4219 29.4594 66.0839 30.1258 65.5768 30.711C65.0696 31.2896 64.4325 31.7415 63.6652 32.0665C62.8981 32.3916 62.0594 32.5509 61.1492 32.5444ZM58.6915 24.8985C58.5358 25.1702 58.4277 25.4627 58.3676 25.7762H63.9051C63.865 25.3802 63.7427 25.0194 63.5385 24.6937C63.3044 24.3101 62.9858 24.0143 62.5828 23.8062C62.1797 23.5917 61.7246 23.4844 61.2174 23.4844C60.6778 23.4844 60.1869 23.6079 59.7448 23.855C59.3027 24.1021 58.9516 24.4499 58.6915 24.8985ZM81.0148 21.5437C81.0148 20.6725 81.2131 19.8988 81.6097 19.2226C82.0062 18.54 82.5622 18.0101 83.2774 17.633C83.999 17.2494 84.841 17.0511 85.8032 17.0381V19.4079C85.3546 19.4144 84.971 19.5087 84.6525 19.6908C84.3404 19.8663 84.0998 20.1231 83.9307 20.4612C83.7752 20.7724 83.6912 21.1333 83.6789 21.5437H85.7447V23.7965H83.6773V32.2909H81.0148V23.7965H79.2984V21.5437H81.0148ZM96.2867 32.5248C95.2009 32.5248 94.2289 32.2875 93.3707 31.813C92.519 31.3318 91.8493 30.6687 91.3617 29.8234C90.8805 28.9718 90.64 28.0063 90.64 26.9269C90.64 25.8412 90.8805 24.8725 91.3617 24.0208C91.8493 23.1625 92.519 22.4961 93.3707 22.0215C94.2289 21.5469 95.2009 21.3096 96.2867 21.3096C97.3789 21.3096 98.3542 21.5469 99.2123 22.0215C100.077 22.4961 100.75 23.1593 101.231 24.011C101.712 24.8627 101.956 25.8347 101.963 26.9269C101.956 28.0063 101.712 28.9718 101.231 29.8234C100.757 30.6687 100.087 31.3318 99.2221 31.813C98.3574 32.2875 97.3789 32.5248 96.2867 32.5248ZM96.2867 30.077C96.8588 30.077 97.3659 29.947 97.808 29.6869C98.2502 29.4204 98.5914 29.0498 98.8321 28.5751C99.0726 28.094 99.1928 27.5446 99.1928 26.9269C99.1928 26.3028 99.0726 25.7502 98.8321 25.2691C98.5914 24.7879 98.2502 24.4174 97.808 24.1573C97.3659 23.8907 96.8588 23.7574 96.2867 23.7574C95.7211 23.7574 95.2172 23.8907 94.775 24.1573C94.3395 24.4174 94.0013 24.7879 93.7608 25.2691C93.5202 25.7502 93.4032 26.3028 93.4097 26.9269C93.4097 27.5446 93.53 28.094 93.7705 28.5751C94.0176 29.0498 94.3556 29.4204 94.7848 29.6869C95.2204 29.947 95.7211 30.077 96.2867 30.077ZM104.84 21.5437H101.875L105.083 32.2909H107.678L109.788 25.4266L112.066 32.2909H114.621L117.84 21.5437H115.158L113.332 28.2332L111.315 21.5437H108.721L106.713 28.3805L104.84 21.5437Z" fill="black"/>
<path fill-rule="evenodd" clip-rule="evenodd" d="M33.0596 15.1338L23.1943 34.4196H13.9279L18.0565 26.4267H17.8713C14.4652 30.8483 9.38316 33.7591 2.14209 34.4196V26.5374C2.14209 26.5374 6.77438 26.2637 9.49757 23.4007H2.14209V15.1339H10.4089V21.9332L10.5944 21.9325L13.9725 15.1339H20.2245V21.8901L20.4099 21.8898L23.9148 15.1338H33.0596ZM86.8565 32.2909H89.5189V17.0088H86.8565V32.2909ZM72.1789 32.1348C72.7575 32.3754 73.3459 32.4957 73.9441 32.4957C74.9323 32.4957 75.8165 32.2551 76.5967 31.774C77.3768 31.2929 77.9816 30.6298 78.4107 29.7845C78.8398 28.9328 79.0543 27.9673 79.0543 26.888C79.0543 25.8088 78.8332 24.8433 78.3912 23.9916C77.949 23.1399 77.3346 22.48 76.5479 22.0118C75.7612 21.5372 74.8672 21.3032 73.866 21.3097C73.2289 21.3097 72.6177 21.4332 72.0325 21.6803C71.4474 21.9273 70.9598 22.2784 70.5697 22.7335C70.5396 22.7682 70.5103 22.8032 70.4819 22.8385V17.0186H67.8098V32.2909H70.4624L70.4571 30.8642C70.5257 30.9483 70.5991 31.0305 70.6769 31.1109C71.0995 31.5465 71.6002 31.8878 72.1789 32.1348ZM74.9095 29.6675C74.4739 29.9341 73.9765 30.0674 73.4174 30.0674C72.8647 30.0674 72.3576 29.9308 71.896 29.6578C71.4343 29.3781 71.0671 28.9979 70.7939 28.5167C70.5274 28.0356 70.3941 27.4894 70.3941 26.8783C70.3877 26.2671 70.5176 25.721 70.7842 25.2399C71.0573 24.7523 71.4246 24.3752 71.8863 24.1086C72.3478 23.8356 72.8583 23.7023 73.4174 23.7088C73.9765 23.7023 74.4739 23.8323 74.9095 24.0989C75.3516 24.3589 75.6897 24.7328 75.9238 25.2204C76.1643 25.7015 76.2846 26.2542 76.2846 26.8783C76.2846 27.5025 76.1643 28.0551 75.9238 28.5362C75.6897 29.0174 75.3516 29.3944 74.9095 29.6675ZM36.9166 17.9353H39.9594L42.6812 27.8756L45.5768 17.9353H48.1124L51.2527 27.6761L53.8664 17.9353H56.6555L52.54 32.2909H49.9166L46.7233 22.7749L43.7921 32.2909H41.1394L36.9166 17.9353ZM61.1492 32.5444C60.0893 32.5509 59.1336 32.3168 58.2819 31.8423C57.4367 31.3611 56.7703 30.6947 56.2826 29.843C55.8016 28.9913 55.561 28.0193 55.561 26.927C55.561 25.8672 55.8081 24.9083 56.3022 24.0501C56.7963 23.1918 57.4659 22.5222 58.3112 22.0411C59.1564 21.5599 60.0991 21.3194 61.1393 21.3194C62.3097 21.3194 63.3336 21.5794 64.2113 22.0996C65.0956 22.6197 65.7555 23.3576 66.1911 24.3134C66.6332 25.2626 66.7925 26.3516 66.669 27.5804H58.3154C58.3387 28.07 58.4609 28.5154 58.6818 28.9165C58.9289 29.3586 59.2734 29.7032 59.7155 29.9502C60.1577 30.1973 60.6517 30.3208 61.1979 30.3208C61.614 30.3143 62.0009 30.2428 62.3584 30.1063C62.7161 29.9633 63.0183 29.7715 63.2654 29.5309C63.519 29.2903 63.6978 29.0173 63.8018 28.7118H66.591C66.4219 29.4594 66.0839 30.1258 65.5768 30.711C65.0696 31.2896 64.4325 31.7415 63.6652 32.0665C62.8981 32.3916 62.0594 32.5509 61.1492 32.5444ZM58.6915 24.8985C58.5358 25.1702 58.4277 25.4627 58.3676 25.7762H63.9051C63.865 25.3802 63.7427 25.0194 63.5385 24.6937C63.3044 24.3101 62.9858 24.0143 62.5828 23.8062C62.1797 23.5917 61.7246 23.4844 61.2174 23.4844C60.6778 23.4844 60.1869 23.6079 59.7448 23.855C59.3027 24.1021 58.9516 24.4499 58.6915 24.8985ZM81.0148 21.5437C81.0148 20.6725 81.2131 19.8988 81.6097 19.2226C82.0062 18.54 82.5622 18.0101 83.2774 17.633C83.999 17.2494 84.841 17.0511 85.8032 17.0381V19.4079C85.3546 19.4144 84.971 19.5087 84.6525 19.6908C84.3404 19.8663 84.0998 20.1231 83.9307 20.4612C83.7752 20.7724 83.6912 21.1333 83.6789 21.5437H85.7447V23.7965H83.6773V32.2909H81.0148V23.7965H79.2984V21.5437H81.0148ZM96.2867 32.5248C95.2009 32.5248 94.2289 32.2875 93.3707 31.813C92.519 31.3318 91.8493 30.6687 91.3617 29.8234C90.8805 28.9718 90.64 28.0063 90.64 26.9269C90.64 25.8412 90.8805 24.8725 91.3617 24.0208C91.8493 23.1625 92.519 22.4961 93.3707 22.0215C94.2289 21.5469 95.2009 21.3096 96.2867 21.3096C97.3789 21.3096 98.3542 21.5469 99.2123 22.0215C100.077 22.4961 100.75 23.1593 101.231 24.011C101.712 24.8627 101.956 25.8347 101.963 26.9269C101.956 28.0063 101.712 28.9718 101.231 29.8234C100.757 30.6687 100.087 31.3318 99.2221 31.813C98.3574 32.2875 97.3789 32.5248 96.2867 32.5248ZM96.2867 30.077C96.8588 30.077 97.3659 29.947 97.808 29.6869C98.2502 29.4204 98.5914 29.0498 98.8321 28.5751C99.0726 28.094 99.1928 27.5446 99.1928 26.9269C99.1928 26.3028 99.0726 25.7502 98.8321 25.2691C98.5914 24.7879 98.2502 24.4174 97.808 24.1573C97.3659 23.8907 96.8588 23.7574 96.2867 23.7574C95.7211 23.7574 95.2172 23.8907 94.775 24.1573C94.3395 24.4174 94.0013 24.7879 93.7608 25.2691C93.5202 25.7502 93.4032 26.3028 93.4097 26.9269C93.4097 27.5446 93.53 28.094 93.7705 28.5751C94.0176 29.0498 94.3556 29.4204 94.7848 29.6869C95.2204 29.947 95.7211 30.077 96.2867 30.077ZM104.84 21.5437H101.875L105.083 32.2909H107.678L109.788 25.4266L112.066 32.2909H114.621L117.84 21.5437H115.158L113.332 28.2332L111.315 21.5437H108.721L106.713 28.3805L104.84 21.5437Z" fill="black"/>
<path d="M33.0596 15.1338L23.1943 34.4196H13.9279L18.0565 26.4267H17.8713C14.4652 30.8483 9.38316 33.7591 2.14209 34.4196V26.5374C2.14209 26.5374 6.77438 26.2637 9.49757 23.4007H2.14209V15.1339H10.4089V21.9332L10.5944 21.9325L13.9725 15.1339H20.2245V21.8901L20.4099 21.8898L23.9148 15.1338H33.0596ZM86.8565 32.2909H89.5189V17.0088H86.8565V32.2909ZM72.1789 32.1348C72.7575 32.3754 73.3459 32.4957 73.9441 32.4957C74.9323 32.4957 75.8165 32.2551 76.5967 31.774C77.3768 31.2929 77.9816 30.6298 78.4107 29.7845C78.8398 28.9328 79.0543 27.9673 79.0543 26.888C79.0543 25.8088 78.8332 24.8433 78.3912 23.9916C77.949 23.1399 77.3346 22.48 76.5479 22.0118C75.7612 21.5372 74.8672 21.3032 73.866 21.3097C73.2289 21.3097 72.6177 21.4332 72.0325 21.6803C71.4474 21.9273 70.9598 22.2784 70.5697 22.7335C70.5396 22.7682 70.5103 22.8032 70.4819 22.8385V17.0186H67.8098V32.2909H70.4624L70.4571 30.8642C70.5257 30.9483 70.5991 31.0305 70.6769 31.1109C71.0995 31.5465 71.6002 31.8878 72.1789 32.1348ZM74.9095 29.6675C74.4739 29.9341 73.9765 30.0674 73.4174 30.0674C72.8647 30.0674 72.3576 29.9308 71.896 29.6578C71.4343 29.3781 71.0671 28.9979 70.7939 28.5167C70.5274 28.0356 70.3941 27.4894 70.3941 26.8783C70.3877 26.2671 70.5176 25.721 70.7842 25.2399C71.0573 24.7523 71.4246 24.3752 71.8863 24.1086C72.3478 23.8356 72.8583 23.7023 73.4174 23.7088C73.9765 23.7023 74.4739 23.8323 74.9095 24.0989C75.3516 24.3589 75.6897 24.7328 75.9238 25.2204C76.1643 25.7015 76.2846 26.2542 76.2846 26.8783C76.2846 27.5025 76.1643 28.0551 75.9238 28.5362C75.6897 29.0174 75.3516 29.3944 74.9095 29.6675ZM36.9166 17.9353H39.9594L42.6812 27.8756L45.5768 17.9353H48.1124L51.2527 27.6761L53.8664 17.9353H56.6555L52.54 32.2909H49.9166L46.7233 22.7749L43.7921 32.2909H41.1394L36.9166 17.9353ZM61.1492 32.5444C60.0893 32.5509 59.1336 32.3168 58.2819 31.8423C57.4367 31.3611 56.7703 30.6947 56.2826 29.843C55.8016 28.9913 55.561 28.0193 55.561 26.927C55.561 25.8672 55.8081 24.9083 56.3022 24.0501C56.7963 23.1918 57.4659 22.5222 58.3112 22.0411C59.1564 21.5599 60.0991 21.3194 61.1393 21.3194C62.3097 21.3194 63.3336 21.5794 64.2113 22.0996C65.0956 22.6197 65.7555 23.3576 66.1911 24.3134C66.6332 25.2626 66.7925 26.3516 66.669 27.5804H58.3154C58.3387 28.07 58.4609 28.5154 58.6818 28.9165C58.9289 29.3586 59.2734 29.7032 59.7155 29.9502C60.1577 30.1973 60.6517 30.3208 61.1979 30.3208C61.614 30.3143 62.0009 30.2428 62.3584 30.1063C62.7161 29.9633 63.0183 29.7715 63.2654 29.5309C63.519 29.2903 63.6978 29.0173 63.8018 28.7118H66.591C66.4219 29.4594 66.0839 30.1258 65.5768 30.711C65.0696 31.2896 64.4325 31.7415 63.6652 32.0665C62.8981 32.3916 62.0594 32.5509 61.1492 32.5444ZM58.6915 24.8985C58.5358 25.1702 58.4277 25.4627 58.3676 25.7762H63.9051C63.865 25.3802 63.7427 25.0194 63.5385 24.6937C63.3044 24.3101 62.9858 24.0143 62.5828 23.8062C62.1797 23.5917 61.7246 23.4844 61.2174 23.4844C60.6778 23.4844 60.1869 23.6079 59.7448 23.855C59.3027 24.1021 58.9516 24.4499 58.6915 24.8985ZM81.0148 21.5437C81.0148 20.6725 81.2131 19.8988 81.6097 19.2226C82.0062 18.54 82.5622 18.0101 83.2774 17.633C83.999 17.2494 84.841 17.0511 85.8032 17.0381V19.4079C85.3546 19.4144 84.971 19.5087 84.6525 19.6908C84.3404 19.8663 84.0998 20.1231 83.9307 20.4612C83.7752 20.7724 83.6912 21.1333 83.6789 21.5437H85.7447V23.7965H83.6773V32.2909H81.0148V23.7965H79.2984V21.5437H81.0148ZM96.2867 32.5248C95.2009 32.5248 94.2289 32.2875 93.3707 31.813C92.519 31.3318 91.8493 30.6687 91.3617 29.8234C90.8805 28.9718 90.64 28.0063 90.64 26.9269C90.64 25.8412 90.8805 24.8725 91.3617 24.0208C91.8493 23.1625 92.519 22.4961 93.3707 22.0215C94.2289 21.5469 95.2009 21.3096 96.2867 21.3096C97.3789 21.3096 98.3542 21.5469 99.2123 22.0215C100.077 22.4961 100.75 23.1593 101.231 24.011C101.712 24.8627 101.956 25.8347 101.963 26.9269C101.956 28.0063 101.712 28.9718 101.231 29.8234C100.757 30.6687 100.087 31.3318 99.2221 31.813C98.3574 32.2875 97.3789 32.5248 96.2867 32.5248ZM96.2867 30.077C96.8588 30.077 97.3659 29.947 97.808 29.6869C98.2502 29.4204 98.5914 29.0498 98.8321 28.5751C99.0726 28.094 99.1928 27.5446 99.1928 26.9269C99.1928 26.3028 99.0726 25.7502 98.8321 25.2691C98.5914 24.7879 98.2502 24.4174 97.808 24.1573C97.3659 23.8907 96.8588 23.7574 96.2867 23.7574C95.7211 23.7574 95.2172 23.8907 94.775 24.1573C94.3395 24.4174 94.0013 24.7879 93.7608 25.2691C93.5202 25.7502 93.4032 26.3028 93.4097 26.9269C93.4097 27.5446 93.53 28.094 93.7705 28.5751C94.0176 29.0498 94.3556 29.4204 94.7848 29.6869C95.2204 29.947 95.7211 30.077 96.2867 30.077ZM104.84 21.5437H101.875L105.083 32.2909H107.678L109.788 25.4266L112.066 32.2909H114.621L117.84 21.5437H115.158L113.332 28.2332L111.315 21.5437H108.721L106.713 28.3805L104.84 21.5437Z" fill="black"/>
</svg>
