<svg width="120" height="49" viewBox="0 0 120 49" fill="none" xmlns="http://www.w3.org/2000/svg">
<path fill-rule="evenodd" clip-rule="evenodd" d="M33.0591 15.2456L23.1938 34.5314H13.9274L18.056 26.5385H17.8708C14.4647 30.9601 9.38267 33.8709 2.1416 34.5314V26.6492C2.1416 26.6492 6.77389 26.3756 9.49708 23.5125H2.1416V15.2458H10.4084V22.0451L10.5939 22.0443L13.9721 15.2458H20.224V22.0019L20.4094 22.0016L23.9143 15.2456H33.0591ZM86.856 32.4027H89.5184V17.1206H86.856V32.4027ZM72.1784 32.2466C72.757 32.4872 73.3454 32.6075 73.9436 32.6075C74.9318 32.6075 75.816 32.367 76.5962 31.8858C77.3764 31.4047 77.9811 30.7416 78.4102 29.8963C78.8393 29.0447 79.0538 28.0791 79.0538 26.9998C79.0538 25.9206 78.8328 24.9551 78.3907 24.1034C77.9485 23.2517 77.3341 22.5918 76.5474 22.1237C75.7607 21.649 74.8667 21.415 73.8655 21.4215C73.2284 21.4215 72.6173 21.545 72.032 21.7921C71.4469 22.0391 70.9593 22.3902 70.5692 22.8453C70.5391 22.88 70.5098 22.915 70.4815 22.9503V17.1304H67.8093V32.4028H70.462L70.4566 30.976C70.5252 31.0601 70.5986 31.1423 70.6765 31.2227C71.099 31.6583 71.5997 31.9996 72.1784 32.2466ZM74.909 29.7793C74.4734 30.0459 73.976 30.1792 73.4169 30.1792C72.8642 30.1792 72.3571 30.0426 71.8955 29.7696C71.4339 29.49 71.0666 29.1097 70.7935 28.6285C70.5269 28.1474 70.3936 27.6012 70.3936 26.9901C70.3872 26.3789 70.5171 25.8328 70.7837 25.3517C71.0568 24.8641 71.4241 24.487 71.8858 24.2204C72.3474 23.9474 72.8578 23.8141 73.4169 23.8206C73.976 23.8141 74.4734 23.9441 74.909 24.2107C75.3511 24.4707 75.6892 24.8446 75.9233 25.3322C76.1638 25.8133 76.2841 26.366 76.2841 26.9901C76.2841 27.6143 76.1638 28.1669 75.9233 28.648C75.6892 29.1292 75.3511 29.5062 74.909 29.7793ZM36.9161 18.0471H39.9589L42.6808 27.9875L45.5763 18.0471H48.112L51.2522 27.788L53.8659 18.0471H56.655L52.5396 32.4027H49.9161L46.7228 22.8867L43.7916 32.4027H41.139L36.9161 18.0471ZM61.1487 32.6562C60.0888 32.6627 59.1331 32.4286 58.2814 31.9541C57.4362 31.4729 56.7699 30.8065 56.2821 29.9548C55.8011 29.1031 55.5605 28.1311 55.5605 27.0388C55.5605 25.979 55.8076 25.0201 56.3018 24.1619C56.7958 23.3037 57.4654 22.634 58.3107 22.1529C59.1559 21.6718 60.0986 21.4312 61.1388 21.4312C62.3092 21.4312 63.3331 21.6913 64.2109 22.2114C65.0951 22.7315 65.755 23.4695 66.1907 24.4252C66.6327 25.3744 66.7921 26.4634 66.6685 27.6923H58.3149C58.3382 28.1818 58.4604 28.6272 58.6813 29.0283C58.9284 29.4704 59.2729 29.815 59.715 30.0621C60.1572 30.3091 60.6512 30.4327 61.1975 30.4327C61.6135 30.4261 62.0004 30.3547 62.3579 30.2182C62.7156 30.0751 63.0178 29.8833 63.2649 29.6427C63.5185 29.4022 63.6973 29.1292 63.8014 28.8236H66.5905C66.4214 29.5712 66.0834 30.2377 65.5763 30.8228C65.0691 31.4015 64.432 31.8533 63.6647 32.1783C62.8976 32.5034 62.0589 32.6627 61.1487 32.6562ZM58.691 25.0103C58.5353 25.282 58.4273 25.5746 58.3672 25.8881H63.9046C63.8645 25.4921 63.7422 25.1312 63.538 24.8055C63.3039 24.4219 62.9854 24.1261 62.5823 23.9181C62.1792 23.7035 61.7241 23.5962 61.217 23.5962C60.6773 23.5962 60.1864 23.7198 59.7443 23.9668C59.3022 24.2139 58.9511 24.5617 58.691 25.0103ZM81.0144 21.6555C81.0144 20.7843 81.2126 20.0106 81.6092 19.3344C82.0058 18.6518 82.5617 18.1219 83.2769 17.7448C83.9985 17.3612 84.8406 17.1629 85.8027 17.1499V19.5197C85.3541 19.5262 84.9705 19.6205 84.652 19.8026C84.3399 19.9781 84.0993 20.2349 83.9303 20.573C83.7747 20.8843 83.6907 21.2451 83.6784 21.6555H85.7442V23.9083H83.6768V32.4027H81.0144V23.9083H79.2979V21.6555H81.0144ZM96.2862 32.6367C95.2004 32.6367 94.2284 32.3993 93.3702 31.9248C92.5185 31.4436 91.8489 30.7805 91.3612 29.9353C90.8801 29.0836 90.6395 28.1181 90.6395 27.0387C90.6395 25.9531 90.8801 24.9843 91.3612 24.1326C91.8489 23.2744 92.5185 22.6079 93.3702 22.1333C94.2284 21.6587 95.2004 21.4214 96.2862 21.4214C97.3784 21.4214 98.3537 21.6587 99.2119 22.1333C100.077 22.6079 100.75 23.2711 101.231 24.1228C101.712 24.9745 101.956 25.9465 101.962 27.0387C101.956 28.1181 101.712 29.0836 101.231 29.9353C100.756 30.7805 100.086 31.4436 99.2216 31.9248C98.3569 32.3993 97.3784 32.6367 96.2862 32.6367ZM96.2862 30.1889C96.8583 30.1889 97.3655 30.0588 97.8075 29.7988C98.2497 29.5322 98.591 29.1616 98.8316 28.6869C99.0721 28.2059 99.1924 27.6564 99.1924 27.0387C99.1924 26.4146 99.0721 25.862 98.8316 25.3809C98.591 24.8998 98.2497 24.5292 97.8075 24.2691C97.3655 24.0025 96.8583 23.8693 96.2862 23.8693C95.7206 23.8693 95.2167 24.0025 94.7745 24.2691C94.339 24.5292 94.0008 24.8998 93.7603 25.3809C93.5198 25.862 93.4028 26.4146 93.4092 27.0387C93.4092 27.6564 93.5295 28.2059 93.77 28.6869C94.0171 29.1616 94.3552 29.5322 94.7843 29.7988C95.2199 30.0588 95.7206 30.1889 96.2862 30.1889ZM104.839 21.6555H101.874L105.083 32.4027H107.677L109.787 25.5385L112.065 32.4027H114.621L117.839 21.6555H115.157L113.332 28.345L111.314 21.6555H108.721L106.713 28.4923L104.839 21.6555Z" fill="black"/>
<path d="M33.0591 15.2456L23.1938 34.5314H13.9274L18.056 26.5385H17.8708C14.4647 30.9601 9.38267 33.8709 2.1416 34.5314V26.6492C2.1416 26.6492 6.77389 26.3756 9.49708 23.5125H2.1416V15.2458H10.4084V22.0451L10.5939 22.0443L13.9721 15.2458H20.224V22.0019L20.4094 22.0016L23.9143 15.2456H33.0591ZM86.856 32.4027H89.5184V17.1206H86.856V32.4027ZM72.1784 32.2466C72.757 32.4872 73.3454 32.6075 73.9436 32.6075C74.9318 32.6075 75.816 32.367 76.5962 31.8858C77.3764 31.4047 77.9811 30.7416 78.4102 29.8963C78.8393 29.0447 79.0538 28.0791 79.0538 26.9998C79.0538 25.9206 78.8328 24.9551 78.3907 24.1034C77.9485 23.2517 77.3341 22.5918 76.5474 22.1237C75.7607 21.649 74.8667 21.415 73.8655 21.4215C73.2284 21.4215 72.6173 21.545 72.032 21.7921C71.4469 22.0391 70.9593 22.3902 70.5692 22.8453C70.5391 22.88 70.5098 22.915 70.4815 22.9503V17.1304H67.8093V32.4028H70.462L70.4566 30.976C70.5252 31.0601 70.5986 31.1423 70.6765 31.2227C71.099 31.6583 71.5997 31.9996 72.1784 32.2466ZM74.909 29.7793C74.4734 30.0459 73.976 30.1792 73.4169 30.1792C72.8642 30.1792 72.3571 30.0426 71.8955 29.7696C71.4339 29.49 71.0666 29.1097 70.7935 28.6285C70.5269 28.1474 70.3936 27.6012 70.3936 26.9901C70.3872 26.3789 70.5171 25.8328 70.7837 25.3517C71.0568 24.8641 71.4241 24.487 71.8858 24.2204C72.3474 23.9474 72.8578 23.8141 73.4169 23.8206C73.976 23.8141 74.4734 23.9441 74.909 24.2107C75.3511 24.4707 75.6892 24.8446 75.9233 25.3322C76.1638 25.8133 76.2841 26.366 76.2841 26.9901C76.2841 27.6143 76.1638 28.1669 75.9233 28.648C75.6892 29.1292 75.3511 29.5062 74.909 29.7793ZM36.9161 18.0471H39.9589L42.6808 27.9875L45.5763 18.0471H48.112L51.2522 27.788L53.8659 18.0471H56.655L52.5396 32.4027H49.9161L46.7228 22.8867L43.7916 32.4027H41.139L36.9161 18.0471ZM61.1487 32.6562C60.0888 32.6627 59.1331 32.4286 58.2814 31.9541C57.4362 31.4729 56.7699 30.8065 56.2821 29.9548C55.8011 29.1031 55.5605 28.1311 55.5605 27.0388C55.5605 25.979 55.8076 25.0201 56.3018 24.1619C56.7958 23.3037 57.4654 22.634 58.3107 22.1529C59.1559 21.6718 60.0986 21.4312 61.1388 21.4312C62.3092 21.4312 63.3331 21.6913 64.2109 22.2114C65.0951 22.7315 65.755 23.4695 66.1907 24.4252C66.6327 25.3744 66.7921 26.4634 66.6685 27.6923H58.3149C58.3382 28.1818 58.4604 28.6272 58.6813 29.0283C58.9284 29.4704 59.2729 29.815 59.715 30.0621C60.1572 30.3091 60.6512 30.4327 61.1975 30.4327C61.6135 30.4261 62.0004 30.3547 62.3579 30.2182C62.7156 30.0751 63.0178 29.8833 63.2649 29.6427C63.5185 29.4022 63.6973 29.1292 63.8014 28.8236H66.5905C66.4214 29.5712 66.0834 30.2377 65.5763 30.8228C65.0691 31.4015 64.432 31.8533 63.6647 32.1783C62.8976 32.5034 62.0589 32.6627 61.1487 32.6562ZM58.691 25.0103C58.5353 25.282 58.4273 25.5746 58.3672 25.8881H63.9046C63.8645 25.4921 63.7422 25.1312 63.538 24.8055C63.3039 24.4219 62.9854 24.1261 62.5823 23.9181C62.1792 23.7035 61.7241 23.5962 61.217 23.5962C60.6773 23.5962 60.1864 23.7198 59.7443 23.9668C59.3022 24.2139 58.9511 24.5617 58.691 25.0103ZM81.0144 21.6555C81.0144 20.7843 81.2126 20.0106 81.6092 19.3344C82.0058 18.6518 82.5617 18.1219 83.2769 17.7448C83.9985 17.3612 84.8406 17.1629 85.8027 17.1499V19.5197C85.3541 19.5262 84.9705 19.6205 84.652 19.8026C84.3399 19.9781 84.0993 20.2349 83.9303 20.573C83.7747 20.8843 83.6907 21.2451 83.6784 21.6555H85.7442V23.9083H83.6768V32.4027H81.0144V23.9083H79.2979V21.6555H81.0144ZM96.2862 32.6367C95.2004 32.6367 94.2284 32.3993 93.3702 31.9248C92.5185 31.4436 91.8489 30.7805 91.3612 29.9353C90.8801 29.0836 90.6395 28.1181 90.6395 27.0387C90.6395 25.9531 90.8801 24.9843 91.3612 24.1326C91.8489 23.2744 92.5185 22.6079 93.3702 22.1333C94.2284 21.6587 95.2004 21.4214 96.2862 21.4214C97.3784 21.4214 98.3537 21.6587 99.2119 22.1333C100.077 22.6079 100.75 23.2711 101.231 24.1228C101.712 24.9745 101.956 25.9465 101.962 27.0387C101.956 28.1181 101.712 29.0836 101.231 29.9353C100.756 30.7805 100.086 31.4436 99.2216 31.9248C98.3569 32.3993 97.3784 32.6367 96.2862 32.6367ZM96.2862 30.1889C96.8583 30.1889 97.3655 30.0588 97.8075 29.7988C98.2497 29.5322 98.591 29.1616 98.8316 28.6869C99.0721 28.2059 99.1924 27.6564 99.1924 27.0387C99.1924 26.4146 99.0721 25.862 98.8316 25.3809C98.591 24.8998 98.2497 24.5292 97.8075 24.2691C97.3655 24.0025 96.8583 23.8693 96.2862 23.8693C95.7206 23.8693 95.2167 24.0025 94.7745 24.2691C94.339 24.5292 94.0008 24.8998 93.7603 25.3809C93.5198 25.862 93.4028 26.4146 93.4092 27.0387C93.4092 27.6564 93.5295 28.2059 93.77 28.6869C94.0171 29.1616 94.3552 29.5322 94.7843 29.7988C95.2199 30.0588 95.7206 30.1889 96.2862 30.1889ZM104.839 21.6555H101.874L105.083 32.4027H107.677L109.787 25.5385L112.065 32.4027H114.621L117.839 21.6555H115.157L113.332 28.345L111.314 21.6555H108.721L106.713 28.4923L104.839 21.6555Z" fill="black"/>
<path fill-rule="evenodd" clip-rule="evenodd" d="M33.0591 15.2456L23.1938 34.5314H13.9274L18.056 26.5385H17.8708C14.4647 30.9601 9.38267 33.8709 2.1416 34.5314V26.6492C2.1416 26.6492 6.77389 26.3756 9.49708 23.5125H2.1416V15.2458H10.4084V22.0451L10.5939 22.0443L13.9721 15.2458H20.224V22.0019L20.4094 22.0016L23.9143 15.2456H33.0591ZM86.856 32.4027H89.5184V17.1206H86.856V32.4027ZM72.1784 32.2466C72.757 32.4872 73.3454 32.6075 73.9436 32.6075C74.9318 32.6075 75.816 32.367 76.5962 31.8858C77.3764 31.4047 77.9811 30.7416 78.4102 29.8963C78.8393 29.0447 79.0538 28.0791 79.0538 26.9998C79.0538 25.9206 78.8328 24.9551 78.3907 24.1034C77.9485 23.2517 77.3341 22.5918 76.5474 22.1237C75.7607 21.649 74.8667 21.415 73.8655 21.4215C73.2284 21.4215 72.6173 21.545 72.032 21.7921C71.4469 22.0391 70.9593 22.3902 70.5692 22.8453C70.5391 22.88 70.5098 22.915 70.4815 22.9503V17.1304H67.8093V32.4028H70.462L70.4566 30.976C70.5252 31.0601 70.5986 31.1423 70.6765 31.2227C71.099 31.6583 71.5997 31.9996 72.1784 32.2466ZM74.909 29.7793C74.4734 30.0459 73.976 30.1792 73.4169 30.1792C72.8642 30.1792 72.3571 30.0426 71.8955 29.7696C71.4339 29.49 71.0666 29.1097 70.7935 28.6285C70.5269 28.1474 70.3936 27.6012 70.3936 26.9901C70.3872 26.3789 70.5171 25.8328 70.7837 25.3517C71.0568 24.8641 71.4241 24.487 71.8858 24.2204C72.3474 23.9474 72.8578 23.8141 73.4169 23.8206C73.976 23.8141 74.4734 23.9441 74.909 24.2107C75.3511 24.4707 75.6892 24.8446 75.9233 25.3322C76.1638 25.8133 76.2841 26.366 76.2841 26.9901C76.2841 27.6143 76.1638 28.1669 75.9233 28.648C75.6892 29.1292 75.3511 29.5062 74.909 29.7793ZM36.9161 18.0471H39.9589L42.6808 27.9875L45.5763 18.0471H48.112L51.2522 27.788L53.8659 18.0471H56.655L52.5396 32.4027H49.9161L46.7228 22.8867L43.7916 32.4027H41.139L36.9161 18.0471ZM61.1487 32.6562C60.0888 32.6627 59.1331 32.4286 58.2814 31.9541C57.4362 31.4729 56.7699 30.8065 56.2821 29.9548C55.8011 29.1031 55.5605 28.1311 55.5605 27.0388C55.5605 25.979 55.8076 25.0201 56.3018 24.1619C56.7958 23.3037 57.4654 22.634 58.3107 22.1529C59.1559 21.6718 60.0986 21.4312 61.1388 21.4312C62.3092 21.4312 63.3331 21.6913 64.2109 22.2114C65.0951 22.7315 65.755 23.4695 66.1907 24.4252C66.6327 25.3744 66.7921 26.4634 66.6685 27.6923H58.3149C58.3382 28.1818 58.4604 28.6272 58.6813 29.0283C58.9284 29.4704 59.2729 29.815 59.715 30.0621C60.1572 30.3091 60.6512 30.4327 61.1975 30.4327C61.6135 30.4261 62.0004 30.3547 62.3579 30.2182C62.7156 30.0751 63.0178 29.8833 63.2649 29.6427C63.5185 29.4022 63.6973 29.1292 63.8014 28.8236H66.5905C66.4214 29.5712 66.0834 30.2377 65.5763 30.8228C65.0691 31.4015 64.432 31.8533 63.6647 32.1783C62.8976 32.5034 62.0589 32.6627 61.1487 32.6562ZM58.691 25.0103C58.5353 25.282 58.4273 25.5746 58.3672 25.8881H63.9046C63.8645 25.4921 63.7422 25.1312 63.538 24.8055C63.3039 24.4219 62.9854 24.1261 62.5823 23.9181C62.1792 23.7035 61.7241 23.5962 61.217 23.5962C60.6773 23.5962 60.1864 23.7198 59.7443 23.9668C59.3022 24.2139 58.9511 24.5617 58.691 25.0103ZM81.0144 21.6555C81.0144 20.7843 81.2126 20.0106 81.6092 19.3344C82.0058 18.6518 82.5617 18.1219 83.2769 17.7448C83.9985 17.3612 84.8406 17.1629 85.8027 17.1499V19.5197C85.3541 19.5262 84.9705 19.6205 84.652 19.8026C84.3399 19.9781 84.0993 20.2349 83.9303 20.573C83.7747 20.8843 83.6907 21.2451 83.6784 21.6555H85.7442V23.9083H83.6768V32.4027H81.0144V23.9083H79.2979V21.6555H81.0144ZM96.2862 32.6367C95.2004 32.6367 94.2284 32.3993 93.3702 31.9248C92.5185 31.4436 91.8489 30.7805 91.3612 29.9353C90.8801 29.0836 90.6395 28.1181 90.6395 27.0387C90.6395 25.9531 90.8801 24.9843 91.3612 24.1326C91.8489 23.2744 92.5185 22.6079 93.3702 22.1333C94.2284 21.6587 95.2004 21.4214 96.2862 21.4214C97.3784 21.4214 98.3537 21.6587 99.2119 22.1333C100.077 22.6079 100.75 23.2711 101.231 24.1228C101.712 24.9745 101.956 25.9465 101.962 27.0387C101.956 28.1181 101.712 29.0836 101.231 29.9353C100.756 30.7805 100.086 31.4436 99.2216 31.9248C98.3569 32.3993 97.3784 32.6367 96.2862 32.6367ZM96.2862 30.1889C96.8583 30.1889 97.3655 30.0588 97.8075 29.7988C98.2497 29.5322 98.591 29.1616 98.8316 28.6869C99.0721 28.2059 99.1924 27.6564 99.1924 27.0387C99.1924 26.4146 99.0721 25.862 98.8316 25.3809C98.591 24.8998 98.2497 24.5292 97.8075 24.2691C97.3655 24.0025 96.8583 23.8693 96.2862 23.8693C95.7206 23.8693 95.2167 24.0025 94.7745 24.2691C94.339 24.5292 94.0008 24.8998 93.7603 25.3809C93.5198 25.862 93.4028 26.4146 93.4092 27.0387C93.4092 27.6564 93.5295 28.2059 93.77 28.6869C94.0171 29.1616 94.3552 29.5322 94.7843 29.7988C95.2199 30.0588 95.7206 30.1889 96.2862 30.1889ZM104.839 21.6555H101.874L105.083 32.4027H107.677L109.787 25.5385L112.065 32.4027H114.621L117.839 21.6555H115.157L113.332 28.345L111.314 21.6555H108.721L106.713 28.4923L104.839 21.6555Z" fill="black"/>
<path d="M33.0591 15.2456L23.1938 34.5314H13.9274L18.056 26.5385H17.8708C14.4647 30.9601 9.38267 33.8709 2.1416 34.5314V26.6492C2.1416 26.6492 6.77389 26.3756 9.49708 23.5125H2.1416V15.2458H10.4084V22.0451L10.5939 22.0443L13.9721 15.2458H20.224V22.0019L20.4094 22.0016L23.9143 15.2456H33.0591ZM86.856 32.4027H89.5184V17.1206H86.856V32.4027ZM72.1784 32.2466C72.757 32.4872 73.3454 32.6075 73.9436 32.6075C74.9318 32.6075 75.816 32.367 76.5962 31.8858C77.3764 31.4047 77.9811 30.7416 78.4102 29.8963C78.8393 29.0447 79.0538 28.0791 79.0538 26.9998C79.0538 25.9206 78.8328 24.9551 78.3907 24.1034C77.9485 23.2517 77.3341 22.5918 76.5474 22.1237C75.7607 21.649 74.8667 21.415 73.8655 21.4215C73.2284 21.4215 72.6173 21.545 72.032 21.7921C71.4469 22.0391 70.9593 22.3902 70.5692 22.8453C70.5391 22.88 70.5098 22.915 70.4815 22.9503V17.1304H67.8093V32.4028H70.462L70.4566 30.976C70.5252 31.0601 70.5986 31.1423 70.6765 31.2227C71.099 31.6583 71.5997 31.9996 72.1784 32.2466ZM74.909 29.7793C74.4734 30.0459 73.976 30.1792 73.4169 30.1792C72.8642 30.1792 72.3571 30.0426 71.8955 29.7696C71.4339 29.49 71.0666 29.1097 70.7935 28.6285C70.5269 28.1474 70.3936 27.6012 70.3936 26.9901C70.3872 26.3789 70.5171 25.8328 70.7837 25.3517C71.0568 24.8641 71.4241 24.487 71.8858 24.2204C72.3474 23.9474 72.8578 23.8141 73.4169 23.8206C73.976 23.8141 74.4734 23.9441 74.909 24.2107C75.3511 24.4707 75.6892 24.8446 75.9233 25.3322C76.1638 25.8133 76.2841 26.366 76.2841 26.9901C76.2841 27.6143 76.1638 28.1669 75.9233 28.648C75.6892 29.1292 75.3511 29.5062 74.909 29.7793ZM36.9161 18.0471H39.9589L42.6808 27.9875L45.5763 18.0471H48.112L51.2522 27.788L53.8659 18.0471H56.655L52.5396 32.4027H49.9161L46.7228 22.8867L43.7916 32.4027H41.139L36.9161 18.0471ZM61.1487 32.6562C60.0888 32.6627 59.1331 32.4286 58.2814 31.9541C57.4362 31.4729 56.7699 30.8065 56.2821 29.9548C55.8011 29.1031 55.5605 28.1311 55.5605 27.0388C55.5605 25.979 55.8076 25.0201 56.3018 24.1619C56.7958 23.3037 57.4654 22.634 58.3107 22.1529C59.1559 21.6718 60.0986 21.4312 61.1388 21.4312C62.3092 21.4312 63.3331 21.6913 64.2109 22.2114C65.0951 22.7315 65.755 23.4695 66.1907 24.4252C66.6327 25.3744 66.7921 26.4634 66.6685 27.6923H58.3149C58.3382 28.1818 58.4604 28.6272 58.6813 29.0283C58.9284 29.4704 59.2729 29.815 59.715 30.0621C60.1572 30.3091 60.6512 30.4327 61.1975 30.4327C61.6135 30.4261 62.0004 30.3547 62.3579 30.2182C62.7156 30.0751 63.0178 29.8833 63.2649 29.6427C63.5185 29.4022 63.6973 29.1292 63.8014 28.8236H66.5905C66.4214 29.5712 66.0834 30.2377 65.5763 30.8228C65.0691 31.4015 64.432 31.8533 63.6647 32.1783C62.8976 32.5034 62.0589 32.6627 61.1487 32.6562ZM58.691 25.0103C58.5353 25.282 58.4273 25.5746 58.3672 25.8881H63.9046C63.8645 25.4921 63.7422 25.1312 63.538 24.8055C63.3039 24.4219 62.9854 24.1261 62.5823 23.9181C62.1792 23.7035 61.7241 23.5962 61.217 23.5962C60.6773 23.5962 60.1864 23.7198 59.7443 23.9668C59.3022 24.2139 58.9511 24.5617 58.691 25.0103ZM81.0144 21.6555C81.0144 20.7843 81.2126 20.0106 81.6092 19.3344C82.0058 18.6518 82.5617 18.1219 83.2769 17.7448C83.9985 17.3612 84.8406 17.1629 85.8027 17.1499V19.5197C85.3541 19.5262 84.9705 19.6205 84.652 19.8026C84.3399 19.9781 84.0993 20.2349 83.9303 20.573C83.7747 20.8843 83.6907 21.2451 83.6784 21.6555H85.7442V23.9083H83.6768V32.4027H81.0144V23.9083H79.2979V21.6555H81.0144ZM96.2862 32.6367C95.2004 32.6367 94.2284 32.3993 93.3702 31.9248C92.5185 31.4436 91.8489 30.7805 91.3612 29.9353C90.8801 29.0836 90.6395 28.1181 90.6395 27.0387C90.6395 25.9531 90.8801 24.9843 91.3612 24.1326C91.8489 23.2744 92.5185 22.6079 93.3702 22.1333C94.2284 21.6587 95.2004 21.4214 96.2862 21.4214C97.3784 21.4214 98.3537 21.6587 99.2119 22.1333C100.077 22.6079 100.75 23.2711 101.231 24.1228C101.712 24.9745 101.956 25.9465 101.962 27.0387C101.956 28.1181 101.712 29.0836 101.231 29.9353C100.756 30.7805 100.086 31.4436 99.2216 31.9248C98.3569 32.3993 97.3784 32.6367 96.2862 32.6367ZM96.2862 30.1889C96.8583 30.1889 97.3655 30.0588 97.8075 29.7988C98.2497 29.5322 98.591 29.1616 98.8316 28.6869C99.0721 28.2059 99.1924 27.6564 99.1924 27.0387C99.1924 26.4146 99.0721 25.862 98.8316 25.3809C98.591 24.8998 98.2497 24.5292 97.8075 24.2691C97.3655 24.0025 96.8583 23.8693 96.2862 23.8693C95.7206 23.8693 95.2167 24.0025 94.7745 24.2691C94.339 24.5292 94.0008 24.8998 93.7603 25.3809C93.5198 25.862 93.4028 26.4146 93.4092 27.0387C93.4092 27.6564 93.5295 28.2059 93.77 28.6869C94.0171 29.1616 94.3552 29.5322 94.7843 29.7988C95.2199 30.0588 95.7206 30.1889 96.2862 30.1889ZM104.839 21.6555H101.874L105.083 32.4027H107.677L109.787 25.5385L112.065 32.4027H114.621L117.839 21.6555H115.157L113.332 28.345L111.314 21.6555H108.721L106.713 28.4923L104.839 21.6555Z" fill="black"/>
<path fill-rule="evenodd" clip-rule="evenodd" d="M33.0591 15.2456L23.1938 34.5314H13.9274L18.056 26.5385H17.8708C14.4647 30.9601 9.38267 33.8709 2.1416 34.5314V26.6492C2.1416 26.6492 6.77389 26.3756 9.49708 23.5125H2.1416V15.2458H10.4084V22.0451L10.5939 22.0443L13.9721 15.2458H20.224V22.0019L20.4094 22.0016L23.9143 15.2456H33.0591ZM86.856 32.4027H89.5184V17.1206H86.856V32.4027ZM72.1784 32.2466C72.757 32.4872 73.3454 32.6075 73.9436 32.6075C74.9318 32.6075 75.816 32.367 76.5962 31.8858C77.3764 31.4047 77.9811 30.7416 78.4102 29.8963C78.8393 29.0447 79.0538 28.0791 79.0538 26.9998C79.0538 25.9206 78.8328 24.9551 78.3907 24.1034C77.9485 23.2517 77.3341 22.5918 76.5474 22.1237C75.7607 21.649 74.8667 21.415 73.8655 21.4215C73.2284 21.4215 72.6173 21.545 72.032 21.7921C71.4469 22.0391 70.9593 22.3902 70.5692 22.8453C70.5391 22.88 70.5098 22.915 70.4815 22.9503V17.1304H67.8093V32.4028H70.462L70.4566 30.976C70.5252 31.0601 70.5986 31.1423 70.6765 31.2227C71.099 31.6583 71.5997 31.9996 72.1784 32.2466ZM74.909 29.7793C74.4734 30.0459 73.976 30.1792 73.4169 30.1792C72.8642 30.1792 72.3571 30.0426 71.8955 29.7696C71.4339 29.49 71.0666 29.1097 70.7935 28.6285C70.5269 28.1474 70.3936 27.6012 70.3936 26.9901C70.3872 26.3789 70.5171 25.8328 70.7837 25.3517C71.0568 24.8641 71.4241 24.487 71.8858 24.2204C72.3474 23.9474 72.8578 23.8141 73.4169 23.8206C73.976 23.8141 74.4734 23.9441 74.909 24.2107C75.3511 24.4707 75.6892 24.8446 75.9233 25.3322C76.1638 25.8133 76.2841 26.366 76.2841 26.9901C76.2841 27.6143 76.1638 28.1669 75.9233 28.648C75.6892 29.1292 75.3511 29.5062 74.909 29.7793ZM36.9161 18.0471H39.9589L42.6808 27.9875L45.5763 18.0471H48.112L51.2522 27.788L53.8659 18.0471H56.655L52.5396 32.4027H49.9161L46.7228 22.8867L43.7916 32.4027H41.139L36.9161 18.0471ZM61.1487 32.6562C60.0888 32.6627 59.1331 32.4286 58.2814 31.9541C57.4362 31.4729 56.7699 30.8065 56.2821 29.9548C55.8011 29.1031 55.5605 28.1311 55.5605 27.0388C55.5605 25.979 55.8076 25.0201 56.3018 24.1619C56.7958 23.3037 57.4654 22.634 58.3107 22.1529C59.1559 21.6718 60.0986 21.4312 61.1388 21.4312C62.3092 21.4312 63.3331 21.6913 64.2109 22.2114C65.0951 22.7315 65.755 23.4695 66.1907 24.4252C66.6327 25.3744 66.7921 26.4634 66.6685 27.6923H58.3149C58.3382 28.1818 58.4604 28.6272 58.6813 29.0283C58.9284 29.4704 59.2729 29.815 59.715 30.0621C60.1572 30.3091 60.6512 30.4327 61.1975 30.4327C61.6135 30.4261 62.0004 30.3547 62.3579 30.2182C62.7156 30.0751 63.0178 29.8833 63.2649 29.6427C63.5185 29.4022 63.6973 29.1292 63.8014 28.8236H66.5905C66.4214 29.5712 66.0834 30.2377 65.5763 30.8228C65.0691 31.4015 64.432 31.8533 63.6647 32.1783C62.8976 32.5034 62.0589 32.6627 61.1487 32.6562ZM58.691 25.0103C58.5353 25.282 58.4273 25.5746 58.3672 25.8881H63.9046C63.8645 25.4921 63.7422 25.1312 63.538 24.8055C63.3039 24.4219 62.9854 24.1261 62.5823 23.9181C62.1792 23.7035 61.7241 23.5962 61.217 23.5962C60.6773 23.5962 60.1864 23.7198 59.7443 23.9668C59.3022 24.2139 58.9511 24.5617 58.691 25.0103ZM81.0144 21.6555C81.0144 20.7843 81.2126 20.0106 81.6092 19.3344C82.0058 18.6518 82.5617 18.1219 83.2769 17.7448C83.9985 17.3612 84.8406 17.1629 85.8027 17.1499V19.5197C85.3541 19.5262 84.9705 19.6205 84.652 19.8026C84.3399 19.9781 84.0993 20.2349 83.9303 20.573C83.7747 20.8843 83.6907 21.2451 83.6784 21.6555H85.7442V23.9083H83.6768V32.4027H81.0144V23.9083H79.2979V21.6555H81.0144ZM96.2862 32.6367C95.2004 32.6367 94.2284 32.3993 93.3702 31.9248C92.5185 31.4436 91.8489 30.7805 91.3612 29.9353C90.8801 29.0836 90.6395 28.1181 90.6395 27.0387C90.6395 25.9531 90.8801 24.9843 91.3612 24.1326C91.8489 23.2744 92.5185 22.6079 93.3702 22.1333C94.2284 21.6587 95.2004 21.4214 96.2862 21.4214C97.3784 21.4214 98.3537 21.6587 99.2119 22.1333C100.077 22.6079 100.75 23.2711 101.231 24.1228C101.712 24.9745 101.956 25.9465 101.962 27.0387C101.956 28.1181 101.712 29.0836 101.231 29.9353C100.756 30.7805 100.086 31.4436 99.2216 31.9248C98.3569 32.3993 97.3784 32.6367 96.2862 32.6367ZM96.2862 30.1889C96.8583 30.1889 97.3655 30.0588 97.8075 29.7988C98.2497 29.5322 98.591 29.1616 98.8316 28.6869C99.0721 28.2059 99.1924 27.6564 99.1924 27.0387C99.1924 26.4146 99.0721 25.862 98.8316 25.3809C98.591 24.8998 98.2497 24.5292 97.8075 24.2691C97.3655 24.0025 96.8583 23.8693 96.2862 23.8693C95.7206 23.8693 95.2167 24.0025 94.7745 24.2691C94.339 24.5292 94.0008 24.8998 93.7603 25.3809C93.5198 25.862 93.4028 26.4146 93.4092 27.0387C93.4092 27.6564 93.5295 28.2059 93.77 28.6869C94.0171 29.1616 94.3552 29.5322 94.7843 29.7988C95.2199 30.0588 95.7206 30.1889 96.2862 30.1889ZM104.839 21.6555H101.874L105.083 32.4027H107.677L109.787 25.5385L112.065 32.4027H114.621L117.839 21.6555H115.157L113.332 28.345L111.314 21.6555H108.721L106.713 28.4923L104.839 21.6555Z" fill="black"/>
<path d="M33.0591 15.2456L23.1938 34.5314H13.9274L18.056 26.5385H17.8708C14.4647 30.9601 9.38267 33.8709 2.1416 34.5314V26.6492C2.1416 26.6492 6.77389 26.3756 9.49708 23.5125H2.1416V15.2458H10.4084V22.0451L10.5939 22.0443L13.9721 15.2458H20.224V22.0019L20.4094 22.0016L23.9143 15.2456H33.0591ZM86.856 32.4027H89.5184V17.1206H86.856V32.4027ZM72.1784 32.2466C72.757 32.4872 73.3454 32.6075 73.9436 32.6075C74.9318 32.6075 75.816 32.367 76.5962 31.8858C77.3764 31.4047 77.9811 30.7416 78.4102 29.8963C78.8393 29.0447 79.0538 28.0791 79.0538 26.9998C79.0538 25.9206 78.8328 24.9551 78.3907 24.1034C77.9485 23.2517 77.3341 22.5918 76.5474 22.1237C75.7607 21.649 74.8667 21.415 73.8655 21.4215C73.2284 21.4215 72.6173 21.545 72.032 21.7921C71.4469 22.0391 70.9593 22.3902 70.5692 22.8453C70.5391 22.88 70.5098 22.915 70.4815 22.9503V17.1304H67.8093V32.4028H70.462L70.4566 30.976C70.5252 31.0601 70.5986 31.1423 70.6765 31.2227C71.099 31.6583 71.5997 31.9996 72.1784 32.2466ZM74.909 29.7793C74.4734 30.0459 73.976 30.1792 73.4169 30.1792C72.8642 30.1792 72.3571 30.0426 71.8955 29.7696C71.4339 29.49 71.0666 29.1097 70.7935 28.6285C70.5269 28.1474 70.3936 27.6012 70.3936 26.9901C70.3872 26.3789 70.5171 25.8328 70.7837 25.3517C71.0568 24.8641 71.4241 24.487 71.8858 24.2204C72.3474 23.9474 72.8578 23.8141 73.4169 23.8206C73.976 23.8141 74.4734 23.9441 74.909 24.2107C75.3511 24.4707 75.6892 24.8446 75.9233 25.3322C76.1638 25.8133 76.2841 26.366 76.2841 26.9901C76.2841 27.6143 76.1638 28.1669 75.9233 28.648C75.6892 29.1292 75.3511 29.5062 74.909 29.7793ZM36.9161 18.0471H39.9589L42.6808 27.9875L45.5763 18.0471H48.112L51.2522 27.788L53.8659 18.0471H56.655L52.5396 32.4027H49.9161L46.7228 22.8867L43.7916 32.4027H41.139L36.9161 18.0471ZM61.1487 32.6562C60.0888 32.6627 59.1331 32.4286 58.2814 31.9541C57.4362 31.4729 56.7699 30.8065 56.2821 29.9548C55.8011 29.1031 55.5605 28.1311 55.5605 27.0388C55.5605 25.979 55.8076 25.0201 56.3018 24.1619C56.7958 23.3037 57.4654 22.634 58.3107 22.1529C59.1559 21.6718 60.0986 21.4312 61.1388 21.4312C62.3092 21.4312 63.3331 21.6913 64.2109 22.2114C65.0951 22.7315 65.755 23.4695 66.1907 24.4252C66.6327 25.3744 66.7921 26.4634 66.6685 27.6923H58.3149C58.3382 28.1818 58.4604 28.6272 58.6813 29.0283C58.9284 29.4704 59.2729 29.815 59.715 30.0621C60.1572 30.3091 60.6512 30.4327 61.1975 30.4327C61.6135 30.4261 62.0004 30.3547 62.3579 30.2182C62.7156 30.0751 63.0178 29.8833 63.2649 29.6427C63.5185 29.4022 63.6973 29.1292 63.8014 28.8236H66.5905C66.4214 29.5712 66.0834 30.2377 65.5763 30.8228C65.0691 31.4015 64.432 31.8533 63.6647 32.1783C62.8976 32.5034 62.0589 32.6627 61.1487 32.6562ZM58.691 25.0103C58.5353 25.282 58.4273 25.5746 58.3672 25.8881H63.9046C63.8645 25.4921 63.7422 25.1312 63.538 24.8055C63.3039 24.4219 62.9854 24.1261 62.5823 23.9181C62.1792 23.7035 61.7241 23.5962 61.217 23.5962C60.6773 23.5962 60.1864 23.7198 59.7443 23.9668C59.3022 24.2139 58.9511 24.5617 58.691 25.0103ZM81.0144 21.6555C81.0144 20.7843 81.2126 20.0106 81.6092 19.3344C82.0058 18.6518 82.5617 18.1219 83.2769 17.7448C83.9985 17.3612 84.8406 17.1629 85.8027 17.1499V19.5197C85.3541 19.5262 84.9705 19.6205 84.652 19.8026C84.3399 19.9781 84.0993 20.2349 83.9303 20.573C83.7747 20.8843 83.6907 21.2451 83.6784 21.6555H85.7442V23.9083H83.6768V32.4027H81.0144V23.9083H79.2979V21.6555H81.0144ZM96.2862 32.6367C95.2004 32.6367 94.2284 32.3993 93.3702 31.9248C92.5185 31.4436 91.8489 30.7805 91.3612 29.9353C90.8801 29.0836 90.6395 28.1181 90.6395 27.0387C90.6395 25.9531 90.8801 24.9843 91.3612 24.1326C91.8489 23.2744 92.5185 22.6079 93.3702 22.1333C94.2284 21.6587 95.2004 21.4214 96.2862 21.4214C97.3784 21.4214 98.3537 21.6587 99.2119 22.1333C100.077 22.6079 100.75 23.2711 101.231 24.1228C101.712 24.9745 101.956 25.9465 101.962 27.0387C101.956 28.1181 101.712 29.0836 101.231 29.9353C100.756 30.7805 100.086 31.4436 99.2216 31.9248C98.3569 32.3993 97.3784 32.6367 96.2862 32.6367ZM96.2862 30.1889C96.8583 30.1889 97.3655 30.0588 97.8075 29.7988C98.2497 29.5322 98.591 29.1616 98.8316 28.6869C99.0721 28.2059 99.1924 27.6564 99.1924 27.0387C99.1924 26.4146 99.0721 25.862 98.8316 25.3809C98.591 24.8998 98.2497 24.5292 97.8075 24.2691C97.3655 24.0025 96.8583 23.8693 96.2862 23.8693C95.7206 23.8693 95.2167 24.0025 94.7745 24.2691C94.339 24.5292 94.0008 24.8998 93.7603 25.3809C93.5198 25.862 93.4028 26.4146 93.4092 27.0387C93.4092 27.6564 93.5295 28.2059 93.77 28.6869C94.0171 29.1616 94.3552 29.5322 94.7843 29.7988C95.2199 30.0588 95.7206 30.1889 96.2862 30.1889ZM104.839 21.6555H101.874L105.083 32.4027H107.677L109.787 25.5385L112.065 32.4027H114.621L117.839 21.6555H115.157L113.332 28.345L111.314 21.6555H108.721L106.713 28.4923L104.839 21.6555Z" fill="black"/>
<path fill-rule="evenodd" clip-rule="evenodd" d="M33.0591 15.2456L23.1938 34.5314H13.9274L18.056 26.5385H17.8708C14.4647 30.9601 9.38267 33.8709 2.1416 34.5314V26.6492C2.1416 26.6492 6.77389 26.3756 9.49708 23.5125H2.1416V15.2458H10.4084V22.0451L10.5939 22.0443L13.9721 15.2458H20.224V22.0019L20.4094 22.0016L23.9143 15.2456H33.0591ZM86.856 32.4027H89.5184V17.1206H86.856V32.4027ZM72.1784 32.2466C72.757 32.4872 73.3454 32.6075 73.9436 32.6075C74.9318 32.6075 75.816 32.367 76.5962 31.8858C77.3764 31.4047 77.9811 30.7416 78.4102 29.8963C78.8393 29.0447 79.0538 28.0791 79.0538 26.9998C79.0538 25.9206 78.8328 24.9551 78.3907 24.1034C77.9485 23.2517 77.3341 22.5918 76.5474 22.1237C75.7607 21.649 74.8667 21.415 73.8655 21.4215C73.2284 21.4215 72.6173 21.545 72.032 21.7921C71.4469 22.0391 70.9593 22.3902 70.5692 22.8453C70.5391 22.88 70.5098 22.915 70.4815 22.9503V17.1304H67.8093V32.4028H70.462L70.4566 30.976C70.5252 31.0601 70.5986 31.1423 70.6765 31.2227C71.099 31.6583 71.5997 31.9996 72.1784 32.2466ZM74.909 29.7793C74.4734 30.0459 73.976 30.1792 73.4169 30.1792C72.8642 30.1792 72.3571 30.0426 71.8955 29.7696C71.4339 29.49 71.0666 29.1097 70.7935 28.6285C70.5269 28.1474 70.3936 27.6012 70.3936 26.9901C70.3872 26.3789 70.5171 25.8328 70.7837 25.3517C71.0568 24.8641 71.4241 24.487 71.8858 24.2204C72.3474 23.9474 72.8578 23.8141 73.4169 23.8206C73.976 23.8141 74.4734 23.9441 74.909 24.2107C75.3511 24.4707 75.6892 24.8446 75.9233 25.3322C76.1638 25.8133 76.2841 26.366 76.2841 26.9901C76.2841 27.6143 76.1638 28.1669 75.9233 28.648C75.6892 29.1292 75.3511 29.5062 74.909 29.7793ZM36.9161 18.0471H39.9589L42.6808 27.9875L45.5763 18.0471H48.112L51.2522 27.788L53.8659 18.0471H56.655L52.5396 32.4027H49.9161L46.7228 22.8867L43.7916 32.4027H41.139L36.9161 18.0471ZM61.1487 32.6562C60.0888 32.6627 59.1331 32.4286 58.2814 31.9541C57.4362 31.4729 56.7699 30.8065 56.2821 29.9548C55.8011 29.1031 55.5605 28.1311 55.5605 27.0388C55.5605 25.979 55.8076 25.0201 56.3018 24.1619C56.7958 23.3037 57.4654 22.634 58.3107 22.1529C59.1559 21.6718 60.0986 21.4312 61.1388 21.4312C62.3092 21.4312 63.3331 21.6913 64.2109 22.2114C65.0951 22.7315 65.755 23.4695 66.1907 24.4252C66.6327 25.3744 66.7921 26.4634 66.6685 27.6923H58.3149C58.3382 28.1818 58.4604 28.6272 58.6813 29.0283C58.9284 29.4704 59.2729 29.815 59.715 30.0621C60.1572 30.3091 60.6512 30.4327 61.1975 30.4327C61.6135 30.4261 62.0004 30.3547 62.3579 30.2182C62.7156 30.0751 63.0178 29.8833 63.2649 29.6427C63.5185 29.4022 63.6973 29.1292 63.8014 28.8236H66.5905C66.4214 29.5712 66.0834 30.2377 65.5763 30.8228C65.0691 31.4015 64.432 31.8533 63.6647 32.1783C62.8976 32.5034 62.0589 32.6627 61.1487 32.6562ZM58.691 25.0103C58.5353 25.282 58.4273 25.5746 58.3672 25.8881H63.9046C63.8645 25.4921 63.7422 25.1312 63.538 24.8055C63.3039 24.4219 62.9854 24.1261 62.5823 23.9181C62.1792 23.7035 61.7241 23.5962 61.217 23.5962C60.6773 23.5962 60.1864 23.7198 59.7443 23.9668C59.3022 24.2139 58.9511 24.5617 58.691 25.0103ZM81.0144 21.6555C81.0144 20.7843 81.2126 20.0106 81.6092 19.3344C82.0058 18.6518 82.5617 18.1219 83.2769 17.7448C83.9985 17.3612 84.8406 17.1629 85.8027 17.1499V19.5197C85.3541 19.5262 84.9705 19.6205 84.652 19.8026C84.3399 19.9781 84.0993 20.2349 83.9303 20.573C83.7747 20.8843 83.6907 21.2451 83.6784 21.6555H85.7442V23.9083H83.6768V32.4027H81.0144V23.9083H79.2979V21.6555H81.0144ZM96.2862 32.6367C95.2004 32.6367 94.2284 32.3993 93.3702 31.9248C92.5185 31.4436 91.8489 30.7805 91.3612 29.9353C90.8801 29.0836 90.6395 28.1181 90.6395 27.0387C90.6395 25.9531 90.8801 24.9843 91.3612 24.1326C91.8489 23.2744 92.5185 22.6079 93.3702 22.1333C94.2284 21.6587 95.2004 21.4214 96.2862 21.4214C97.3784 21.4214 98.3537 21.6587 99.2119 22.1333C100.077 22.6079 100.75 23.2711 101.231 24.1228C101.712 24.9745 101.956 25.9465 101.962 27.0387C101.956 28.1181 101.712 29.0836 101.231 29.9353C100.756 30.7805 100.086 31.4436 99.2216 31.9248C98.3569 32.3993 97.3784 32.6367 96.2862 32.6367ZM96.2862 30.1889C96.8583 30.1889 97.3655 30.0588 97.8075 29.7988C98.2497 29.5322 98.591 29.1616 98.8316 28.6869C99.0721 28.2059 99.1924 27.6564 99.1924 27.0387C99.1924 26.4146 99.0721 25.862 98.8316 25.3809C98.591 24.8998 98.2497 24.5292 97.8075 24.2691C97.3655 24.0025 96.8583 23.8693 96.2862 23.8693C95.7206 23.8693 95.2167 24.0025 94.7745 24.2691C94.339 24.5292 94.0008 24.8998 93.7603 25.3809C93.5198 25.862 93.4028 26.4146 93.4092 27.0387C93.4092 27.6564 93.5295 28.2059 93.77 28.6869C94.0171 29.1616 94.3552 29.5322 94.7843 29.7988C95.2199 30.0588 95.7206 30.1889 96.2862 30.1889ZM104.839 21.6555H101.874L105.083 32.4027H107.677L109.787 25.5385L112.065 32.4027H114.621L117.839 21.6555H115.157L113.332 28.345L111.314 21.6555H108.721L106.713 28.4923L104.839 21.6555Z" fill="black"/>
<path d="M33.0591 15.2456L23.1938 34.5314H13.9274L18.056 26.5385H17.8708C14.4647 30.9601 9.38267 33.8709 2.1416 34.5314V26.6492C2.1416 26.6492 6.77389 26.3756 9.49708 23.5125H2.1416V15.2458H10.4084V22.0451L10.5939 22.0443L13.9721 15.2458H20.224V22.0019L20.4094 22.0016L23.9143 15.2456H33.0591ZM86.856 32.4027H89.5184V17.1206H86.856V32.4027ZM72.1784 32.2466C72.757 32.4872 73.3454 32.6075 73.9436 32.6075C74.9318 32.6075 75.816 32.367 76.5962 31.8858C77.3764 31.4047 77.9811 30.7416 78.4102 29.8963C78.8393 29.0447 79.0538 28.0791 79.0538 26.9998C79.0538 25.9206 78.8328 24.9551 78.3907 24.1034C77.9485 23.2517 77.3341 22.5918 76.5474 22.1237C75.7607 21.649 74.8667 21.415 73.8655 21.4215C73.2284 21.4215 72.6173 21.545 72.032 21.7921C71.4469 22.0391 70.9593 22.3902 70.5692 22.8453C70.5391 22.88 70.5098 22.915 70.4815 22.9503V17.1304H67.8093V32.4028H70.462L70.4566 30.976C70.5252 31.0601 70.5986 31.1423 70.6765 31.2227C71.099 31.6583 71.5997 31.9996 72.1784 32.2466ZM74.909 29.7793C74.4734 30.0459 73.976 30.1792 73.4169 30.1792C72.8642 30.1792 72.3571 30.0426 71.8955 29.7696C71.4339 29.49 71.0666 29.1097 70.7935 28.6285C70.5269 28.1474 70.3936 27.6012 70.3936 26.9901C70.3872 26.3789 70.5171 25.8328 70.7837 25.3517C71.0568 24.8641 71.4241 24.487 71.8858 24.2204C72.3474 23.9474 72.8578 23.8141 73.4169 23.8206C73.976 23.8141 74.4734 23.9441 74.909 24.2107C75.3511 24.4707 75.6892 24.8446 75.9233 25.3322C76.1638 25.8133 76.2841 26.366 76.2841 26.9901C76.2841 27.6143 76.1638 28.1669 75.9233 28.648C75.6892 29.1292 75.3511 29.5062 74.909 29.7793ZM36.9161 18.0471H39.9589L42.6808 27.9875L45.5763 18.0471H48.112L51.2522 27.788L53.8659 18.0471H56.655L52.5396 32.4027H49.9161L46.7228 22.8867L43.7916 32.4027H41.139L36.9161 18.0471ZM61.1487 32.6562C60.0888 32.6627 59.1331 32.4286 58.2814 31.9541C57.4362 31.4729 56.7699 30.8065 56.2821 29.9548C55.8011 29.1031 55.5605 28.1311 55.5605 27.0388C55.5605 25.979 55.8076 25.0201 56.3018 24.1619C56.7958 23.3037 57.4654 22.634 58.3107 22.1529C59.1559 21.6718 60.0986 21.4312 61.1388 21.4312C62.3092 21.4312 63.3331 21.6913 64.2109 22.2114C65.0951 22.7315 65.755 23.4695 66.1907 24.4252C66.6327 25.3744 66.7921 26.4634 66.6685 27.6923H58.3149C58.3382 28.1818 58.4604 28.6272 58.6813 29.0283C58.9284 29.4704 59.2729 29.815 59.715 30.0621C60.1572 30.3091 60.6512 30.4327 61.1975 30.4327C61.6135 30.4261 62.0004 30.3547 62.3579 30.2182C62.7156 30.0751 63.0178 29.8833 63.2649 29.6427C63.5185 29.4022 63.6973 29.1292 63.8014 28.8236H66.5905C66.4214 29.5712 66.0834 30.2377 65.5763 30.8228C65.0691 31.4015 64.432 31.8533 63.6647 32.1783C62.8976 32.5034 62.0589 32.6627 61.1487 32.6562ZM58.691 25.0103C58.5353 25.282 58.4273 25.5746 58.3672 25.8881H63.9046C63.8645 25.4921 63.7422 25.1312 63.538 24.8055C63.3039 24.4219 62.9854 24.1261 62.5823 23.9181C62.1792 23.7035 61.7241 23.5962 61.217 23.5962C60.6773 23.5962 60.1864 23.7198 59.7443 23.9668C59.3022 24.2139 58.9511 24.5617 58.691 25.0103ZM81.0144 21.6555C81.0144 20.7843 81.2126 20.0106 81.6092 19.3344C82.0058 18.6518 82.5617 18.1219 83.2769 17.7448C83.9985 17.3612 84.8406 17.1629 85.8027 17.1499V19.5197C85.3541 19.5262 84.9705 19.6205 84.652 19.8026C84.3399 19.9781 84.0993 20.2349 83.9303 20.573C83.7747 20.8843 83.6907 21.2451 83.6784 21.6555H85.7442V23.9083H83.6768V32.4027H81.0144V23.9083H79.2979V21.6555H81.0144ZM96.2862 32.6367C95.2004 32.6367 94.2284 32.3993 93.3702 31.9248C92.5185 31.4436 91.8489 30.7805 91.3612 29.9353C90.8801 29.0836 90.6395 28.1181 90.6395 27.0387C90.6395 25.9531 90.8801 24.9843 91.3612 24.1326C91.8489 23.2744 92.5185 22.6079 93.3702 22.1333C94.2284 21.6587 95.2004 21.4214 96.2862 21.4214C97.3784 21.4214 98.3537 21.6587 99.2119 22.1333C100.077 22.6079 100.75 23.2711 101.231 24.1228C101.712 24.9745 101.956 25.9465 101.962 27.0387C101.956 28.1181 101.712 29.0836 101.231 29.9353C100.756 30.7805 100.086 31.4436 99.2216 31.9248C98.3569 32.3993 97.3784 32.6367 96.2862 32.6367ZM96.2862 30.1889C96.8583 30.1889 97.3655 30.0588 97.8075 29.7988C98.2497 29.5322 98.591 29.1616 98.8316 28.6869C99.0721 28.2059 99.1924 27.6564 99.1924 27.0387C99.1924 26.4146 99.0721 25.862 98.8316 25.3809C98.591 24.8998 98.2497 24.5292 97.8075 24.2691C97.3655 24.0025 96.8583 23.8693 96.2862 23.8693C95.7206 23.8693 95.2167 24.0025 94.7745 24.2691C94.339 24.5292 94.0008 24.8998 93.7603 25.3809C93.5198 25.862 93.4028 26.4146 93.4092 27.0387C93.4092 27.6564 93.5295 28.2059 93.77 28.6869C94.0171 29.1616 94.3552 29.5322 94.7843 29.7988C95.2199 30.0588 95.7206 30.1889 96.2862 30.1889ZM104.839 21.6555H101.874L105.083 32.4027H107.677L109.787 25.5385L112.065 32.4027H114.621L117.839 21.6555H115.157L113.332 28.345L111.314 21.6555H108.721L106.713 28.4923L104.839 21.6555Z" fill="black"/>
</svg>
