<svg width="120" height="49" viewBox="0 0 120 49" fill="none" xmlns="http://www.w3.org/2000/svg">
<path fill-rule="evenodd" clip-rule="evenodd" d="M33.0596 15.2451L23.1943 34.5309H13.9279L18.0565 26.538H17.8713C14.4652 30.9596 9.38316 33.8704 2.14209 34.5309V26.6487C2.14209 26.6487 6.77438 26.3751 9.49757 23.512H2.14209V15.2453H10.4089V22.0446L10.5944 22.0438L13.9725 15.2453H20.2245V22.0015L20.4099 22.0012L23.9148 15.2451H33.0596ZM86.8565 32.4022H89.5189V17.1201H86.8565V32.4022ZM72.1789 32.2462C72.7575 32.4867 73.3459 32.607 73.9441 32.607C74.9323 32.607 75.8165 32.3665 76.5967 31.8853C77.3768 31.4042 77.9816 30.7411 78.4107 29.8959C78.8398 29.0442 79.0543 28.0786 79.0543 26.9993C79.0543 25.9201 78.8332 24.9546 78.3912 24.1029C77.949 23.2512 77.3346 22.5913 76.5479 22.1232C75.7612 21.6486 74.8672 21.4145 73.866 21.421C73.2289 21.421 72.6177 21.5445 72.0325 21.7916C71.4474 22.0387 70.9598 22.3897 70.5697 22.8449C70.5396 22.8795 70.5103 22.9145 70.4819 22.9498V17.1299H67.8098V32.4023H70.4624L70.4571 30.9755C70.5257 31.0596 70.5991 31.1418 70.6769 31.2222C71.0995 31.6578 71.6002 31.9991 72.1789 32.2462ZM74.9095 29.7789C74.4739 30.0454 73.9765 30.1787 73.4174 30.1787C72.8647 30.1787 72.3576 30.0421 71.896 29.7691C71.4343 29.4895 71.0671 29.1092 70.7939 28.628C70.5274 28.147 70.3941 27.6007 70.3941 26.9896C70.3877 26.3784 70.5176 25.8323 70.7842 25.3512C71.0573 24.8636 71.4246 24.4865 71.8863 24.2199C72.3478 23.9469 72.8583 23.8136 73.4174 23.8201C73.9765 23.8136 74.4739 23.9436 74.9095 24.2102C75.3516 24.4703 75.6897 24.8441 75.9238 25.3317C76.1643 25.8128 76.2846 26.3655 76.2846 26.9896C76.2846 27.6138 76.1643 28.1665 75.9238 28.6475C75.6897 29.1287 75.3516 29.5057 74.9095 29.7789ZM36.9166 18.0466H39.9594L42.6812 27.987L45.5768 18.0466H48.1124L51.2527 27.7875L53.8664 18.0466H56.6555L52.54 32.4022H49.9166L46.7233 22.8862L43.7921 32.4022H41.1394L36.9166 18.0466ZM61.1492 32.6557C60.0893 32.6623 59.1336 32.4281 58.2819 31.9536C57.4367 31.4724 56.7703 30.806 56.2826 29.9543C55.8016 29.1026 55.561 28.1306 55.561 27.0383C55.561 25.9785 55.8081 25.0196 56.3022 24.1614C56.7963 23.3032 57.4659 22.6335 58.3112 22.1524C59.1564 21.6713 60.0991 21.4307 61.1393 21.4307C62.3097 21.4307 63.3336 21.6908 64.2113 22.2109C65.0956 22.731 65.7555 23.469 66.1911 24.4247C66.6332 25.3739 66.7925 26.4629 66.669 27.6918H58.3154C58.3387 28.1813 58.4609 28.6267 58.6818 29.0278C58.9289 29.4699 59.2734 29.8145 59.7155 30.0616C60.1577 30.3086 60.6517 30.4322 61.1979 30.4322C61.614 30.4256 62.0009 30.3542 62.3584 30.2177C62.7161 30.0746 63.0183 29.8828 63.2654 29.6422C63.519 29.4017 63.6978 29.1287 63.8018 28.8231H66.591C66.4219 29.5707 66.0839 30.2372 65.5768 30.8223C65.0696 31.401 64.4325 31.8528 63.6652 32.1779C62.8981 32.5029 62.0594 32.6623 61.1492 32.6557ZM58.6915 25.0098C58.5358 25.2815 58.4277 25.5741 58.3676 25.8876H63.9051C63.865 25.4916 63.7427 25.1307 63.5385 24.805C63.3044 24.4214 62.9858 24.1256 62.5828 23.9176C62.1797 23.703 61.7246 23.5957 61.2174 23.5957C60.6778 23.5957 60.1869 23.7193 59.7448 23.9663C59.3027 24.2134 58.9516 24.5612 58.6915 25.0098ZM81.0148 21.655C81.0148 20.7838 81.2131 20.0101 81.6097 19.334C82.0062 18.6513 82.5622 18.1214 83.2774 17.7443C83.999 17.3607 84.841 17.1624 85.8032 17.1494V19.5193C85.3546 19.5258 84.971 19.62 84.6525 19.8021C84.3404 19.9776 84.0998 20.2344 83.9307 20.5725C83.7752 20.8838 83.6912 21.2446 83.6789 21.655H85.7447V23.9078H83.6773V32.4022H81.0148V23.9078H79.2984V21.655H81.0148ZM96.2867 32.6362C95.2009 32.6362 94.2289 32.3988 93.3707 31.9243C92.519 31.4431 91.8493 30.78 91.3617 29.9348C90.8805 29.0831 90.64 28.1176 90.64 27.0382C90.64 25.9526 90.8805 24.9838 91.3617 24.1321C91.8493 23.2739 92.519 22.6075 93.3707 22.1328C94.2289 21.6582 95.2009 21.4209 96.2867 21.4209C97.3789 21.4209 98.3542 21.6582 99.2123 22.1328C100.077 22.6075 100.75 23.2706 101.231 24.1223C101.712 24.974 101.956 25.946 101.963 27.0382C101.956 28.1176 101.712 29.0831 101.231 29.9348C100.757 30.78 100.087 31.4431 99.2221 31.9243C98.3574 32.3988 97.3789 32.6362 96.2867 32.6362ZM96.2867 30.1884C96.8588 30.1884 97.3659 30.0583 97.808 29.7983C98.2502 29.5317 98.5914 29.1611 98.8321 28.6864C99.0726 28.2054 99.1928 27.6559 99.1928 27.0382C99.1928 26.4141 99.0726 25.8615 98.8321 25.3804C98.5914 24.8993 98.2502 24.5287 97.808 24.2686C97.3659 24.0021 96.8588 23.8688 96.2867 23.8688C95.7211 23.8688 95.2172 24.0021 94.775 24.2686C94.3395 24.5287 94.0013 24.8993 93.7608 25.3804C93.5202 25.8615 93.4032 26.4141 93.4097 27.0382C93.4097 27.6559 93.53 28.2054 93.7705 28.6864C94.0176 29.1611 94.3556 29.5317 94.7848 29.7983C95.2204 30.0583 95.7211 30.1884 96.2867 30.1884ZM104.84 21.655H101.875L105.083 32.4022H107.678L109.788 25.538L112.066 32.4022H114.621L117.84 21.655H115.158L113.332 28.3445L111.315 21.655H108.721L106.713 28.4918L104.84 21.655Z" fill="black"/>
<path d="M33.0596 15.2451L23.1943 34.5309H13.9279L18.0565 26.538H17.8713C14.4652 30.9596 9.38316 33.8704 2.14209 34.5309V26.6487C2.14209 26.6487 6.77438 26.3751 9.49757 23.512H2.14209V15.2453H10.4089V22.0446L10.5944 22.0438L13.9725 15.2453H20.2245V22.0015L20.4099 22.0012L23.9148 15.2451H33.0596ZM86.8565 32.4022H89.5189V17.1201H86.8565V32.4022ZM72.1789 32.2462C72.7575 32.4867 73.3459 32.607 73.9441 32.607C74.9323 32.607 75.8165 32.3665 76.5967 31.8853C77.3768 31.4042 77.9816 30.7411 78.4107 29.8959C78.8398 29.0442 79.0543 28.0786 79.0543 26.9993C79.0543 25.9201 78.8332 24.9546 78.3912 24.1029C77.949 23.2512 77.3346 22.5913 76.5479 22.1232C75.7612 21.6486 74.8672 21.4145 73.866 21.421C73.2289 21.421 72.6177 21.5445 72.0325 21.7916C71.4474 22.0387 70.9598 22.3897 70.5697 22.8449C70.5396 22.8795 70.5103 22.9145 70.4819 22.9498V17.1299H67.8098V32.4023H70.4624L70.4571 30.9755C70.5257 31.0596 70.5991 31.1418 70.6769 31.2222C71.0995 31.6578 71.6002 31.9991 72.1789 32.2462ZM74.9095 29.7789C74.4739 30.0454 73.9765 30.1787 73.4174 30.1787C72.8647 30.1787 72.3576 30.0421 71.896 29.7691C71.4343 29.4895 71.0671 29.1092 70.7939 28.628C70.5274 28.147 70.3941 27.6007 70.3941 26.9896C70.3877 26.3784 70.5176 25.8323 70.7842 25.3512C71.0573 24.8636 71.4246 24.4865 71.8863 24.2199C72.3478 23.9469 72.8583 23.8136 73.4174 23.8201C73.9765 23.8136 74.4739 23.9436 74.9095 24.2102C75.3516 24.4703 75.6897 24.8441 75.9238 25.3317C76.1643 25.8128 76.2846 26.3655 76.2846 26.9896C76.2846 27.6138 76.1643 28.1665 75.9238 28.6475C75.6897 29.1287 75.3516 29.5057 74.9095 29.7789ZM36.9166 18.0466H39.9594L42.6812 27.987L45.5768 18.0466H48.1124L51.2527 27.7875L53.8664 18.0466H56.6555L52.54 32.4022H49.9166L46.7233 22.8862L43.7921 32.4022H41.1394L36.9166 18.0466ZM61.1492 32.6557C60.0893 32.6623 59.1336 32.4281 58.2819 31.9536C57.4367 31.4724 56.7703 30.806 56.2826 29.9543C55.8016 29.1026 55.561 28.1306 55.561 27.0383C55.561 25.9785 55.8081 25.0196 56.3022 24.1614C56.7963 23.3032 57.4659 22.6335 58.3112 22.1524C59.1564 21.6713 60.0991 21.4307 61.1393 21.4307C62.3097 21.4307 63.3336 21.6908 64.2113 22.2109C65.0956 22.731 65.7555 23.469 66.1911 24.4247C66.6332 25.3739 66.7925 26.4629 66.669 27.6918H58.3154C58.3387 28.1813 58.4609 28.6267 58.6818 29.0278C58.9289 29.4699 59.2734 29.8145 59.7155 30.0616C60.1577 30.3086 60.6517 30.4322 61.1979 30.4322C61.614 30.4256 62.0009 30.3542 62.3584 30.2177C62.7161 30.0746 63.0183 29.8828 63.2654 29.6422C63.519 29.4017 63.6978 29.1287 63.8018 28.8231H66.591C66.4219 29.5707 66.0839 30.2372 65.5768 30.8223C65.0696 31.401 64.4325 31.8528 63.6652 32.1779C62.8981 32.5029 62.0594 32.6623 61.1492 32.6557ZM58.6915 25.0098C58.5358 25.2815 58.4277 25.5741 58.3676 25.8876H63.9051C63.865 25.4916 63.7427 25.1307 63.5385 24.805C63.3044 24.4214 62.9858 24.1256 62.5828 23.9176C62.1797 23.703 61.7246 23.5957 61.2174 23.5957C60.6778 23.5957 60.1869 23.7193 59.7448 23.9663C59.3027 24.2134 58.9516 24.5612 58.6915 25.0098ZM81.0148 21.655C81.0148 20.7838 81.2131 20.0101 81.6097 19.334C82.0062 18.6513 82.5622 18.1214 83.2774 17.7443C83.999 17.3607 84.841 17.1624 85.8032 17.1494V19.5193C85.3546 19.5258 84.971 19.62 84.6525 19.8021C84.3404 19.9776 84.0998 20.2344 83.9307 20.5725C83.7752 20.8838 83.6912 21.2446 83.6789 21.655H85.7447V23.9078H83.6773V32.4022H81.0148V23.9078H79.2984V21.655H81.0148ZM96.2867 32.6362C95.2009 32.6362 94.2289 32.3988 93.3707 31.9243C92.519 31.4431 91.8493 30.78 91.3617 29.9348C90.8805 29.0831 90.64 28.1176 90.64 27.0382C90.64 25.9526 90.8805 24.9838 91.3617 24.1321C91.8493 23.2739 92.519 22.6075 93.3707 22.1328C94.2289 21.6582 95.2009 21.4209 96.2867 21.4209C97.3789 21.4209 98.3542 21.6582 99.2123 22.1328C100.077 22.6075 100.75 23.2706 101.231 24.1223C101.712 24.974 101.956 25.946 101.963 27.0382C101.956 28.1176 101.712 29.0831 101.231 29.9348C100.757 30.78 100.087 31.4431 99.2221 31.9243C98.3574 32.3988 97.3789 32.6362 96.2867 32.6362ZM96.2867 30.1884C96.8588 30.1884 97.3659 30.0583 97.808 29.7983C98.2502 29.5317 98.5914 29.1611 98.8321 28.6864C99.0726 28.2054 99.1928 27.6559 99.1928 27.0382C99.1928 26.4141 99.0726 25.8615 98.8321 25.3804C98.5914 24.8993 98.2502 24.5287 97.808 24.2686C97.3659 24.0021 96.8588 23.8688 96.2867 23.8688C95.7211 23.8688 95.2172 24.0021 94.775 24.2686C94.3395 24.5287 94.0013 24.8993 93.7608 25.3804C93.5202 25.8615 93.4032 26.4141 93.4097 27.0382C93.4097 27.6559 93.53 28.2054 93.7705 28.6864C94.0176 29.1611 94.3556 29.5317 94.7848 29.7983C95.2204 30.0583 95.7211 30.1884 96.2867 30.1884ZM104.84 21.655H101.875L105.083 32.4022H107.678L109.788 25.538L112.066 32.4022H114.621L117.84 21.655H115.158L113.332 28.3445L111.315 21.655H108.721L106.713 28.4918L104.84 21.655Z" fill="black"/>
<path fill-rule="evenodd" clip-rule="evenodd" d="M33.0596 15.2451L23.1943 34.5309H13.9279L18.0565 26.538H17.8713C14.4652 30.9596 9.38316 33.8704 2.14209 34.5309V26.6487C2.14209 26.6487 6.77438 26.3751 9.49757 23.512H2.14209V15.2453H10.4089V22.0446L10.5944 22.0438L13.9725 15.2453H20.2245V22.0015L20.4099 22.0012L23.9148 15.2451H33.0596ZM86.8565 32.4022H89.5189V17.1201H86.8565V32.4022ZM72.1789 32.2462C72.7575 32.4867 73.3459 32.607 73.9441 32.607C74.9323 32.607 75.8165 32.3665 76.5967 31.8853C77.3768 31.4042 77.9816 30.7411 78.4107 29.8959C78.8398 29.0442 79.0543 28.0786 79.0543 26.9993C79.0543 25.9201 78.8332 24.9546 78.3912 24.1029C77.949 23.2512 77.3346 22.5913 76.5479 22.1232C75.7612 21.6486 74.8672 21.4145 73.866 21.421C73.2289 21.421 72.6177 21.5445 72.0325 21.7916C71.4474 22.0387 70.9598 22.3897 70.5697 22.8449C70.5396 22.8795 70.5103 22.9145 70.4819 22.9498V17.1299H67.8098V32.4023H70.4624L70.4571 30.9755C70.5257 31.0596 70.5991 31.1418 70.6769 31.2222C71.0995 31.6578 71.6002 31.9991 72.1789 32.2462ZM74.9095 29.7789C74.4739 30.0454 73.9765 30.1787 73.4174 30.1787C72.8647 30.1787 72.3576 30.0421 71.896 29.7691C71.4343 29.4895 71.0671 29.1092 70.7939 28.628C70.5274 28.147 70.3941 27.6007 70.3941 26.9896C70.3877 26.3784 70.5176 25.8323 70.7842 25.3512C71.0573 24.8636 71.4246 24.4865 71.8863 24.2199C72.3478 23.9469 72.8583 23.8136 73.4174 23.8201C73.9765 23.8136 74.4739 23.9436 74.9095 24.2102C75.3516 24.4703 75.6897 24.8441 75.9238 25.3317C76.1643 25.8128 76.2846 26.3655 76.2846 26.9896C76.2846 27.6138 76.1643 28.1665 75.9238 28.6475C75.6897 29.1287 75.3516 29.5057 74.9095 29.7789ZM36.9166 18.0466H39.9594L42.6812 27.987L45.5768 18.0466H48.1124L51.2527 27.7875L53.8664 18.0466H56.6555L52.54 32.4022H49.9166L46.7233 22.8862L43.7921 32.4022H41.1394L36.9166 18.0466ZM61.1492 32.6557C60.0893 32.6623 59.1336 32.4281 58.2819 31.9536C57.4367 31.4724 56.7703 30.806 56.2826 29.9543C55.8016 29.1026 55.561 28.1306 55.561 27.0383C55.561 25.9785 55.8081 25.0196 56.3022 24.1614C56.7963 23.3032 57.4659 22.6335 58.3112 22.1524C59.1564 21.6713 60.0991 21.4307 61.1393 21.4307C62.3097 21.4307 63.3336 21.6908 64.2113 22.2109C65.0956 22.731 65.7555 23.469 66.1911 24.4247C66.6332 25.3739 66.7925 26.4629 66.669 27.6918H58.3154C58.3387 28.1813 58.4609 28.6267 58.6818 29.0278C58.9289 29.4699 59.2734 29.8145 59.7155 30.0616C60.1577 30.3086 60.6517 30.4322 61.1979 30.4322C61.614 30.4256 62.0009 30.3542 62.3584 30.2177C62.7161 30.0746 63.0183 29.8828 63.2654 29.6422C63.519 29.4017 63.6978 29.1287 63.8018 28.8231H66.591C66.4219 29.5707 66.0839 30.2372 65.5768 30.8223C65.0696 31.401 64.4325 31.8528 63.6652 32.1779C62.8981 32.5029 62.0594 32.6623 61.1492 32.6557ZM58.6915 25.0098C58.5358 25.2815 58.4277 25.5741 58.3676 25.8876H63.9051C63.865 25.4916 63.7427 25.1307 63.5385 24.805C63.3044 24.4214 62.9858 24.1256 62.5828 23.9176C62.1797 23.703 61.7246 23.5957 61.2174 23.5957C60.6778 23.5957 60.1869 23.7193 59.7448 23.9663C59.3027 24.2134 58.9516 24.5612 58.6915 25.0098ZM81.0148 21.655C81.0148 20.7838 81.2131 20.0101 81.6097 19.334C82.0062 18.6513 82.5622 18.1214 83.2774 17.7443C83.999 17.3607 84.841 17.1624 85.8032 17.1494V19.5193C85.3546 19.5258 84.971 19.62 84.6525 19.8021C84.3404 19.9776 84.0998 20.2344 83.9307 20.5725C83.7752 20.8838 83.6912 21.2446 83.6789 21.655H85.7447V23.9078H83.6773V32.4022H81.0148V23.9078H79.2984V21.655H81.0148ZM96.2867 32.6362C95.2009 32.6362 94.2289 32.3988 93.3707 31.9243C92.519 31.4431 91.8493 30.78 91.3617 29.9348C90.8805 29.0831 90.64 28.1176 90.64 27.0382C90.64 25.9526 90.8805 24.9838 91.3617 24.1321C91.8493 23.2739 92.519 22.6075 93.3707 22.1328C94.2289 21.6582 95.2009 21.4209 96.2867 21.4209C97.3789 21.4209 98.3542 21.6582 99.2123 22.1328C100.077 22.6075 100.75 23.2706 101.231 24.1223C101.712 24.974 101.956 25.946 101.963 27.0382C101.956 28.1176 101.712 29.0831 101.231 29.9348C100.757 30.78 100.087 31.4431 99.2221 31.9243C98.3574 32.3988 97.3789 32.6362 96.2867 32.6362ZM96.2867 30.1884C96.8588 30.1884 97.3659 30.0583 97.808 29.7983C98.2502 29.5317 98.5914 29.1611 98.8321 28.6864C99.0726 28.2054 99.1928 27.6559 99.1928 27.0382C99.1928 26.4141 99.0726 25.8615 98.8321 25.3804C98.5914 24.8993 98.2502 24.5287 97.808 24.2686C97.3659 24.0021 96.8588 23.8688 96.2867 23.8688C95.7211 23.8688 95.2172 24.0021 94.775 24.2686C94.3395 24.5287 94.0013 24.8993 93.7608 25.3804C93.5202 25.8615 93.4032 26.4141 93.4097 27.0382C93.4097 27.6559 93.53 28.2054 93.7705 28.6864C94.0176 29.1611 94.3556 29.5317 94.7848 29.7983C95.2204 30.0583 95.7211 30.1884 96.2867 30.1884ZM104.84 21.655H101.875L105.083 32.4022H107.678L109.788 25.538L112.066 32.4022H114.621L117.84 21.655H115.158L113.332 28.3445L111.315 21.655H108.721L106.713 28.4918L104.84 21.655Z" fill="black"/>
<path d="M33.0596 15.2451L23.1943 34.5309H13.9279L18.0565 26.538H17.8713C14.4652 30.9596 9.38316 33.8704 2.14209 34.5309V26.6487C2.14209 26.6487 6.77438 26.3751 9.49757 23.512H2.14209V15.2453H10.4089V22.0446L10.5944 22.0438L13.9725 15.2453H20.2245V22.0015L20.4099 22.0012L23.9148 15.2451H33.0596ZM86.8565 32.4022H89.5189V17.1201H86.8565V32.4022ZM72.1789 32.2462C72.7575 32.4867 73.3459 32.607 73.9441 32.607C74.9323 32.607 75.8165 32.3665 76.5967 31.8853C77.3768 31.4042 77.9816 30.7411 78.4107 29.8959C78.8398 29.0442 79.0543 28.0786 79.0543 26.9993C79.0543 25.9201 78.8332 24.9546 78.3912 24.1029C77.949 23.2512 77.3346 22.5913 76.5479 22.1232C75.7612 21.6486 74.8672 21.4145 73.866 21.421C73.2289 21.421 72.6177 21.5445 72.0325 21.7916C71.4474 22.0387 70.9598 22.3897 70.5697 22.8449C70.5396 22.8795 70.5103 22.9145 70.4819 22.9498V17.1299H67.8098V32.4023H70.4624L70.4571 30.9755C70.5257 31.0596 70.5991 31.1418 70.6769 31.2222C71.0995 31.6578 71.6002 31.9991 72.1789 32.2462ZM74.9095 29.7789C74.4739 30.0454 73.9765 30.1787 73.4174 30.1787C72.8647 30.1787 72.3576 30.0421 71.896 29.7691C71.4343 29.4895 71.0671 29.1092 70.7939 28.628C70.5274 28.147 70.3941 27.6007 70.3941 26.9896C70.3877 26.3784 70.5176 25.8323 70.7842 25.3512C71.0573 24.8636 71.4246 24.4865 71.8863 24.2199C72.3478 23.9469 72.8583 23.8136 73.4174 23.8201C73.9765 23.8136 74.4739 23.9436 74.9095 24.2102C75.3516 24.4703 75.6897 24.8441 75.9238 25.3317C76.1643 25.8128 76.2846 26.3655 76.2846 26.9896C76.2846 27.6138 76.1643 28.1665 75.9238 28.6475C75.6897 29.1287 75.3516 29.5057 74.9095 29.7789ZM36.9166 18.0466H39.9594L42.6812 27.987L45.5768 18.0466H48.1124L51.2527 27.7875L53.8664 18.0466H56.6555L52.54 32.4022H49.9166L46.7233 22.8862L43.7921 32.4022H41.1394L36.9166 18.0466ZM61.1492 32.6557C60.0893 32.6623 59.1336 32.4281 58.2819 31.9536C57.4367 31.4724 56.7703 30.806 56.2826 29.9543C55.8016 29.1026 55.561 28.1306 55.561 27.0383C55.561 25.9785 55.8081 25.0196 56.3022 24.1614C56.7963 23.3032 57.4659 22.6335 58.3112 22.1524C59.1564 21.6713 60.0991 21.4307 61.1393 21.4307C62.3097 21.4307 63.3336 21.6908 64.2113 22.2109C65.0956 22.731 65.7555 23.469 66.1911 24.4247C66.6332 25.3739 66.7925 26.4629 66.669 27.6918H58.3154C58.3387 28.1813 58.4609 28.6267 58.6818 29.0278C58.9289 29.4699 59.2734 29.8145 59.7155 30.0616C60.1577 30.3086 60.6517 30.4322 61.1979 30.4322C61.614 30.4256 62.0009 30.3542 62.3584 30.2177C62.7161 30.0746 63.0183 29.8828 63.2654 29.6422C63.519 29.4017 63.6978 29.1287 63.8018 28.8231H66.591C66.4219 29.5707 66.0839 30.2372 65.5768 30.8223C65.0696 31.401 64.4325 31.8528 63.6652 32.1779C62.8981 32.5029 62.0594 32.6623 61.1492 32.6557ZM58.6915 25.0098C58.5358 25.2815 58.4277 25.5741 58.3676 25.8876H63.9051C63.865 25.4916 63.7427 25.1307 63.5385 24.805C63.3044 24.4214 62.9858 24.1256 62.5828 23.9176C62.1797 23.703 61.7246 23.5957 61.2174 23.5957C60.6778 23.5957 60.1869 23.7193 59.7448 23.9663C59.3027 24.2134 58.9516 24.5612 58.6915 25.0098ZM81.0148 21.655C81.0148 20.7838 81.2131 20.0101 81.6097 19.334C82.0062 18.6513 82.5622 18.1214 83.2774 17.7443C83.999 17.3607 84.841 17.1624 85.8032 17.1494V19.5193C85.3546 19.5258 84.971 19.62 84.6525 19.8021C84.3404 19.9776 84.0998 20.2344 83.9307 20.5725C83.7752 20.8838 83.6912 21.2446 83.6789 21.655H85.7447V23.9078H83.6773V32.4022H81.0148V23.9078H79.2984V21.655H81.0148ZM96.2867 32.6362C95.2009 32.6362 94.2289 32.3988 93.3707 31.9243C92.519 31.4431 91.8493 30.78 91.3617 29.9348C90.8805 29.0831 90.64 28.1176 90.64 27.0382C90.64 25.9526 90.8805 24.9838 91.3617 24.1321C91.8493 23.2739 92.519 22.6075 93.3707 22.1328C94.2289 21.6582 95.2009 21.4209 96.2867 21.4209C97.3789 21.4209 98.3542 21.6582 99.2123 22.1328C100.077 22.6075 100.75 23.2706 101.231 24.1223C101.712 24.974 101.956 25.946 101.963 27.0382C101.956 28.1176 101.712 29.0831 101.231 29.9348C100.757 30.78 100.087 31.4431 99.2221 31.9243C98.3574 32.3988 97.3789 32.6362 96.2867 32.6362ZM96.2867 30.1884C96.8588 30.1884 97.3659 30.0583 97.808 29.7983C98.2502 29.5317 98.5914 29.1611 98.8321 28.6864C99.0726 28.2054 99.1928 27.6559 99.1928 27.0382C99.1928 26.4141 99.0726 25.8615 98.8321 25.3804C98.5914 24.8993 98.2502 24.5287 97.808 24.2686C97.3659 24.0021 96.8588 23.8688 96.2867 23.8688C95.7211 23.8688 95.2172 24.0021 94.775 24.2686C94.3395 24.5287 94.0013 24.8993 93.7608 25.3804C93.5202 25.8615 93.4032 26.4141 93.4097 27.0382C93.4097 27.6559 93.53 28.2054 93.7705 28.6864C94.0176 29.1611 94.3556 29.5317 94.7848 29.7983C95.2204 30.0583 95.7211 30.1884 96.2867 30.1884ZM104.84 21.655H101.875L105.083 32.4022H107.678L109.788 25.538L112.066 32.4022H114.621L117.84 21.655H115.158L113.332 28.3445L111.315 21.655H108.721L106.713 28.4918L104.84 21.655Z" fill="black"/>
<path fill-rule="evenodd" clip-rule="evenodd" d="M33.0596 15.2451L23.1943 34.5309H13.9279L18.0565 26.538H17.8713C14.4652 30.9596 9.38316 33.8704 2.14209 34.5309V26.6487C2.14209 26.6487 6.77438 26.3751 9.49757 23.512H2.14209V15.2453H10.4089V22.0446L10.5944 22.0438L13.9725 15.2453H20.2245V22.0015L20.4099 22.0012L23.9148 15.2451H33.0596ZM86.8565 32.4022H89.5189V17.1201H86.8565V32.4022ZM72.1789 32.2462C72.7575 32.4867 73.3459 32.607 73.9441 32.607C74.9323 32.607 75.8165 32.3665 76.5967 31.8853C77.3768 31.4042 77.9816 30.7411 78.4107 29.8959C78.8398 29.0442 79.0543 28.0786 79.0543 26.9993C79.0543 25.9201 78.8332 24.9546 78.3912 24.1029C77.949 23.2512 77.3346 22.5913 76.5479 22.1232C75.7612 21.6486 74.8672 21.4145 73.866 21.421C73.2289 21.421 72.6177 21.5445 72.0325 21.7916C71.4474 22.0387 70.9598 22.3897 70.5697 22.8449C70.5396 22.8795 70.5103 22.9145 70.4819 22.9498V17.1299H67.8098V32.4023H70.4624L70.4571 30.9755C70.5257 31.0596 70.5991 31.1418 70.6769 31.2222C71.0995 31.6578 71.6002 31.9991 72.1789 32.2462ZM74.9095 29.7789C74.4739 30.0454 73.9765 30.1787 73.4174 30.1787C72.8647 30.1787 72.3576 30.0421 71.896 29.7691C71.4343 29.4895 71.0671 29.1092 70.7939 28.628C70.5274 28.147 70.3941 27.6007 70.3941 26.9896C70.3877 26.3784 70.5176 25.8323 70.7842 25.3512C71.0573 24.8636 71.4246 24.4865 71.8863 24.2199C72.3478 23.9469 72.8583 23.8136 73.4174 23.8201C73.9765 23.8136 74.4739 23.9436 74.9095 24.2102C75.3516 24.4703 75.6897 24.8441 75.9238 25.3317C76.1643 25.8128 76.2846 26.3655 76.2846 26.9896C76.2846 27.6138 76.1643 28.1665 75.9238 28.6475C75.6897 29.1287 75.3516 29.5057 74.9095 29.7789ZM36.9166 18.0466H39.9594L42.6812 27.987L45.5768 18.0466H48.1124L51.2527 27.7875L53.8664 18.0466H56.6555L52.54 32.4022H49.9166L46.7233 22.8862L43.7921 32.4022H41.1394L36.9166 18.0466ZM61.1492 32.6557C60.0893 32.6623 59.1336 32.4281 58.2819 31.9536C57.4367 31.4724 56.7703 30.806 56.2826 29.9543C55.8016 29.1026 55.561 28.1306 55.561 27.0383C55.561 25.9785 55.8081 25.0196 56.3022 24.1614C56.7963 23.3032 57.4659 22.6335 58.3112 22.1524C59.1564 21.6713 60.0991 21.4307 61.1393 21.4307C62.3097 21.4307 63.3336 21.6908 64.2113 22.2109C65.0956 22.731 65.7555 23.469 66.1911 24.4247C66.6332 25.3739 66.7925 26.4629 66.669 27.6918H58.3154C58.3387 28.1813 58.4609 28.6267 58.6818 29.0278C58.9289 29.4699 59.2734 29.8145 59.7155 30.0616C60.1577 30.3086 60.6517 30.4322 61.1979 30.4322C61.614 30.4256 62.0009 30.3542 62.3584 30.2177C62.7161 30.0746 63.0183 29.8828 63.2654 29.6422C63.519 29.4017 63.6978 29.1287 63.8018 28.8231H66.591C66.4219 29.5707 66.0839 30.2372 65.5768 30.8223C65.0696 31.401 64.4325 31.8528 63.6652 32.1779C62.8981 32.5029 62.0594 32.6623 61.1492 32.6557ZM58.6915 25.0098C58.5358 25.2815 58.4277 25.5741 58.3676 25.8876H63.9051C63.865 25.4916 63.7427 25.1307 63.5385 24.805C63.3044 24.4214 62.9858 24.1256 62.5828 23.9176C62.1797 23.703 61.7246 23.5957 61.2174 23.5957C60.6778 23.5957 60.1869 23.7193 59.7448 23.9663C59.3027 24.2134 58.9516 24.5612 58.6915 25.0098ZM81.0148 21.655C81.0148 20.7838 81.2131 20.0101 81.6097 19.334C82.0062 18.6513 82.5622 18.1214 83.2774 17.7443C83.999 17.3607 84.841 17.1624 85.8032 17.1494V19.5193C85.3546 19.5258 84.971 19.62 84.6525 19.8021C84.3404 19.9776 84.0998 20.2344 83.9307 20.5725C83.7752 20.8838 83.6912 21.2446 83.6789 21.655H85.7447V23.9078H83.6773V32.4022H81.0148V23.9078H79.2984V21.655H81.0148ZM96.2867 32.6362C95.2009 32.6362 94.2289 32.3988 93.3707 31.9243C92.519 31.4431 91.8493 30.78 91.3617 29.9348C90.8805 29.0831 90.64 28.1176 90.64 27.0382C90.64 25.9526 90.8805 24.9838 91.3617 24.1321C91.8493 23.2739 92.519 22.6075 93.3707 22.1328C94.2289 21.6582 95.2009 21.4209 96.2867 21.4209C97.3789 21.4209 98.3542 21.6582 99.2123 22.1328C100.077 22.6075 100.75 23.2706 101.231 24.1223C101.712 24.974 101.956 25.946 101.963 27.0382C101.956 28.1176 101.712 29.0831 101.231 29.9348C100.757 30.78 100.087 31.4431 99.2221 31.9243C98.3574 32.3988 97.3789 32.6362 96.2867 32.6362ZM96.2867 30.1884C96.8588 30.1884 97.3659 30.0583 97.808 29.7983C98.2502 29.5317 98.5914 29.1611 98.8321 28.6864C99.0726 28.2054 99.1928 27.6559 99.1928 27.0382C99.1928 26.4141 99.0726 25.8615 98.8321 25.3804C98.5914 24.8993 98.2502 24.5287 97.808 24.2686C97.3659 24.0021 96.8588 23.8688 96.2867 23.8688C95.7211 23.8688 95.2172 24.0021 94.775 24.2686C94.3395 24.5287 94.0013 24.8993 93.7608 25.3804C93.5202 25.8615 93.4032 26.4141 93.4097 27.0382C93.4097 27.6559 93.53 28.2054 93.7705 28.6864C94.0176 29.1611 94.3556 29.5317 94.7848 29.7983C95.2204 30.0583 95.7211 30.1884 96.2867 30.1884ZM104.84 21.655H101.875L105.083 32.4022H107.678L109.788 25.538L112.066 32.4022H114.621L117.84 21.655H115.158L113.332 28.3445L111.315 21.655H108.721L106.713 28.4918L104.84 21.655Z" fill="black"/>
<path d="M33.0596 15.2451L23.1943 34.5309H13.9279L18.0565 26.538H17.8713C14.4652 30.9596 9.38316 33.8704 2.14209 34.5309V26.6487C2.14209 26.6487 6.77438 26.3751 9.49757 23.512H2.14209V15.2453H10.4089V22.0446L10.5944 22.0438L13.9725 15.2453H20.2245V22.0015L20.4099 22.0012L23.9148 15.2451H33.0596ZM86.8565 32.4022H89.5189V17.1201H86.8565V32.4022ZM72.1789 32.2462C72.7575 32.4867 73.3459 32.607 73.9441 32.607C74.9323 32.607 75.8165 32.3665 76.5967 31.8853C77.3768 31.4042 77.9816 30.7411 78.4107 29.8959C78.8398 29.0442 79.0543 28.0786 79.0543 26.9993C79.0543 25.9201 78.8332 24.9546 78.3912 24.1029C77.949 23.2512 77.3346 22.5913 76.5479 22.1232C75.7612 21.6486 74.8672 21.4145 73.866 21.421C73.2289 21.421 72.6177 21.5445 72.0325 21.7916C71.4474 22.0387 70.9598 22.3897 70.5697 22.8449C70.5396 22.8795 70.5103 22.9145 70.4819 22.9498V17.1299H67.8098V32.4023H70.4624L70.4571 30.9755C70.5257 31.0596 70.5991 31.1418 70.6769 31.2222C71.0995 31.6578 71.6002 31.9991 72.1789 32.2462ZM74.9095 29.7789C74.4739 30.0454 73.9765 30.1787 73.4174 30.1787C72.8647 30.1787 72.3576 30.0421 71.896 29.7691C71.4343 29.4895 71.0671 29.1092 70.7939 28.628C70.5274 28.147 70.3941 27.6007 70.3941 26.9896C70.3877 26.3784 70.5176 25.8323 70.7842 25.3512C71.0573 24.8636 71.4246 24.4865 71.8863 24.2199C72.3478 23.9469 72.8583 23.8136 73.4174 23.8201C73.9765 23.8136 74.4739 23.9436 74.9095 24.2102C75.3516 24.4703 75.6897 24.8441 75.9238 25.3317C76.1643 25.8128 76.2846 26.3655 76.2846 26.9896C76.2846 27.6138 76.1643 28.1665 75.9238 28.6475C75.6897 29.1287 75.3516 29.5057 74.9095 29.7789ZM36.9166 18.0466H39.9594L42.6812 27.987L45.5768 18.0466H48.1124L51.2527 27.7875L53.8664 18.0466H56.6555L52.54 32.4022H49.9166L46.7233 22.8862L43.7921 32.4022H41.1394L36.9166 18.0466ZM61.1492 32.6557C60.0893 32.6623 59.1336 32.4281 58.2819 31.9536C57.4367 31.4724 56.7703 30.806 56.2826 29.9543C55.8016 29.1026 55.561 28.1306 55.561 27.0383C55.561 25.9785 55.8081 25.0196 56.3022 24.1614C56.7963 23.3032 57.4659 22.6335 58.3112 22.1524C59.1564 21.6713 60.0991 21.4307 61.1393 21.4307C62.3097 21.4307 63.3336 21.6908 64.2113 22.2109C65.0956 22.731 65.7555 23.469 66.1911 24.4247C66.6332 25.3739 66.7925 26.4629 66.669 27.6918H58.3154C58.3387 28.1813 58.4609 28.6267 58.6818 29.0278C58.9289 29.4699 59.2734 29.8145 59.7155 30.0616C60.1577 30.3086 60.6517 30.4322 61.1979 30.4322C61.614 30.4256 62.0009 30.3542 62.3584 30.2177C62.7161 30.0746 63.0183 29.8828 63.2654 29.6422C63.519 29.4017 63.6978 29.1287 63.8018 28.8231H66.591C66.4219 29.5707 66.0839 30.2372 65.5768 30.8223C65.0696 31.401 64.4325 31.8528 63.6652 32.1779C62.8981 32.5029 62.0594 32.6623 61.1492 32.6557ZM58.6915 25.0098C58.5358 25.2815 58.4277 25.5741 58.3676 25.8876H63.9051C63.865 25.4916 63.7427 25.1307 63.5385 24.805C63.3044 24.4214 62.9858 24.1256 62.5828 23.9176C62.1797 23.703 61.7246 23.5957 61.2174 23.5957C60.6778 23.5957 60.1869 23.7193 59.7448 23.9663C59.3027 24.2134 58.9516 24.5612 58.6915 25.0098ZM81.0148 21.655C81.0148 20.7838 81.2131 20.0101 81.6097 19.334C82.0062 18.6513 82.5622 18.1214 83.2774 17.7443C83.999 17.3607 84.841 17.1624 85.8032 17.1494V19.5193C85.3546 19.5258 84.971 19.62 84.6525 19.8021C84.3404 19.9776 84.0998 20.2344 83.9307 20.5725C83.7752 20.8838 83.6912 21.2446 83.6789 21.655H85.7447V23.9078H83.6773V32.4022H81.0148V23.9078H79.2984V21.655H81.0148ZM96.2867 32.6362C95.2009 32.6362 94.2289 32.3988 93.3707 31.9243C92.519 31.4431 91.8493 30.78 91.3617 29.9348C90.8805 29.0831 90.64 28.1176 90.64 27.0382C90.64 25.9526 90.8805 24.9838 91.3617 24.1321C91.8493 23.2739 92.519 22.6075 93.3707 22.1328C94.2289 21.6582 95.2009 21.4209 96.2867 21.4209C97.3789 21.4209 98.3542 21.6582 99.2123 22.1328C100.077 22.6075 100.75 23.2706 101.231 24.1223C101.712 24.974 101.956 25.946 101.963 27.0382C101.956 28.1176 101.712 29.0831 101.231 29.9348C100.757 30.78 100.087 31.4431 99.2221 31.9243C98.3574 32.3988 97.3789 32.6362 96.2867 32.6362ZM96.2867 30.1884C96.8588 30.1884 97.3659 30.0583 97.808 29.7983C98.2502 29.5317 98.5914 29.1611 98.8321 28.6864C99.0726 28.2054 99.1928 27.6559 99.1928 27.0382C99.1928 26.4141 99.0726 25.8615 98.8321 25.3804C98.5914 24.8993 98.2502 24.5287 97.808 24.2686C97.3659 24.0021 96.8588 23.8688 96.2867 23.8688C95.7211 23.8688 95.2172 24.0021 94.775 24.2686C94.3395 24.5287 94.0013 24.8993 93.7608 25.3804C93.5202 25.8615 93.4032 26.4141 93.4097 27.0382C93.4097 27.6559 93.53 28.2054 93.7705 28.6864C94.0176 29.1611 94.3556 29.5317 94.7848 29.7983C95.2204 30.0583 95.7211 30.1884 96.2867 30.1884ZM104.84 21.655H101.875L105.083 32.4022H107.678L109.788 25.538L112.066 32.4022H114.621L117.84 21.655H115.158L113.332 28.3445L111.315 21.655H108.721L106.713 28.4918L104.84 21.655Z" fill="black"/>
<path fill-rule="evenodd" clip-rule="evenodd" d="M33.0596 15.2451L23.1943 34.5309H13.9279L18.0565 26.538H17.8713C14.4652 30.9596 9.38316 33.8704 2.14209 34.5309V26.6487C2.14209 26.6487 6.77438 26.3751 9.49757 23.512H2.14209V15.2453H10.4089V22.0446L10.5944 22.0438L13.9725 15.2453H20.2245V22.0015L20.4099 22.0012L23.9148 15.2451H33.0596ZM86.8565 32.4022H89.5189V17.1201H86.8565V32.4022ZM72.1789 32.2462C72.7575 32.4867 73.3459 32.607 73.9441 32.607C74.9323 32.607 75.8165 32.3665 76.5967 31.8853C77.3768 31.4042 77.9816 30.7411 78.4107 29.8959C78.8398 29.0442 79.0543 28.0786 79.0543 26.9993C79.0543 25.9201 78.8332 24.9546 78.3912 24.1029C77.949 23.2512 77.3346 22.5913 76.5479 22.1232C75.7612 21.6486 74.8672 21.4145 73.866 21.421C73.2289 21.421 72.6177 21.5445 72.0325 21.7916C71.4474 22.0387 70.9598 22.3897 70.5697 22.8449C70.5396 22.8795 70.5103 22.9145 70.4819 22.9498V17.1299H67.8098V32.4023H70.4624L70.4571 30.9755C70.5257 31.0596 70.5991 31.1418 70.6769 31.2222C71.0995 31.6578 71.6002 31.9991 72.1789 32.2462ZM74.9095 29.7789C74.4739 30.0454 73.9765 30.1787 73.4174 30.1787C72.8647 30.1787 72.3576 30.0421 71.896 29.7691C71.4343 29.4895 71.0671 29.1092 70.7939 28.628C70.5274 28.147 70.3941 27.6007 70.3941 26.9896C70.3877 26.3784 70.5176 25.8323 70.7842 25.3512C71.0573 24.8636 71.4246 24.4865 71.8863 24.2199C72.3478 23.9469 72.8583 23.8136 73.4174 23.8201C73.9765 23.8136 74.4739 23.9436 74.9095 24.2102C75.3516 24.4703 75.6897 24.8441 75.9238 25.3317C76.1643 25.8128 76.2846 26.3655 76.2846 26.9896C76.2846 27.6138 76.1643 28.1665 75.9238 28.6475C75.6897 29.1287 75.3516 29.5057 74.9095 29.7789ZM36.9166 18.0466H39.9594L42.6812 27.987L45.5768 18.0466H48.1124L51.2527 27.7875L53.8664 18.0466H56.6555L52.54 32.4022H49.9166L46.7233 22.8862L43.7921 32.4022H41.1394L36.9166 18.0466ZM61.1492 32.6557C60.0893 32.6623 59.1336 32.4281 58.2819 31.9536C57.4367 31.4724 56.7703 30.806 56.2826 29.9543C55.8016 29.1026 55.561 28.1306 55.561 27.0383C55.561 25.9785 55.8081 25.0196 56.3022 24.1614C56.7963 23.3032 57.4659 22.6335 58.3112 22.1524C59.1564 21.6713 60.0991 21.4307 61.1393 21.4307C62.3097 21.4307 63.3336 21.6908 64.2113 22.2109C65.0956 22.731 65.7555 23.469 66.1911 24.4247C66.6332 25.3739 66.7925 26.4629 66.669 27.6918H58.3154C58.3387 28.1813 58.4609 28.6267 58.6818 29.0278C58.9289 29.4699 59.2734 29.8145 59.7155 30.0616C60.1577 30.3086 60.6517 30.4322 61.1979 30.4322C61.614 30.4256 62.0009 30.3542 62.3584 30.2177C62.7161 30.0746 63.0183 29.8828 63.2654 29.6422C63.519 29.4017 63.6978 29.1287 63.8018 28.8231H66.591C66.4219 29.5707 66.0839 30.2372 65.5768 30.8223C65.0696 31.401 64.4325 31.8528 63.6652 32.1779C62.8981 32.5029 62.0594 32.6623 61.1492 32.6557ZM58.6915 25.0098C58.5358 25.2815 58.4277 25.5741 58.3676 25.8876H63.9051C63.865 25.4916 63.7427 25.1307 63.5385 24.805C63.3044 24.4214 62.9858 24.1256 62.5828 23.9176C62.1797 23.703 61.7246 23.5957 61.2174 23.5957C60.6778 23.5957 60.1869 23.7193 59.7448 23.9663C59.3027 24.2134 58.9516 24.5612 58.6915 25.0098ZM81.0148 21.655C81.0148 20.7838 81.2131 20.0101 81.6097 19.334C82.0062 18.6513 82.5622 18.1214 83.2774 17.7443C83.999 17.3607 84.841 17.1624 85.8032 17.1494V19.5193C85.3546 19.5258 84.971 19.62 84.6525 19.8021C84.3404 19.9776 84.0998 20.2344 83.9307 20.5725C83.7752 20.8838 83.6912 21.2446 83.6789 21.655H85.7447V23.9078H83.6773V32.4022H81.0148V23.9078H79.2984V21.655H81.0148ZM96.2867 32.6362C95.2009 32.6362 94.2289 32.3988 93.3707 31.9243C92.519 31.4431 91.8493 30.78 91.3617 29.9348C90.8805 29.0831 90.64 28.1176 90.64 27.0382C90.64 25.9526 90.8805 24.9838 91.3617 24.1321C91.8493 23.2739 92.519 22.6075 93.3707 22.1328C94.2289 21.6582 95.2009 21.4209 96.2867 21.4209C97.3789 21.4209 98.3542 21.6582 99.2123 22.1328C100.077 22.6075 100.75 23.2706 101.231 24.1223C101.712 24.974 101.956 25.946 101.963 27.0382C101.956 28.1176 101.712 29.0831 101.231 29.9348C100.757 30.78 100.087 31.4431 99.2221 31.9243C98.3574 32.3988 97.3789 32.6362 96.2867 32.6362ZM96.2867 30.1884C96.8588 30.1884 97.3659 30.0583 97.808 29.7983C98.2502 29.5317 98.5914 29.1611 98.8321 28.6864C99.0726 28.2054 99.1928 27.6559 99.1928 27.0382C99.1928 26.4141 99.0726 25.8615 98.8321 25.3804C98.5914 24.8993 98.2502 24.5287 97.808 24.2686C97.3659 24.0021 96.8588 23.8688 96.2867 23.8688C95.7211 23.8688 95.2172 24.0021 94.775 24.2686C94.3395 24.5287 94.0013 24.8993 93.7608 25.3804C93.5202 25.8615 93.4032 26.4141 93.4097 27.0382C93.4097 27.6559 93.53 28.2054 93.7705 28.6864C94.0176 29.1611 94.3556 29.5317 94.7848 29.7983C95.2204 30.0583 95.7211 30.1884 96.2867 30.1884ZM104.84 21.655H101.875L105.083 32.4022H107.678L109.788 25.538L112.066 32.4022H114.621L117.84 21.655H115.158L113.332 28.3445L111.315 21.655H108.721L106.713 28.4918L104.84 21.655Z" fill="black"/>
<path d="M33.0596 15.2451L23.1943 34.5309H13.9279L18.0565 26.538H17.8713C14.4652 30.9596 9.38316 33.8704 2.14209 34.5309V26.6487C2.14209 26.6487 6.77438 26.3751 9.49757 23.512H2.14209V15.2453H10.4089V22.0446L10.5944 22.0438L13.9725 15.2453H20.2245V22.0015L20.4099 22.0012L23.9148 15.2451H33.0596ZM86.8565 32.4022H89.5189V17.1201H86.8565V32.4022ZM72.1789 32.2462C72.7575 32.4867 73.3459 32.607 73.9441 32.607C74.9323 32.607 75.8165 32.3665 76.5967 31.8853C77.3768 31.4042 77.9816 30.7411 78.4107 29.8959C78.8398 29.0442 79.0543 28.0786 79.0543 26.9993C79.0543 25.9201 78.8332 24.9546 78.3912 24.1029C77.949 23.2512 77.3346 22.5913 76.5479 22.1232C75.7612 21.6486 74.8672 21.4145 73.866 21.421C73.2289 21.421 72.6177 21.5445 72.0325 21.7916C71.4474 22.0387 70.9598 22.3897 70.5697 22.8449C70.5396 22.8795 70.5103 22.9145 70.4819 22.9498V17.1299H67.8098V32.4023H70.4624L70.4571 30.9755C70.5257 31.0596 70.5991 31.1418 70.6769 31.2222C71.0995 31.6578 71.6002 31.9991 72.1789 32.2462ZM74.9095 29.7789C74.4739 30.0454 73.9765 30.1787 73.4174 30.1787C72.8647 30.1787 72.3576 30.0421 71.896 29.7691C71.4343 29.4895 71.0671 29.1092 70.7939 28.628C70.5274 28.147 70.3941 27.6007 70.3941 26.9896C70.3877 26.3784 70.5176 25.8323 70.7842 25.3512C71.0573 24.8636 71.4246 24.4865 71.8863 24.2199C72.3478 23.9469 72.8583 23.8136 73.4174 23.8201C73.9765 23.8136 74.4739 23.9436 74.9095 24.2102C75.3516 24.4703 75.6897 24.8441 75.9238 25.3317C76.1643 25.8128 76.2846 26.3655 76.2846 26.9896C76.2846 27.6138 76.1643 28.1665 75.9238 28.6475C75.6897 29.1287 75.3516 29.5057 74.9095 29.7789ZM36.9166 18.0466H39.9594L42.6812 27.987L45.5768 18.0466H48.1124L51.2527 27.7875L53.8664 18.0466H56.6555L52.54 32.4022H49.9166L46.7233 22.8862L43.7921 32.4022H41.1394L36.9166 18.0466ZM61.1492 32.6557C60.0893 32.6623 59.1336 32.4281 58.2819 31.9536C57.4367 31.4724 56.7703 30.806 56.2826 29.9543C55.8016 29.1026 55.561 28.1306 55.561 27.0383C55.561 25.9785 55.8081 25.0196 56.3022 24.1614C56.7963 23.3032 57.4659 22.6335 58.3112 22.1524C59.1564 21.6713 60.0991 21.4307 61.1393 21.4307C62.3097 21.4307 63.3336 21.6908 64.2113 22.2109C65.0956 22.731 65.7555 23.469 66.1911 24.4247C66.6332 25.3739 66.7925 26.4629 66.669 27.6918H58.3154C58.3387 28.1813 58.4609 28.6267 58.6818 29.0278C58.9289 29.4699 59.2734 29.8145 59.7155 30.0616C60.1577 30.3086 60.6517 30.4322 61.1979 30.4322C61.614 30.4256 62.0009 30.3542 62.3584 30.2177C62.7161 30.0746 63.0183 29.8828 63.2654 29.6422C63.519 29.4017 63.6978 29.1287 63.8018 28.8231H66.591C66.4219 29.5707 66.0839 30.2372 65.5768 30.8223C65.0696 31.401 64.4325 31.8528 63.6652 32.1779C62.8981 32.5029 62.0594 32.6623 61.1492 32.6557ZM58.6915 25.0098C58.5358 25.2815 58.4277 25.5741 58.3676 25.8876H63.9051C63.865 25.4916 63.7427 25.1307 63.5385 24.805C63.3044 24.4214 62.9858 24.1256 62.5828 23.9176C62.1797 23.703 61.7246 23.5957 61.2174 23.5957C60.6778 23.5957 60.1869 23.7193 59.7448 23.9663C59.3027 24.2134 58.9516 24.5612 58.6915 25.0098ZM81.0148 21.655C81.0148 20.7838 81.2131 20.0101 81.6097 19.334C82.0062 18.6513 82.5622 18.1214 83.2774 17.7443C83.999 17.3607 84.841 17.1624 85.8032 17.1494V19.5193C85.3546 19.5258 84.971 19.62 84.6525 19.8021C84.3404 19.9776 84.0998 20.2344 83.9307 20.5725C83.7752 20.8838 83.6912 21.2446 83.6789 21.655H85.7447V23.9078H83.6773V32.4022H81.0148V23.9078H79.2984V21.655H81.0148ZM96.2867 32.6362C95.2009 32.6362 94.2289 32.3988 93.3707 31.9243C92.519 31.4431 91.8493 30.78 91.3617 29.9348C90.8805 29.0831 90.64 28.1176 90.64 27.0382C90.64 25.9526 90.8805 24.9838 91.3617 24.1321C91.8493 23.2739 92.519 22.6075 93.3707 22.1328C94.2289 21.6582 95.2009 21.4209 96.2867 21.4209C97.3789 21.4209 98.3542 21.6582 99.2123 22.1328C100.077 22.6075 100.75 23.2706 101.231 24.1223C101.712 24.974 101.956 25.946 101.963 27.0382C101.956 28.1176 101.712 29.0831 101.231 29.9348C100.757 30.78 100.087 31.4431 99.2221 31.9243C98.3574 32.3988 97.3789 32.6362 96.2867 32.6362ZM96.2867 30.1884C96.8588 30.1884 97.3659 30.0583 97.808 29.7983C98.2502 29.5317 98.5914 29.1611 98.8321 28.6864C99.0726 28.2054 99.1928 27.6559 99.1928 27.0382C99.1928 26.4141 99.0726 25.8615 98.8321 25.3804C98.5914 24.8993 98.2502 24.5287 97.808 24.2686C97.3659 24.0021 96.8588 23.8688 96.2867 23.8688C95.7211 23.8688 95.2172 24.0021 94.775 24.2686C94.3395 24.5287 94.0013 24.8993 93.7608 25.3804C93.5202 25.8615 93.4032 26.4141 93.4097 27.0382C93.4097 27.6559 93.53 28.2054 93.7705 28.6864C94.0176 29.1611 94.3556 29.5317 94.7848 29.7983C95.2204 30.0583 95.7211 30.1884 96.2867 30.1884ZM104.84 21.655H101.875L105.083 32.4022H107.678L109.788 25.538L112.066 32.4022H114.621L117.84 21.655H115.158L113.332 28.3445L111.315 21.655H108.721L106.713 28.4918L104.84 21.655Z" fill="black"/>
</svg>
