<svg width="111" height="49" viewBox="0 0 111 49" fill="none" xmlns="http://www.w3.org/2000/svg">
<path d="M0.5 24.8889C0.5 11.9102 11.0213 1.38892 24 1.38892C36.9787 1.38892 47.5 11.9102 47.5 24.8889C47.5 37.8676 36.9787 48.3889 24 48.3889C11.0213 48.3889 0.5 37.8676 0.5 24.8889Z" stroke="black"/>
<path d="M32 23.8889H19.83L25.42 18.2989L24 16.8889L16 24.8889L24 32.8889L25.41 31.4789L19.83 25.8889H32V23.8889Z" fill="black"/>
<path d="M63.5 24.8889C63.5 11.9102 74.0213 1.38892 87 1.38892C99.9787 1.38892 110.5 11.9102 110.5 24.8889C110.5 37.8676 99.9787 48.3889 87 48.3889C74.0213 48.3889 63.5 37.8676 63.5 24.8889Z" stroke="black"/>
<path d="M87 16.8889L85.59 18.2989L91.17 23.8889H79V25.8889H91.17L85.59 31.4789L87 32.8889L95 24.8889L87 16.8889Z" fill="black"/>
</svg>
