<svg width="116" height="20" viewBox="0 0 116 20" fill="none" xmlns="http://www.w3.org/2000/svg">
<g clip-path="url(#clip0_24_1720)">
<path d="M9.07088 1.38969C9.41462 0.573228 10.5854 0.573229 10.9291 1.38969L12.9579 6.20858C13.1029 6.55278 13.4306 6.78795 13.8067 6.81774L19.0727 7.23482C19.9649 7.30549 20.3267 8.40548 19.6469 8.98074L15.6348 12.376C15.3482 12.6186 15.223 12.9991 15.3106 13.3617L16.5363 18.4383C16.744 19.2985 15.7969 19.9783 15.033 19.5175L10.5245 16.7969C10.2025 16.6026 9.7975 16.6026 9.47548 16.7969L4.96699 19.5175C4.20311 19.9783 3.25596 19.2985 3.46363 18.4383L4.68942 13.3617C4.77698 12.9991 4.65182 12.6186 4.36526 12.376L0.353062 8.98074C-0.326718 8.40548 0.0350679 7.30549 0.927291 7.23482L6.19336 6.81774C6.5695 6.78795 6.89716 6.55278 7.04207 6.20858L9.07088 1.38969Z" fill="black"/>
<path d="M33.0709 1.38969C33.4146 0.573228 34.5854 0.573229 34.9291 1.38969L36.9579 6.20858C37.1029 6.55278 37.4306 6.78795 37.8067 6.81774L43.0727 7.23482C43.9649 7.30549 44.3267 8.40548 43.6469 8.98074L39.6348 12.376C39.3482 12.6186 39.223 12.9991 39.3106 13.3617L40.5363 18.4383C40.744 19.2985 39.7969 19.9783 39.033 19.5175L34.5245 16.7969C34.2025 16.6026 33.7975 16.6026 33.4755 16.7969L28.967 19.5175C28.2031 19.9783 27.256 19.2985 27.4636 18.4383L28.6894 13.3617C28.777 12.9991 28.6518 12.6186 28.3653 12.376L24.3531 8.98074C23.6733 8.40548 24.0351 7.30549 24.9273 7.23482L30.1934 6.81774C30.5695 6.78795 30.8972 6.55278 31.0421 6.20858L33.0709 1.38969Z" fill="black"/>
<path d="M57.0709 1.38969C57.4146 0.573228 58.5854 0.573229 58.9291 1.38969L60.9579 6.20858C61.1029 6.55278 61.4306 6.78795 61.8067 6.81774L67.0727 7.23482C67.9649 7.30549 68.3267 8.40548 67.6469 8.98074L63.6348 12.376C63.3482 12.6186 63.223 12.9991 63.3106 13.3617L64.5363 18.4383C64.744 19.2985 63.7969 19.9783 63.033 19.5175L58.5245 16.7969C58.2025 16.6026 57.7975 16.6026 57.4755 16.7969L52.967 19.5175C52.2031 19.9783 51.256 19.2985 51.4636 18.4383L52.6894 13.3617C52.777 12.9991 52.6518 12.6186 52.3653 12.376L48.3531 8.98074C47.6733 8.40548 48.0351 7.30549 48.9273 7.23482L54.1934 6.81774C54.5695 6.78795 54.8972 6.55278 55.0421 6.20858L57.0709 1.38969Z" fill="black"/>
<path d="M81.0709 1.38969C81.4146 0.573228 82.5854 0.573229 82.9291 1.38969L84.9579 6.20858C85.1029 6.55278 85.4306 6.78795 85.8067 6.81774L91.0727 7.23482C91.9649 7.30549 92.3267 8.40548 91.6469 8.98074L87.6348 12.376C87.3482 12.6186 87.223 12.9991 87.3106 13.3617L88.5363 18.4383C88.744 19.2985 87.7969 19.9783 87.033 19.5175L82.5245 16.7969C82.2025 16.6026 81.7975 16.6026 81.4755 16.7969L76.967 19.5175C76.2031 19.9783 75.256 19.2985 75.4636 18.4383L76.6894 13.3617C76.777 12.9991 76.6518 12.6186 76.3653 12.376L72.3531 8.98074C71.6733 8.40548 72.0351 7.30549 72.9273 7.23482L78.1934 6.81774C78.5695 6.78795 78.8972 6.55278 79.0421 6.20858L81.0709 1.38969Z" fill="black"/>
<path d="M105.071 1.38969C105.415 0.573228 106.585 0.573229 106.929 1.38969L108.958 6.20858C109.103 6.55278 109.431 6.78795 109.807 6.81774L115.073 7.23482C115.965 7.30549 116.327 8.40548 115.647 8.98074L111.635 12.376C111.348 12.6186 111.223 12.9991 111.311 13.3617L112.536 18.4383C112.744 19.2985 111.797 19.9783 111.033 19.5175L106.525 16.7969C106.203 16.6026 105.797 16.6026 105.475 16.7969L100.967 19.5175C100.203 19.9783 99.256 19.2985 99.4636 18.4383L100.689 13.3617C100.777 12.9991 100.652 12.6186 100.365 12.376L96.3531 8.98074C95.6733 8.40548 96.0351 7.30549 96.9273 7.23482L102.193 6.81774C102.569 6.78795 102.897 6.55278 103.042 6.20858L105.071 1.38969Z" fill="black"/>
</g>
<defs>
<clipPath id="clip0_24_1720">
<rect width="116" height="18.8889" fill="white" transform="translate(0 0.777344)"/>
</clipPath>
</defs>
</svg>
